<svg width="40" height="40" viewBox="0 0 40 40" fill="none" xmlns="http://www.w3.org/2000/svg">
<g id="001-content">
<path id="Vector" d="M32.3398 9.37231H40.0001V29.8792H32.3398V9.37231Z" fill="white"/>
<path id="Vector_2" d="M37.215 2.43445C37.0151 2.04077 36.611 1.79297 36.17 1.79297C35.7288 1.79297 35.3247 2.04077 35.1251 2.43445L32.7924 7.02856H39.5474L37.215 2.43445Z" fill="white"/>
<path id="Vector_3" d="M32.3398 35.192C32.3398 36.908 33.7461 38.3041 35.4746 38.3041H36.8653C38.5938 38.3041 40.0001 36.908 40.0001 35.192V32.2229H32.3398V35.192Z" fill="white"/>
<path id="Vector_4" d="M24.8859 1.71875H5.03113C2.25708 1.71875 0 3.97552 0 6.74988V33.2733C0 36.0474 2.25708 38.3041 5.03113 38.3041H24.8859C27.6599 38.3041 29.917 36.0474 29.917 33.2733V6.74988C29.917 3.97552 27.6599 1.71875 24.8859 1.71875ZM12.9904 30.5981H5.9967C5.34943 30.5981 4.82483 30.0735 4.82483 29.4263C4.82483 28.779 5.34943 28.2544 5.9967 28.2544H12.9904C13.6377 28.2544 14.1623 28.779 14.1623 29.4263C14.1623 30.0735 13.6377 30.5981 12.9904 30.5981ZM12.9904 25.8319H5.9967C5.34943 25.8319 4.82483 25.3073 4.82483 24.66C4.82483 24.0128 5.34943 23.4882 5.9967 23.4882H12.9904C13.6377 23.4882 14.1623 24.0128 14.1623 24.66C14.1623 25.3073 13.6377 25.8319 12.9904 25.8319ZM12.9904 21.1441H5.9967C5.34943 21.1441 4.82483 20.6195 4.82483 19.9722C4.82483 19.325 5.34943 18.8004 5.9967 18.8004H12.9904C13.6377 18.8004 14.1623 19.325 14.1623 19.9722C14.1623 20.6195 13.6377 21.1441 12.9904 21.1441ZM12.9904 16.4563H5.9967C5.34943 16.4563 4.82483 15.9317 4.82483 15.2844C4.82483 14.6371 5.34943 14.1125 5.9967 14.1125H12.9904C13.6377 14.1125 14.1623 14.6371 14.1623 15.2844C14.1623 15.9317 13.6377 16.4563 12.9904 16.4563ZM12.9904 11.7685H5.9967C5.34943 11.7685 4.82483 11.2439 4.82483 10.5966C4.82483 9.94934 5.34943 9.42474 5.9967 9.42474H12.9904C13.6377 9.42474 14.1623 9.94934 14.1623 10.5966C14.1623 11.2439 13.6377 11.7685 12.9904 11.7685ZM20.2948 30.5981H16.9263C16.279 30.5981 15.7544 30.0735 15.7544 29.4263C15.7544 28.779 16.279 28.2544 16.9263 28.2544H20.2948C20.9421 28.2544 21.4667 28.779 21.4667 29.4263C21.4667 30.0735 20.9421 30.5981 20.2948 30.5981ZM23.9203 16.4563H16.9263C16.2793 16.4563 15.7544 15.9317 15.7544 15.2844C15.7544 14.6371 16.2793 14.1125 16.9263 14.1125H23.9203C24.5676 14.1125 25.0922 14.6371 25.0922 15.2844C25.0922 15.9317 24.5676 16.4563 23.9203 16.4563ZM23.9203 11.7685H16.9263C16.2793 11.7685 15.7544 11.2439 15.7544 10.5966C15.7544 9.94934 16.2793 9.42474 16.9263 9.42474H23.9203C24.5676 9.42474 25.0922 9.94934 25.0922 10.5966C25.0922 11.2439 24.5676 11.7685 23.9203 11.7685Z" fill="white"/>
</g>
</svg>
