<svg width="40" height="40" viewBox="0 0 40 40" fill="none" xmlns="http://www.w3.org/2000/svg">
<g id="002-email">
<path id="Vector" d="M39.6215 7.80767L22.7666 24.2952C22.0041 25.0581 21.002 25.4395 20 25.4395C18.998 25.4395 17.9959 25.0581 17.2334 24.2952L0.523828 7.54041C0.200547 8.14791 0 8.83017 0 9.56517V30.4347C0 31.1686 0.2 31.85 0.5225 32.457L9.56523 23.4256C10.0747 22.9161 10.9002 22.9161 11.4097 23.4256C11.9191 23.9346 11.9191 24.7609 11.4097 25.27L2.37922 34.2892C2.97305 34.5941 3.6357 34.7825 4.34781 34.7825H35.6522C36.3643 34.7825 37.027 34.5941 37.6208 34.2892L28.5903 25.2699C28.0809 24.7609 28.0809 23.9346 28.5903 23.4255C29.0998 22.916 29.9252 22.916 30.4348 23.4255L39.4775 32.457C39.8 31.85 40 31.1686 40 30.4347V9.56517C40 8.93869 39.8609 8.34627 39.6215 7.80767Z" fill="white"/>
<path id="Vector_2" d="M35.6523 5.21741H4.3479C3.63681 5.21741 2.97493 5.4053 2.38165 5.70944L19.0779 22.4508C19.5866 22.9595 20.4136 22.9595 20.9224 22.4508L37.8873 5.85545C37.2319 5.45905 36.4724 5.21741 35.6523 5.21741Z" fill="white"/>
</g>
</svg>
