<svg width="40" height="40" viewBox="0 0 40 40" fill="none" xmlns="http://www.w3.org/2000/svg">
<g id="002-group">
<g id="Group">
<g id="Group_2">
<path id="Vector" d="M34.2258 21.353H31.1323C31.4476 22.2163 31.6199 23.148 31.6199 24.119V35.8104C31.6199 36.2152 31.5494 36.6038 31.4212 36.9652H36.5354C38.4458 36.9652 39.9999 35.411 39.9999 33.5007V27.1272C40 23.9433 37.4097 21.353 34.2258 21.353Z" fill="#3C50E0"/>
</g>
</g>
<g id="Group_3">
<g id="Group_4">
<path id="Vector_2" d="M8.38009 24.1192C8.38009 23.1481 8.55236 22.2166 8.86767 21.3533H5.77423C2.59032 21.3533 0 23.9436 0 27.1275V33.501C0 35.4113 1.55414 36.9656 3.46454 36.9656H8.57877C8.45056 36.604 8.38009 36.2155 8.38009 35.8106V24.1192Z" fill="#3C50E0"/>
</g>
</g>
<g id="Group_5">
<g id="Group_6">
<path id="Vector_3" d="M23.536 18.345H16.4639C13.28 18.345 10.6897 20.9353 10.6897 24.1192V35.8106C10.6897 36.4484 11.2067 36.9655 11.8445 36.9655H28.1553C28.7932 36.9655 29.3102 36.4484 29.3102 35.8106V24.1192C29.3102 20.9353 26.7199 18.345 23.536 18.345Z" fill="#3C50E0"/>
</g>
</g>
<g id="Group_7">
<g id="Group_8">
<path id="Vector_4" d="M20 3.03418C16.1709 3.03418 13.0558 6.14934 13.0558 9.97849C13.0558 12.5758 14.4893 14.8441 16.6063 16.0351C17.6105 16.5999 18.7681 16.9227 20 16.9227C21.2319 16.9227 22.3895 16.5999 23.3937 16.0351C25.5108 14.8441 26.9442 12.5757 26.9442 9.97849C26.9442 6.14942 23.8291 3.03418 20 3.03418Z" fill="#3C50E0"/>
</g>
</g>
<g id="Group_9">
<g id="Group_10">
<path id="Vector_5" d="M7.80598 9.50708C4.9423 9.50708 2.61261 11.8368 2.61261 14.7004C2.61261 17.5641 4.9423 19.8938 7.80598 19.8938C8.53239 19.8938 9.22411 19.7434 9.85247 19.4729C10.9389 19.0051 11.8347 18.1772 12.389 17.1401C12.778 16.4122 12.9993 15.5818 12.9993 14.7004C12.9993 11.8369 10.6697 9.50708 7.80598 9.50708Z" fill="#3C50E0"/>
</g>
</g>
<g id="Group_11">
<g id="Group_12">
<path id="Vector_6" d="M32.194 9.50708C29.3303 9.50708 27.0006 11.8368 27.0006 14.7004C27.0006 15.5819 27.2219 16.4123 27.611 17.1401C28.1653 18.1773 29.0611 19.0052 30.1475 19.4729C30.7759 19.7434 31.4676 19.8938 32.194 19.8938C35.0577 19.8938 37.3874 17.5641 37.3874 14.7004C37.3874 11.8368 35.0577 9.50708 32.194 9.50708Z" fill="#3C50E0"/>
</g>
</g>
</g>
</svg>
