<svg width="40" height="40" viewBox="0 0 40 40" fill="none" xmlns="http://www.w3.org/2000/svg">
<g id="003-friends" clip-path="url(#clip0_511_1764)">
<g id="Group">
<g id="Group_2">
<path id="Vector" d="M12.1349 4.46411C8.10904 4.46411 4.8338 7.93677 4.8338 12.2052C4.8338 16.4736 8.10904 19.9463 12.1349 19.9463C16.1608 19.9463 19.4361 16.4736 19.4361 12.2052C19.4361 7.93677 16.1608 4.46411 12.1349 4.46411Z" fill="#3C50E0"/>
</g>
</g>
<g id="Group_3">
<g id="Group_4">
<path id="Vector_2" d="M28.7341 5.57202C28.7177 5.57202 28.7009 5.5721 28.6844 5.57218C26.9949 5.58616 25.4168 6.29952 24.2409 7.58101C23.0855 8.83983 22.4573 10.5005 22.4718 12.2571C22.4863 14.0137 23.1419 15.6637 24.3177 16.9034C25.5029 18.1527 27.0728 18.8388 28.7436 18.8388C28.7604 18.8388 28.7772 18.8387 28.7941 18.8387C30.4836 18.8247 32.0617 18.1112 33.2376 16.8298C34.393 15.571 35.0212 13.9103 35.0067 12.1537C34.9766 8.5135 32.1677 5.57202 28.7341 5.57202Z" fill="#3C50E0"/>
</g>
</g>
<g id="Group_5">
<g id="Group_6">
<path id="Vector_3" d="M29.0422 20.1062H28.436C25.6125 20.1062 23.0359 21.1796 21.0906 22.939C21.5774 23.3125 22.0406 23.7195 22.4797 24.1585C23.775 25.4539 24.7922 26.9632 25.5031 28.6445C26.1438 30.1585 26.5094 31.7539 26.5945 33.3968H40V31.0632C40 25.0218 35.0844 20.1062 29.0422 20.1062Z" fill="#3C50E0"/>
</g>
</g>
<g id="Group_7">
<g id="Group_8">
<path id="Vector_4" d="M24.2461 33.3968C24.025 29.8351 22.2195 26.7022 19.525 24.6944C17.5648 23.2335 15.1336 22.3687 12.5 22.3687H11.7703C5.26953 22.3687 0 27.6382 0 34.139V35.5358H24.2695V34.139C24.2695 33.8897 24.2617 33.6421 24.2461 33.3968Z" fill="#3C50E0"/>
</g>
</g>
</g>
<defs>
<clipPath id="clip0_511_1764">
<rect width="40" height="40" fill="white"/>
</clipPath>
</defs>
</svg>
