<svg width="40" height="40" viewBox="0 0 40 40" fill="none" xmlns="http://www.w3.org/2000/svg">
<g id="003-megaphone" clip-path="url(#clip0_511_1950)">
<path id="Vector" d="M36.4897 16.6078L20.8891 1.00487C19.969 0.08706 18.4806 0.0979194 17.5726 1.0037C16.6594 1.91925 16.6594 3.40582 17.5726 4.32019L33.1755 19.922C34.0896 20.8361 35.5756 20.8361 36.4897 19.922C37.4063 19.0055 37.4063 17.5242 36.4897 16.6078Z" fill="white"/>
<path id="Vector_2" d="M16.4154 6.47693L16.2979 7.06552C15.4708 11.2029 13.4607 15.1334 10.7418 18.3191L19.2299 26.8072C22.4152 24.0889 26.2916 22.0248 30.4291 21.1966L31.0188 21.0792L16.4154 6.47693Z" fill="white"/>
<path id="Vector_3" d="M9.18567 20.0773L3.38465 25.8771C2.01394 27.2478 2.00824 29.4731 3.38465 30.8496L6.69887 34.1638C8.06958 35.5345 10.2949 35.5401 11.6713 34.1638L17.4718 28.3633L9.18567 20.0773ZM10.0143 29.1925C9.55653 29.6503 8.81489 29.6503 8.35716 29.1925C7.89942 28.7348 7.89942 27.9931 8.35716 27.5354L10.0143 25.8783C10.472 25.4206 11.2136 25.4206 11.6714 25.8783C12.1291 26.336 12.1291 27.0777 11.6714 27.5354L10.0143 29.1925Z" fill="white"/>
<path id="Vector_4" d="M22.3646 34.7875L23.9587 33.1933C25.3352 31.8171 25.3307 29.5918 23.9588 28.2222L22.7747 27.0372C22.1203 27.4768 21.4953 27.9545 20.8876 28.4642L22.3017 29.8804C22.7583 30.3347 22.7615 31.074 22.3017 31.5363L20.6812 33.1568L18.2998 30.8495L14.9854 34.1639L20.3024 39.316C21.2097 40.2257 22.6995 40.2309 23.6154 39.3148C24.5298 38.4005 24.5298 36.9139 23.6154 35.9994L22.3646 34.7875Z" fill="white"/>
<path id="Vector_5" d="M27.0988 0C26.4511 0 25.9269 0.524142 25.9269 1.17188V3.51563C25.9269 4.16337 26.4511 4.68751 27.0988 4.68751C27.7465 4.68751 28.2707 4.16337 28.2707 3.51563V1.17188C28.2707 0.524142 27.7465 0 27.0988 0Z" fill="white"/>
<path id="Vector_6" d="M36.4738 9.375H34.1301C33.4823 9.375 32.9582 9.89914 32.9582 10.5469C32.9582 11.1946 33.4823 11.7188 34.1301 11.7188H36.4738C37.1216 11.7188 37.6457 11.1946 37.6457 10.5469C37.6457 9.89914 37.1216 9.375 36.4738 9.375Z" fill="white"/>
<path id="Vector_7" d="M34.9585 2.68705C34.5008 2.22932 33.7592 2.22932 33.3014 2.68705L30.9577 5.03081C30.4999 5.48854 30.4999 6.23018 30.9577 6.68792C31.4154 7.14565 32.1571 7.14573 32.6148 6.68792L34.9585 4.34416C35.4163 3.88643 35.4163 3.14479 34.9585 2.68705Z" fill="white"/>
</g>
<defs>
<clipPath id="clip0_511_1950">
<rect width="40" height="40" fill="white"/>
</clipPath>
</defs>
</svg>
