<svg width="30" height="30" viewBox="0 0 30 30" fill="none" xmlns="http://www.w3.org/2000/svg">
<g id="email 1">
<path id="Vector" d="M19.8862 15.154L29.9999 21.5477V8.49023L19.8862 15.154Z" fill="#627193"/>
<path id="Vector_2" d="M0 8.49023V21.5477L10.1138 15.154L0 8.49023Z" fill="#627193"/>
<path id="Vector_3" d="M28.125 4.6875H1.87502C0.939399 4.6875 0.196899 5.385 0.0562744 6.28313L15 16.1287L29.9438 6.28313C29.8032 5.385 29.0606 4.6875 28.125 4.6875Z" fill="#627193"/>
<path id="Vector_4" d="M18.1688 16.2865L15.5157 18.034C15.3582 18.1372 15.1801 18.1878 15.0001 18.1878C14.8201 18.1878 14.6419 18.1372 14.4844 18.034L11.8313 16.2847L0.0600586 23.7303C0.204434 24.6209 0.943184 25.3128 1.87506 25.3128H28.1251C29.0569 25.3128 29.7957 24.6209 29.9401 23.7303L18.1688 16.2865Z" fill="#627193"/>
</g>
</svg>
