<svg width="14" height="21" viewBox="0 0 14 21" fill="none" xmlns="http://www.w3.org/2000/svg">
<g id="Group 1961">
<path id="Vector 236" d="M13 0.5H7L0.5 10.5H5.5L0.5 20L13.5 7H8.5L13 0.5Z" fill="#FFDD09"/>
<path id="Vector 237" d="M0.5 20L13.5 7H10.5L0.5 20Z" fill="#FB9E06"/>
<path id="Vector 236 (Stroke)" fill-rule="evenodd" clip-rule="evenodd" d="M6.58082 0.227506C6.67305 0.0856094 6.8308 0 7.00004 0H13C13.186 0 13.3566 0.103216 13.4429 0.267947C13.5292 0.432677 13.517 0.6317 13.4111 0.784605L9.45433 6.5H13.5C13.7023 6.5 13.8846 6.62182 13.962 6.80866C14.0394 6.9955 13.9966 7.21055 13.8536 7.35355L0.853596 20.3536C0.678798 20.5284 0.402502 20.5492 0.203478 20.4026C0.00445516 20.2559 -0.0575497 19.9859 0.0575831 19.7671L4.67186 11H0.500042C0.316687 11 0.14804 10.8996 0.0605839 10.7385C-0.0268719 10.5773 -0.019106 10.3812 0.0808204 10.2275L6.58082 0.227506ZM7.27139 1L1.42139 10H5.50004C5.67519 10 5.83756 10.0916 5.92808 10.2416C6.0186 10.3915 6.02407 10.5779 5.9425 10.7329L2.47855 17.3144L12.2929 7.5H8.50004C8.31407 7.5 8.14346 7.39678 8.05715 7.23205C7.97084 7.06732 7.98309 6.8683 8.08895 6.71539L12.0458 1H7.27139Z" fill="#333333"/>
</g>
</svg>
