<svg width="34" height="34" viewBox="0 0 34 34" fill="none" xmlns="http://www.w3.org/2000/svg">
<g id="search 1" clip-path="url(#clip0_511_1877)">
<path id="Union" fill-rule="evenodd" clip-rule="evenodd" d="M22.3438 8.42244L27.8511 3.91372C24.9069 1.4693 21.1249 0 17.0001 0C10.4298 0 4.73018 3.72692 1.90088 9.18186C0.685645 11.5226 0 14.181 0 17C0 19.9153 0.733258 22.6586 2.02599 25.0563C4.89733 30.3814 10.5261 34.0002 17.0001 34.0002C21.0287 34.0002 24.7296 32.5991 27.6429 30.2574C30.6384 27.8494 32.8008 24.4464 33.6283 20.5495C33.8721 19.4043 34 18.2171 34 17C34 15.9146 33.8982 14.8526 33.703 13.8242H17.3738V20.5495H26.4641C25.6459 22.7334 24.0925 24.5576 22.1048 25.7233C20.6076 26.6022 18.8626 27.1059 17.0001 27.1059C12.667 27.1059 8.97089 24.3784 7.53525 20.5469C7.12054 19.4438 6.89436 18.2479 6.89423 17C6.89423 15.8502 7.08668 14.7452 7.43976 13.7158C8.80348 9.74694 12.5688 6.8943 17.0001 6.8943C18.9625 6.8943 20.7943 7.45384 22.3438 8.42244Z" fill="#3C50E0"/>
</g>
<defs>
<clipPath id="clip0_511_1877">
<rect width="34" height="34" fill="white"/>
</clipPath>
</defs>
</svg>
