<svg width="169" height="28" viewBox="0 0 169 28" fill="none" xmlns="http://www.w3.org/2000/svg">
<g id="logo">
<g id="Logo">
<path id="Rectangle 1364" d="M0 0H27.4398C32.9278 0 37.4466 4.41104 37.7016 10.6791H10.2618C4.77381 10.6791 0.254979 6.26803 0 0Z" fill="#2D76F9"/>
<path id="Subtract" fill-rule="evenodd" clip-rule="evenodd" d="M25.0585 23.311C29.7136 23.311 33.4873 18.9963 33.4873 13.6738H37.5878C37.5878 15.5551 37.2637 17.4179 36.6341 19.156C36.0044 20.894 35.0815 22.4733 33.918 23.8035C32.7546 25.1338 31.3734 26.189 29.8533 26.9089C28.3332 27.6289 26.7039 27.9994 25.0585 27.9994C23.4132 27.9994 21.7839 27.6289 20.2638 26.9089C18.7437 26.189 17.3625 25.1338 16.199 23.8035C15.0356 22.4733 14.1127 20.894 13.483 19.156C12.8534 17.4179 12.5293 15.5551 12.5293 13.6738H16.6298C16.6298 18.9963 20.4034 23.311 25.0585 23.311Z" fill="#2D76F9"/>
<path id="Ellipse 1188" d="M30.5264 13.6738C30.5264 14.4947 30.385 15.3076 30.1102 16.066C29.8355 16.8245 29.4327 17.5136 28.9251 18.0941C28.4174 18.6745 27.8147 19.135 27.1513 19.4492C26.488 19.7633 25.7771 19.925 25.0591 19.925C24.3411 19.925 23.6302 19.7633 22.9669 19.4491C22.3035 19.135 21.7008 18.6745 21.1931 18.0941C20.6854 17.5136 20.2827 16.8245 20.008 16.066C19.7332 15.3076 19.5918 14.4947 19.5918 13.6738L25.0591 13.6738H30.5264Z" fill="#2E2C49"/>
</g>
<g id="Doorhub">
<path d="M60.0665 3C62.2041 3 63.8215 3.58169 64.9187 4.74507C66.0348 5.88873 66.5929 7.57465 66.5929 9.80282V16.9014C66.5929 19.1296 66.0348 20.8254 64.9187 21.9887C63.8215 23.1324 62.2041 23.7042 60.0665 23.7042H49V3H60.0665ZM61.4853 9.80282C61.4853 8.02817 60.634 7.14085 58.9315 7.14085H54.1076V19.5634H58.9315C60.634 19.5634 61.4853 18.6761 61.4853 16.9014V9.80282Z" fill="#2E2C49"/>
<path d="M84.4618 19.2676C84.4618 20.7465 84.055 21.9099 83.2416 22.7577C82.4471 23.5859 81.3404 24 79.9217 24H73.3953C71.9765 24 70.8604 23.5859 70.0469 22.7577C69.2524 21.9099 68.8552 20.7465 68.8552 19.2676V12.4648C68.8552 10.9859 69.2524 9.83239 70.0469 9.00423C70.8604 8.15634 71.9765 7.73239 73.3953 7.73239H79.9217C81.3404 7.73239 82.4471 8.15634 83.2416 9.00423C84.055 9.83239 84.4618 10.9859 84.4618 12.4648V19.2676ZM79.496 12.9085C79.496 12.1197 79.1177 11.7254 78.361 11.7254H74.9559C74.1992 11.7254 73.8209 12.1197 73.8209 12.9085V18.8239C73.8209 19.6127 74.1992 20.007 74.9559 20.007H78.361C79.1177 20.007 79.496 19.6127 79.496 18.8239V12.9085Z" fill="#2E2C49"/>
<path d="M102.335 19.2676C102.335 20.7465 101.928 21.9099 101.115 22.7577C100.32 23.5859 99.2137 24 97.795 24H91.2686C89.8498 24 88.7337 23.5859 87.9203 22.7577C87.1257 21.9099 86.7285 20.7465 86.7285 19.2676V12.4648C86.7285 10.9859 87.1257 9.83239 87.9203 9.00423C88.7337 8.15634 89.8498 7.73239 91.2686 7.73239H97.795C99.2137 7.73239 100.32 8.15634 101.115 9.00423C101.928 9.83239 102.335 10.9859 102.335 12.4648V19.2676ZM97.3693 12.9085C97.3693 12.1197 96.991 11.7254 96.2343 11.7254H92.8292C92.0725 11.7254 91.6942 12.1197 91.6942 12.9085V18.8239C91.6942 19.6127 92.0725 20.007 92.8292 20.007H96.2343C96.991 20.007 97.3693 19.6127 97.3693 18.8239V12.9085Z" fill="#2E2C49"/>
<path d="M113.54 12.3169C112.348 12.3169 111.119 12.6127 109.851 13.2042V23.7042H104.886V8.02817H109.284L109.568 9.9507C111.194 8.47183 112.897 7.73239 114.675 7.73239H115.952V12.3169H113.54Z" fill="#2E2C49"/>
<path d="M122.903 8.32394C124.738 7.92958 126.346 7.73239 127.727 7.73239H129.004C130.29 7.73239 131.321 8.13662 132.097 8.94507C132.872 9.75352 133.26 10.8282 133.26 12.169V23.7042H128.294V12.7606C128.294 12.4648 128.2 12.2183 128.011 12.0211C127.821 11.8239 127.585 11.7254 127.301 11.7254H126.308C125.589 11.7254 124.927 11.7648 124.322 11.8437C123.735 11.9225 123.262 11.9817 122.903 12.0211V23.7042H117.937V3H122.903V8.32394Z" fill="#2E2C49"/>
<path d="M142.763 19.7113C143.765 19.7113 144.9 19.5141 146.168 19.1197V8.02817H151.133V23.7042H146.735L146.451 22.2254C145.562 22.8366 144.645 23.2901 143.699 23.5859C142.772 23.862 141.987 24 141.344 24H140.067C138.781 24 137.75 23.5958 136.974 22.7873C136.198 21.9789 135.811 20.9042 135.811 19.5634V8.02817H140.776V18.6761C140.776 18.9718 140.871 19.2183 141.06 19.4155C141.249 19.6127 141.486 19.7113 141.769 19.7113H142.763Z" fill="#2E2C49"/>
<path d="M164.034 12.7606C164.034 12.4648 163.94 12.2183 163.751 12.0211C163.561 11.8239 163.325 11.7254 163.041 11.7254H162.332C161.537 11.7254 160.847 11.7648 160.26 11.8437C159.693 11.9225 159.248 11.9817 158.927 12.0211V19.7113H162.899C163.656 19.7113 164.034 19.3169 164.034 18.5282V12.7606ZM158.927 8.32394C160.762 7.92958 162.37 7.73239 163.751 7.73239H164.744C166.03 7.73239 167.061 8.13662 167.837 8.94507C168.612 9.75352 169 10.8282 169 12.169V18.9718C169 20.4507 168.593 21.6141 167.78 22.462C166.985 23.2901 165.879 23.7042 164.46 23.7042H153.961V3H158.927V8.32394Z" fill="#2E2C49"/>
</g>
</g>
</svg>
