<svg width="26" height="26" viewBox="0 0 26 26" fill="none" xmlns="http://www.w3.org/2000/svg">
<path fill-rule="evenodd" clip-rule="evenodd" d="M19.441 17.936C20.8313 16.2936 21.6697 14.1689 21.6697 11.8485C21.6697 6.64194 17.449 2.4212 12.2424 2.4212C7.03589 2.4212 2.81516 6.64194 2.81516 11.8485C2.81516 17.055 7.03589 21.2757 12.2424 21.2757C14.5629 21.2757 16.6875 20.4374 18.33 19.047L21.1142 21.8313C21.421 22.1381 21.9184 22.1381 22.2252 21.8313C22.532 21.5245 22.532 21.027 22.2252 20.7202L19.441 17.936ZM20.0985 11.8485C20.0985 16.1873 16.5812 19.7045 12.2424 19.7045C7.90365 19.7045 4.38637 16.1873 4.38637 11.8485C4.38637 7.50969 7.90365 3.99242 12.2424 3.99242C16.5812 3.99242 20.0985 7.50969 20.0985 11.8485Z" fill="black"/>
</svg>
