<svg version="1.2" xmlns="http://www.w3.org/2000/svg" viewBox="0 0 66 46" width="66" height="46"><defs><linearGradient id="P" gradientUnits="userSpaceOnUse"/><linearGradient id="g1" x2="1" href="#P" gradientTransform="matrix(18,42,-42,18,33,2)"><stop stop-color="#ff633c"/><stop offset="1" stop-color="#ff4415"/></linearGradient></defs><style>.a{fill:url(#g1)}.b{fill:#fff}</style><path class="a" d="m12 14c0-6.6 5.4-12 12-12h18c6.6 0 12 5.4 12 12v18c0 6.6-5.4 12-12 12h-18c-6.6 0-12-5.4-12-12z"/><path fill-rule="evenodd" class="b" d="m45 23c0 6.6-5.4 12-12 12-6.6 0-12-5.4-12-12 0-6.6 5.4-12 12-12 6.6 0 12 5.4 12 12zm-14.6-3.8c0 0.5 0.4 0.9 0.8 0.9 0.5 0 0.9-0.4 0.9-0.9 0-0.5 0.4-0.9 0.9-0.9 0.5 0 0.9 0.4 0.9 0.9 0 0.5 0.4 0.9 0.9 0.9 0.4 0 0.8-0.4 0.8-0.9 0-1.4-1.2-2.6-2.6-2.6-1.4 0-2.6 1.2-2.6 2.6zm9.4 3.3c0-1-0.8-1.8-1.8-1.8h-9.9c-1 0-1.8 0.8-1.8 1.8q0 0.1 0 0.2l1.4 5c0.1 0.9 0.8 1.7 1.8 1.7h7c1 0 1.7-0.8 1.9-1.7l1.4-5q0-0.1 0-0.2z"/></svg>