<svg width="18" height="18" viewBox="0 0 18 18" fill="none" xmlns="http://www.w3.org/2000/svg">
<g id="ic_share_48px 1">
<path id="Vector" d="M13.5 12.0638C12.93 12.0638 12.4163 12.2851 12.0262 12.6413L6.6825 9.52509C6.72375 9.35634 6.75 9.18009 6.75 9.00009C6.75 8.82009 6.72375 8.64384 6.6825 8.47509L11.97 5.38884C12.3713 5.76384 12.9075 5.99634 13.5 5.99634C14.7413 5.99634 15.75 4.98759 15.75 3.74634C15.75 2.50509 14.7413 1.49634 13.5 1.49634C12.2587 1.49634 11.25 2.50509 11.25 3.74634C11.25 3.92634 11.2762 4.10259 11.3175 4.27134L6.03 7.35759C5.62875 6.98259 5.0925 6.75009 4.5 6.75009C3.25875 6.75009 2.25 7.75884 2.25 9.00009C2.25 10.2413 3.25875 11.2501 4.5 11.2501C5.0925 11.2501 5.62875 11.0176 6.03 10.6426L11.3737 13.7588C11.3363 13.9163 11.3138 14.0813 11.3138 14.2501C11.3138 15.4576 12.2925 16.4363 13.5 16.4363C14.7075 16.4363 15.6863 15.4576 15.6863 14.2501C15.6863 13.0426 14.7075 12.0638 13.5 12.0638Z" fill="white"/>
</g>
</svg>
