<svg width="31" height="29" viewBox="0 0 31 29" fill="none" xmlns="http://www.w3.org/2000/svg">
<g id="Group">
<mask id="mask0_1_846" style="mask-type:alpha" maskUnits="userSpaceOnUse" x="10" y="0" width="16" height="15">
<g id="SVGID 189">
<g id="Group_2">
<path id="Vector" d="M10.7216 9.55438C11.9574 13.509 15.9121 15.7335 19.8667 14.4977C23.8214 13.2619 26.0459 9.30721 24.81 5.35256C23.5742 1.64507 19.6195 -0.579437 15.6649 0.409226C11.9574 1.64506 9.73291 5.59973 10.7216 9.55438Z" fill="url(#paint0_radial_1_846)"/>
</g>
</g>
</mask>
<g mask="url(#mask0_1_846)">
<path id="Vector_2" d="M10.7216 9.55438C11.9574 13.509 15.9121 15.7335 19.8667 14.4977C23.8214 13.2619 26.0459 9.30721 24.81 5.35256C23.5742 1.64507 19.6195 -0.579437 15.6649 0.409226C11.9574 1.64506 9.73291 5.59973 10.7216 9.55438Z" fill="url(#paint1_radial_1_846)"/>
</g>
<mask id="mask1_1_846" style="mask-type:alpha" maskUnits="userSpaceOnUse" x="11" y="7" width="15" height="16">
<g id="SVGID 192">
<g id="Group_3">
<path id="Vector_3" d="M11.4631 16.7222C12.6989 20.6769 16.6536 22.9013 20.6082 21.6655C24.5629 20.4297 26.7874 16.475 25.5515 12.5204C24.3157 8.56573 20.3611 6.34122 16.4064 7.57704C12.6989 8.81287 10.4744 12.7675 11.4631 16.7222Z" fill="url(#paint2_radial_1_846)"/>
</g>
</g>
</mask>
<g mask="url(#mask1_1_846)">
<path id="Vector_4" d="M11.4631 16.7222C12.6989 20.6769 16.6536 22.9013 20.6082 21.6655C24.5629 20.4297 26.7874 16.475 25.5515 12.5204C24.3157 8.56573 20.3611 6.34122 16.4064 7.57704C12.6989 8.81287 10.4744 12.7675 11.4631 16.7222Z" fill="url(#paint3_radial_1_846)"/>
</g>
<mask id="mask2_1_846" style="mask-type:alpha" maskUnits="userSpaceOnUse" x="4" y="9" width="16" height="15">
<g id="SVGID 195">
<g id="Group_4">
<path id="Vector_5" d="M5.03688 18.6995C6.27271 22.6541 10.2274 24.8786 14.182 23.6428C18.1367 22.407 20.3612 18.4523 19.1253 14.4977C17.8895 10.7902 13.9349 8.56567 9.9802 9.8015C6.27271 10.7902 4.04822 14.992 5.03688 18.6995Z" fill="url(#paint4_radial_1_846)"/>
</g>
</g>
</mask>
<g mask="url(#mask2_1_846)">
<path id="Vector_6" d="M5.03688 18.6995C6.27271 22.6541 10.2274 24.8786 14.182 23.6428C18.1367 22.407 20.3612 18.4523 19.1253 14.4977C17.8895 10.7902 13.9349 8.56567 9.9802 9.8015C6.27271 10.7902 4.04822 14.992 5.03688 18.6995Z" fill="url(#paint5_radial_1_846)"/>
</g>
<mask id="mask3_1_846" style="mask-type:alpha" maskUnits="userSpaceOnUse" x="5" y="2" width="26" height="27">
<g id="SVGID 198">
<g id="Group_5">
<path id="Vector_7" d="M5.77853 18.9467C7.75585 25.6202 14.9237 29.5748 21.5971 27.5975C28.2706 25.6202 32.2253 18.4524 30.0008 11.7789C28.0235 5.1054 21.1028 1.15076 14.4293 3.12808C7.50869 5.10541 3.8012 12.2732 5.77853 18.9467Z" fill="url(#paint6_radial_1_846)"/>
</g>
</g>
</mask>
<g mask="url(#mask3_1_846)">
<path id="Vector_8" d="M5.77853 18.9467C7.75585 25.6202 14.9237 29.5748 21.5971 27.5975C28.2706 25.6202 32.2253 18.4524 30.0008 11.7789C28.0235 5.1054 21.1028 1.15076 14.4293 3.12808C7.50869 5.10541 3.8012 12.2732 5.77853 18.9467Z" fill="url(#paint7_radial_1_846)"/>
</g>
<mask id="mask4_1_846" style="mask-type:alpha" maskUnits="userSpaceOnUse" x="0" y="4" width="14" height="15">
<g id="SVGID 201">
<g id="Group_6">
<path id="Vector_9" d="M0.587924 13.509C1.57659 17.2165 5.53125 19.1938 8.99157 18.2052C12.6991 17.2165 14.6764 13.2618 13.6877 9.80152C12.699 6.09403 8.7444 4.11672 5.28408 5.10538C1.57659 6.09404 -0.400739 9.80154 0.587924 13.509Z" fill="url(#paint8_radial_1_846)"/>
</g>
</g>
</mask>
<g mask="url(#mask4_1_846)">
<path id="Vector_10" d="M0.587924 13.509C1.57659 17.2165 5.53125 19.1938 8.99157 18.2052C12.6991 17.2165 14.6764 13.2618 13.6877 9.80152C12.699 6.09403 8.7444 4.11672 5.28408 5.10538C1.57659 6.09404 -0.400739 9.80154 0.587924 13.509Z" fill="url(#paint9_radial_1_846)"/>
<path id="Vector_11" d="M19.8668 18.9466C20.3612 18.6995 20.8555 18.4523 21.1027 18.2051C21.3498 17.7108 21.597 17.4636 21.597 16.9693C22.0913 16.7221 22.5857 16.475 22.8328 15.9807C23.8215 14.4977 23.3272 12.2732 21.1027 10.7902C20.6083 10.2958 19.8668 9.80153 19.1253 9.55436C19.8668 9.30719 20.6083 8.81284 21.1027 8.56567C23.3272 7.08268 24.0687 4.85821 23.08 3.37521C22.8328 2.88088 22.5857 2.63369 22.0913 2.38653C22.0913 1.8922 21.8442 1.39788 21.597 1.15072C21.1027 0.162053 19.6197 -0.332278 18.1367 0.162054C17.3952 0.40922 16.9009 0.656385 16.1594 1.15072C15.665 1.64505 15.1707 2.13937 14.4292 2.6337C14.4292 1.8922 14.182 1.15071 13.9349 0.656374C13.4405 -2.06245 11.7104 -3.54544 9.98021 -3.0511C9.48588 -2.80394 8.99155 -2.55678 8.74438 -2.30961C8.25005 -2.55678 7.75571 -2.55678 7.26138 -2.30961C5.53122 -1.81528 4.78973 0.409211 5.53122 2.88087C5.77839 3.3752 6.02555 4.1167 6.27272 4.85819C5.77839 4.85819 5.03689 4.61102 4.2954 4.61102C3.5539 4.61102 2.8124 4.61103 2.0709 4.85819C0.58791 5.35253 -0.400757 6.34118 -0.400757 7.57701C-0.400757 8.07134 -0.400757 8.56568 -0.153591 8.81284C-0.153591 9.30718 -0.400757 9.80152 -0.400757 10.2958C-0.400757 11.2845 0.0935737 12.026 0.835071 12.5203C1.57657 13.0147 2.8124 13.509 4.04823 13.509C4.78973 13.509 5.28406 13.509 6.27272 13.2618C5.77839 14.0033 5.53122 14.7448 5.28406 15.2392C4.29539 17.958 5.03689 20.1825 6.76705 20.6768C7.26138 20.924 7.75572 20.924 8.25005 20.6768C8.25005 21.1712 8.74438 21.4183 9.23871 21.6655C9.73304 21.9126 10.2274 21.9126 10.7217 21.6655C11.9575 21.4183 12.9462 20.1825 13.6877 18.2051C13.9349 17.7108 14.182 16.9693 14.182 16.2278C14.6764 16.7222 15.1707 17.2165 15.665 17.7108C17.148 18.9467 18.631 19.441 19.8668 18.9466Z" fill="url(#paint10_linear_1_846)"/>
<path id="Vector_12" d="M23.08 3.37524C22.8328 3.12807 22.5857 2.63372 22.0913 2.63372C22.0913 2.13939 22.0913 1.64505 21.597 1.39789C20.6083 0.162058 18.3838 -0.085108 16.1594 1.39789C15.665 1.64505 14.9235 2.38656 14.4292 2.88089C14.4292 2.88089 14.4292 2.88089 14.6764 2.63372C14.6764 1.89222 14.4292 1.15072 14.182 0.409225C13.1934 -2.06243 11.4632 -3.29825 9.98021 -3.05108C9.48588 -2.80392 8.99155 -2.55675 8.74438 -2.06242C8.25005 -2.30959 7.75571 -2.30959 7.26138 -2.06242C5.77839 -1.56809 4.78973 0.40924 5.77839 3.12806C6.02555 3.86956 6.27272 4.61106 6.76705 5.35256C5.77839 4.85823 5.03689 4.85822 4.2954 4.85822C1.57657 4.85822 -0.153591 6.09404 -0.400757 7.82421C-0.400757 8.31854 -0.400757 8.81287 0.0935743 9.06004C-0.153591 9.30721 -0.400757 9.80154 -0.400757 10.2959C-0.400757 12.026 1.32941 13.2619 4.04823 13.509C4.78973 13.509 5.53122 13.509 6.27272 13.2619C6.02555 14.0034 5.53122 14.7449 5.28406 15.4864C4.54256 17.958 5.03689 20.1825 6.76705 20.6768C7.26138 20.924 7.75572 20.924 8.25005 20.6768C8.25005 21.1712 8.74438 21.4183 9.23871 21.6655C10.7217 22.1598 12.699 20.924 13.4405 18.4523C13.6877 17.7108 13.9349 16.9693 13.9349 16.2278C14.4292 16.9693 15.1707 17.4637 15.665 17.958C17.8895 19.6882 20.114 19.6882 21.1027 18.4523C21.3498 18.2052 21.597 17.7108 21.597 17.2165C22.0913 16.475 22.5857 16.2278 22.8328 15.9807C23.8215 14.7448 23.3272 12.5204 21.1027 10.7902C20.3612 10.2959 19.6197 10.0487 18.8782 9.55438C19.6197 9.30722 20.3612 8.81288 21.1027 8.31855C23.3272 6.83555 24.0687 4.85823 23.08 3.37524Z" fill="url(#paint11_linear_1_846)"/>
<path id="Vector_13" d="M4.54268 10.0487C4.78984 10.0487 5.03701 10.0487 5.03701 9.80155C5.77851 10.2959 6.52 10.5431 7.50867 10.5431C8.74449 10.5431 10.2275 10.2959 11.2162 9.80155C10.4747 10.5431 9.486 12.026 9.23883 13.0147C8.99166 14.0034 8.7445 14.7449 8.99167 15.4864C8.7445 15.4864 8.7445 15.7335 8.7445 15.9807C8.49733 16.475 8.7445 16.9694 9.486 17.2165C9.98033 17.4637 10.4747 17.2165 10.7218 16.475C10.7218 16.2279 10.7218 15.9807 10.7218 15.9807C11.2162 15.7335 11.7105 14.992 11.9577 14.0034C12.452 13.0147 12.6991 11.5317 12.452 10.2959C12.9463 11.2846 13.935 12.5204 14.9236 13.0147C15.6651 13.7562 16.4066 14.0034 17.1481 14.0034C17.1481 14.2505 17.3953 14.2506 17.3953 14.4977C17.8896 14.7449 18.384 14.7449 18.8783 14.2505C19.1255 13.7562 19.1255 13.2619 18.6311 12.7675C18.384 12.7675 18.384 12.5204 18.1368 12.5204C17.8896 12.0261 17.3953 11.2845 16.6538 10.7902C15.9123 10.0487 14.4293 9.30723 13.4406 9.30723C14.4293 9.06007 15.9123 8.56573 16.6538 7.82423C17.3953 7.3299 18.1368 6.5884 18.384 5.8469C18.6311 5.8469 18.8783 5.8469 18.8783 5.59973C19.3726 5.35257 19.3726 4.61108 19.1255 4.11675C18.6311 3.86958 18.1368 3.86958 17.6425 4.11675C17.3953 4.11675 17.3953 4.3639 17.3953 4.61107C16.6538 4.61107 15.9123 4.85825 15.1708 5.35258C14.4293 5.84692 13.1935 7.08273 12.6991 7.82423C12.9463 6.83557 12.6991 5.35259 12.452 4.36392C11.9577 3.37526 11.4633 2.63374 10.969 2.38657C10.969 2.13941 10.969 1.89225 10.969 1.89225C10.7218 1.15076 10.2275 0.903597 9.73316 1.15076C9.23883 1.15076 8.7445 1.89224 8.99167 2.38657C8.99167 2.63374 9.23883 2.63375 9.23883 2.88092C8.99166 3.37525 8.99166 4.36392 9.23883 5.35258C9.23883 5.84692 9.486 6.34123 9.73316 6.83557C10.4747 7.3299 11.2162 7.82424 11.2162 8.31857C11.2162 8.56574 11.2162 8.81289 11.4633 8.81289C10.7218 8.07139 8.74449 7.57706 7.50867 7.57706C6.52 7.57706 5.77851 7.82423 5.03701 8.0714C4.78984 8.0714 4.78984 7.82423 4.54268 7.82423C4.04835 7.82423 3.55402 8.31856 3.55402 8.81289C3.55402 9.55439 4.04835 10.0487 4.54268 10.0487ZM11.7105 9.55441C11.7105 9.30724 11.7105 9.30724 11.7105 9.55441C11.9577 9.06007 11.9577 9.06006 11.7105 9.06006H11.9577C11.9577 9.06006 12.2048 9.06006 12.2048 8.81289V9.06006L12.452 9.30723C12.452 9.30723 12.2048 9.30724 12.2048 9.55441V9.80155C12.2048 9.80155 12.2048 9.80157 11.9577 9.55441C11.9577 9.30724 11.7105 9.30724 11.7105 9.55441Z" fill="url(#paint12_linear_1_846)"/>
</g>
<mask id="mask5_1_846" style="mask-type:alpha" maskUnits="userSpaceOnUse" x="10" y="7" width="13" height="12">
<g id="SVGID 207">
<g id="Group_7">
<path id="Vector_14" d="M10.9689 14.7448C11.9576 17.958 15.1707 19.6882 18.1367 18.6995C21.1027 17.7109 23.3272 14.4977 22.3385 11.5317C21.3499 8.31855 18.1367 6.58837 15.1707 7.57703C11.9576 8.31853 10.2274 11.7789 10.9689 14.7448Z" fill="url(#paint13_radial_1_846)"/>
</g>
</g>
</mask>
<g mask="url(#mask5_1_846)">
<path id="Vector_15" d="M10.9689 14.7448C11.9576 17.958 15.1707 19.6882 18.1367 18.6995C21.1027 17.7109 23.3272 14.4977 22.3385 11.5317C21.3499 8.31855 18.1367 6.58837 15.1707 7.57703C11.9576 8.31853 10.2274 11.7789 10.9689 14.7448Z" fill="url(#paint14_radial_1_846)"/>
</g>
<mask id="mask6_1_846" style="mask-type:alpha" maskUnits="userSpaceOnUse" x="5" y="9" width="12" height="11">
<g id="SVGID 210">
<g id="Group_8">
<path id="Vector_16" d="M5.77844 15.9807C6.7671 18.6995 9.73309 20.4297 12.4519 19.441C15.1707 18.6995 16.9009 15.7335 16.1594 12.7675C15.1707 10.0487 12.2048 8.56573 9.48593 9.30723C6.51994 10.0487 5.03694 13.0147 5.77844 15.9807Z" fill="url(#paint15_radial_1_846)"/>
</g>
</g>
</mask>
<g mask="url(#mask6_1_846)">
<path id="Vector_17" d="M5.77844 15.9807C6.7671 18.6995 9.73309 20.4297 12.4519 19.441C15.1707 18.6995 16.9009 15.7335 16.1594 12.7675C15.1707 10.0487 12.2048 8.56573 9.48593 9.30723C6.51994 10.0487 5.03694 13.0147 5.77844 15.9807Z" fill="url(#paint16_radial_1_846)"/>
</g>
<mask id="mask7_1_846" style="mask-type:alpha" maskUnits="userSpaceOnUse" x="10" y="2" width="11" height="11">
<g id="SVGID 213">
<g id="Group_9">
<path id="Vector_18" d="M10.7216 8.81284C11.4631 11.2845 14.1819 12.7675 16.6536 12.026C19.1253 11.2845 20.6083 8.81285 19.8668 6.09402C19.1253 3.62237 16.6536 2.13937 13.9348 2.88087C11.4631 3.62236 9.98013 6.34118 10.7216 8.81284Z" fill="url(#paint17_radial_1_846)"/>
</g>
</g>
</mask>
<g mask="url(#mask7_1_846)">
<path id="Vector_19" d="M10.7216 8.81284C11.4631 11.2845 14.1819 12.7675 16.6536 12.026C19.1253 11.2845 20.6083 8.81285 19.8668 6.09402C19.1253 3.62237 16.6536 2.13937 13.9348 2.88087C11.4631 3.62236 9.98013 6.34118 10.7216 8.81284Z" fill="url(#paint18_radial_1_846)"/>
<path id="Vector_20" d="M13.4405 16.9694C13.6877 16.9694 13.9349 16.7222 14.182 16.4751C14.4292 16.4751 14.6764 16.4751 15.1707 16.4751C16.4065 16.2279 16.6537 14.7449 16.1594 13.0147C16.1594 12.7676 15.9122 12.2732 15.665 11.7789C16.1594 11.7789 16.6537 12.0261 16.9009 12.0261C17.3952 12.0261 17.8895 12.0261 18.3839 11.7789C19.3725 11.5317 20.114 11.0374 20.114 10.0487C20.114 9.80158 20.114 9.55442 19.8668 9.06009C20.114 9.06009 20.114 8.81293 20.114 8.3186C20.114 7.08277 18.8782 6.34127 17.148 6.0941C16.6537 6.0941 16.4065 6.0941 15.9122 6.0941C16.1594 5.59977 16.4065 5.3526 16.4065 4.85827C17.148 3.62244 16.6537 2.13944 15.665 1.64511C15.4179 1.64511 15.1707 1.64511 14.6764 1.64511C14.4292 1.39794 14.182 1.15079 13.9349 1.15079C13.6877 1.15079 13.1934 1.15079 12.9462 1.15079C12.2047 1.39795 11.4632 2.13945 10.9689 3.37528C10.9689 3.62245 10.7217 4.11676 10.7217 4.61109C10.4745 4.11676 10.2274 3.8696 9.73305 3.62243C8.74439 2.88093 7.75572 2.63377 7.01422 2.88094C6.76706 2.88094 6.27273 3.12812 6.27273 3.37528C6.02556 3.62245 6.02556 3.86961 5.77839 4.11677C5.53123 4.11677 5.28406 4.36393 5.0369 4.61109C4.78973 5.10543 4.78973 5.84694 5.0369 6.34127C5.0369 7.08277 5.53123 7.5771 6.27273 8.3186C6.51989 8.56576 7.01422 8.81292 7.50855 8.81292C7.01422 9.06008 6.51989 9.30726 6.27273 9.55443C5.53123 10.0488 5.0369 10.5431 4.78973 11.2846C4.54257 11.7789 4.54257 12.5204 5.0369 13.0147C5.0369 13.2619 5.28406 13.2619 5.53123 13.5091C5.53123 13.7562 5.53123 14.0034 5.77839 14.4977C6.27273 15.2392 7.01422 15.4864 8.00289 14.9921C8.49722 14.9921 8.74439 14.7449 9.23872 14.2506C9.73305 14.0034 10.2274 13.7562 10.4745 13.5091C10.4745 14.0034 10.7217 14.4977 10.7217 14.7449C11.216 16.4751 12.4519 17.4637 13.4405 16.9694Z" fill="url(#paint19_linear_1_846)"/>
<path id="Vector_21" d="M5.03702 12.7675C5.28418 13.0147 5.53135 13.2618 5.77851 13.2618C5.77851 13.509 5.77851 13.7562 6.02568 14.0033C6.52001 14.992 8.00301 14.992 9.486 14.0033C9.98034 14.0033 10.2275 13.509 10.7218 13.2618C10.7218 13.7562 10.7218 14.2505 10.969 14.7448C11.2162 16.475 12.452 17.2165 13.4407 16.9693C13.6878 16.9693 13.935 16.7222 14.1822 16.475C14.4293 16.475 14.6765 16.475 15.1708 16.475C16.1595 16.2278 16.6538 14.7448 16.1595 13.2618C15.9123 12.7675 15.9123 12.2732 15.6652 11.7788C16.1595 11.7788 16.6538 12.026 17.1481 12.026C18.8783 12.026 20.1141 11.2845 20.1141 10.2958C20.1141 10.0487 20.1141 9.80152 19.867 9.55436C19.867 9.06002 20.1141 8.81285 20.1141 8.31852C20.1141 7.32986 19.1255 6.3412 17.1481 6.3412C16.6538 6.3412 16.1595 6.3412 15.6652 6.3412C15.9123 5.84687 16.1595 5.35252 16.4066 4.85819C16.901 3.12803 16.6538 1.89219 15.6652 1.39786C15.418 1.39786 15.1708 1.39786 14.6765 1.39786C14.4293 1.64503 14.1822 1.39788 13.935 1.15071C12.9463 0.903548 11.7105 1.64505 11.2162 3.37521C10.969 3.86954 10.969 4.36386 10.7218 4.85819C10.4747 4.36386 10.2275 4.11669 9.73317 3.62236C8.25017 2.63369 7.01434 2.63371 6.27285 3.37521C6.02568 3.62238 6.02568 4.11671 6.02568 4.36387C5.77851 4.36387 5.53135 4.61103 5.28418 4.85819C4.54269 5.59969 5.03702 7.08269 6.27285 8.07135C6.76718 8.31852 7.01434 8.56568 7.50867 8.81284C7.26151 9.06001 6.76718 9.30719 6.27285 9.55436C4.78985 10.543 4.29552 12.026 5.03702 12.7675Z" fill="url(#paint20_linear_1_846)"/>
<path id="Vector_22" d="M7.75556 12.2733C8.00273 12.5204 8.2499 12.7676 8.74423 12.5204L8.9914 12.2733C9.48573 12.2733 9.98006 12.0261 10.4744 11.7789C11.2159 11.2846 11.9574 10.2959 12.2046 9.80158C12.2046 9.80158 12.2046 10.0488 12.2046 10.2959C12.4517 10.5431 12.2046 11.0374 11.9574 11.5318C11.9574 11.7789 11.9574 12.2733 12.2046 12.5204C12.2046 12.7676 12.4517 13.2619 12.6989 13.5091V13.7562C12.6989 14.0034 13.1932 14.2506 13.4404 14.2506C13.6875 14.2506 13.9347 13.7563 13.9347 13.5091C13.9347 13.5091 13.9347 13.2619 13.6875 13.2619C13.9347 12.7676 13.9347 12.2732 13.6875 11.7789C13.6875 11.0374 13.1932 10.2959 12.6989 9.80158C13.4404 10.0487 14.429 10.2959 14.9234 10.2959C15.4177 10.2959 16.1592 10.2959 16.4064 10.0488H16.6535C17.1479 10.0488 17.395 9.8016 17.395 9.30726C17.395 9.0601 17.1479 8.56575 16.6535 8.56575H16.4064C16.1592 8.56575 15.6649 8.3186 15.1705 8.3186C14.429 8.3186 13.4404 8.56576 12.946 8.81292C13.4404 8.31859 13.9347 7.57709 14.1819 6.8356C14.429 6.34126 14.429 5.59978 14.1819 5.35261L14.429 5.10544C14.429 4.85828 14.429 4.36395 13.9347 4.36395C13.6875 4.36395 13.1932 4.36394 13.1932 4.85827V5.10544C12.6989 5.10544 12.4517 5.59977 12.2046 6.09411C11.9574 6.8356 11.7102 7.82427 11.9574 8.3186C11.4631 7.82427 10.9687 7.08276 10.4744 6.58843C9.98006 6.34126 9.23856 6.09411 8.9914 6.09411C8.9914 6.09411 8.9914 5.84693 8.74423 5.84693C8.49707 5.59977 8.00273 5.59977 7.75556 5.84693C7.5084 6.0941 7.5084 6.58843 7.75556 6.8356C7.75556 6.8356 8.00273 6.8356 8.00273 7.08277C8.00273 7.5771 8.49707 7.82427 8.9914 8.3186C9.7329 8.56577 10.7216 9.06009 11.4631 9.06009C10.7216 9.06009 9.7329 9.55442 9.23856 10.0488C8.74423 10.2959 8.2499 10.7903 8.2499 11.2846H8.00273C7.5084 11.5318 7.5084 12.0261 7.75556 12.2733ZM11.9574 9.06009C11.9574 9.06009 12.2046 9.06009 11.9574 9.06009C12.2046 9.06009 12.2046 9.06009 12.2046 9.06009C12.2046 9.06009 12.2046 9.0601 12.2046 9.30726C12.2046 9.30726 12.2046 9.30727 12.2046 9.55444C12.2046 9.55444 12.2046 9.55444 11.9574 9.55444C11.9574 9.55444 11.9574 9.55444 11.7102 9.55444C11.9574 9.30727 11.9574 9.30726 11.9574 9.06009C11.9574 9.30726 11.9574 9.30726 11.9574 9.06009Z" fill="url(#paint21_linear_1_846)"/>
</g>
<mask id="mask8_1_846" style="mask-type:alpha" maskUnits="userSpaceOnUse" x="10" y="8" width="9" height="8">
<g id="SVGID 219">
<g id="Group_10">
<path id="Vector_23" d="M10.9687 13.2619C11.463 15.2392 13.4403 16.2279 15.4177 15.7335C17.395 14.992 18.3837 13.0147 17.8893 11.2845C17.395 9.3072 15.4177 8.31853 13.4403 8.81286C11.463 9.30719 10.4744 11.2845 10.9687 13.2619Z" fill="url(#paint22_radial_1_846)"/>
</g>
</g>
</mask>
<g mask="url(#mask8_1_846)">
<path id="Vector_24" d="M10.9687 13.2619C11.463 15.2392 13.4403 16.2279 15.4177 15.7335C17.395 14.992 18.3837 13.0147 17.8893 11.2845C17.395 9.3072 15.4177 8.31853 13.4403 8.81286C11.463 9.30719 10.4744 11.2845 10.9687 13.2619Z" fill="url(#paint23_radial_1_846)"/>
</g>
<mask id="mask9_1_846" style="mask-type:alpha" maskUnits="userSpaceOnUse" x="12" y="6" width="7" height="7">
<g id="SVGID 222">
<g id="Group_11">
<path id="Vector_25" d="M12.9462 10.2959C13.4405 11.7789 14.9235 12.5204 16.4065 12.0261C17.8895 11.5317 18.631 10.0487 18.1367 8.56572C17.6424 7.32989 16.1594 6.34123 14.6764 6.83557C13.1934 7.3299 12.4519 8.8129 12.9462 10.2959Z" fill="url(#paint24_radial_1_846)"/>
</g>
</g>
</mask>
<g mask="url(#mask9_1_846)">
<path id="Vector_26" d="M12.9462 10.2959C13.4405 11.7789 14.9235 12.5204 16.4065 12.0261C17.8895 11.5317 18.631 10.0487 18.1367 8.56572C17.6424 7.32989 16.1594 6.34123 14.6764 6.83557C13.1934 7.3299 12.4519 8.8129 12.9462 10.2959Z" fill="url(#paint25_radial_1_846)"/>
</g>
<mask id="mask10_1_846" style="mask-type:alpha" maskUnits="userSpaceOnUse" x="6" y="6" width="8" height="8">
<g id="SVGID 225">
<g id="Group_12">
<path id="Vector_27" d="M6.76696 11.2846C7.2613 13.2619 9.23862 14.2505 11.216 13.7562C13.1933 13.2619 14.1819 11.2846 13.6876 9.30723C13.1933 7.32991 11.216 6.34123 9.23863 6.83557C7.2613 7.57706 6.27263 9.5544 6.76696 11.2846Z" fill="url(#paint26_radial_1_846)"/>
</g>
</g>
</mask>
<g mask="url(#mask10_1_846)">
<path id="Vector_28" d="M6.76696 11.2846C7.2613 13.2619 9.23862 14.2505 11.216 13.7562C13.1933 13.2619 14.1819 11.2846 13.6876 9.30723C13.1933 7.32991 11.216 6.34123 9.23863 6.83557C7.2613 7.57706 6.27263 9.5544 6.76696 11.2846Z" fill="url(#paint27_radial_1_846)"/>
<path id="Vector_29" d="M15.4177 13.0147C15.6649 13.0147 15.912 12.7675 15.912 12.5204C15.912 12.2732 16.1592 12.2732 16.1592 12.026C16.4064 12.026 16.4064 11.7789 16.6535 11.7789C17.1479 11.0374 16.9007 10.2959 15.912 9.55439C15.6649 9.30722 15.4177 9.30721 15.1706 9.06004C15.4177 9.06004 15.6649 8.81287 15.912 8.5657C16.9007 8.07137 17.1479 7.08271 16.6535 6.58838C16.6535 6.34121 16.4064 6.34123 16.1592 6.34123C16.1592 6.09406 16.1592 5.84689 15.912 5.84689C15.912 5.10539 15.1706 5.10539 14.4291 5.10539C14.1819 5.10539 13.9347 5.35255 13.6876 5.59971C13.4404 5.84688 13.1932 5.84689 13.1932 6.09406C13.1932 5.84689 13.1932 5.59973 12.9461 5.35257C12.6989 4.11674 11.9574 3.62239 11.2159 3.86956C10.9687 3.86956 10.9687 4.11673 10.7216 4.11673C10.4744 4.11673 10.2272 4.11673 10.2272 4.11673C9.23857 4.3639 8.9914 5.35256 9.23857 6.34123C9.23857 6.58839 9.48573 6.83555 9.48573 7.08272C9.23857 7.08272 8.9914 7.08272 8.74424 7.08272C8.49707 7.08272 8.00274 7.08272 7.75557 7.08272C7.26124 7.32989 6.76691 7.82422 6.76691 8.31855C6.76691 8.31855 6.76691 8.81287 7.01407 8.81287C7.01407 9.06004 6.76691 9.06005 6.76691 9.30722C6.76691 9.80155 7.01407 10.0487 7.26124 10.2959C7.5084 10.543 8.00274 10.7902 8.74424 10.7902C8.9914 10.7902 9.23857 10.7902 9.48573 10.7902C9.23857 11.0374 9.23857 11.2845 9.23857 11.5317C8.9914 12.026 8.9914 12.5204 9.23857 13.0147C9.23857 13.509 9.48573 13.7562 9.98007 13.7562C10.2272 13.7562 10.4744 13.7562 10.4744 13.7562C10.4744 14.0034 10.7216 14.0034 10.9687 14.0034C11.2159 14.0034 11.4631 14.0034 11.7102 14.0034C11.9574 14.0034 12.4517 13.509 12.6989 12.7675C12.6989 12.5204 12.9461 12.2732 12.9461 12.026C13.1932 12.2732 13.4404 12.5204 13.4404 12.5204C14.1819 13.0147 14.9234 13.2619 15.4177 13.0147Z" fill="url(#paint28_linear_1_846)"/>
<path id="Vector_30" d="M16.6538 6.58834C16.6538 6.34118 16.4066 6.3412 16.1595 6.3412C16.1595 6.09403 16.1595 5.84685 15.9123 5.84685C15.418 5.35252 14.6765 5.35252 13.6878 5.84685C13.4407 5.84685 13.1935 6.09403 12.9463 6.3412C12.9463 6.09403 12.9463 5.5997 12.6992 5.35253C12.452 4.36387 11.7105 3.62236 11.2162 3.86953C10.969 3.86953 10.969 4.1167 10.7218 4.1167C10.4747 4.1167 10.2275 4.1167 10.2275 4.1167C9.486 4.36387 8.99167 5.35253 9.48601 6.3412C9.48601 6.58836 9.73317 6.83553 9.98034 7.32986C9.73317 7.32986 9.23884 7.32986 8.99167 7.32986C7.75584 7.32986 7.01434 7.82417 7.01434 8.56567C7.01434 8.81284 7.01434 9.06001 7.26151 9.06001C7.26151 9.30718 7.01434 9.30719 7.01434 9.55436C7.01434 10.2959 7.75584 10.7902 8.99167 10.7902C9.23884 10.7902 9.73317 10.7902 9.98034 10.7902C9.486 11.0373 9.23884 11.2845 9.23884 11.5317C8.74451 12.5203 9.23884 13.509 9.73317 13.7562C9.98034 13.7562 10.2275 13.7562 10.2275 13.7562C10.2275 14.0033 10.4747 14.0033 10.7218 14.0033C11.4633 14.2505 12.2048 13.7562 12.452 12.7675C12.452 12.5203 12.6992 12.2732 12.6992 11.7788C12.9463 12.026 13.1935 12.2732 13.4407 12.5203C14.4293 13.2618 15.1708 13.2618 15.6652 12.7675C15.6652 12.5203 15.9123 12.5203 15.9123 12.2732C16.1595 12.2732 16.1595 12.026 16.4066 12.026C16.901 11.5317 16.6538 10.543 15.6652 9.8015C15.418 9.55434 15.1708 9.30718 14.9237 9.06001C15.1708 9.06001 15.418 8.81284 15.9123 8.56567C16.6538 8.07134 17.1481 7.08268 16.6538 6.58834Z" fill="url(#paint29_linear_1_846)"/>
<path id="Vector_31" d="M8.99158 9.30719C9.48592 9.30719 9.73308 9.55436 10.2274 9.55436C10.7217 9.55436 11.4632 9.55435 11.7104 9.30719C11.4632 9.55435 10.9689 10.0487 10.7217 10.543C10.4746 11.0374 10.4746 11.2845 10.7217 11.5317C10.7217 11.5317 10.7217 11.5317 10.4746 11.7788C10.4746 12.026 10.4746 12.2732 10.7217 12.2732C10.9689 12.2732 11.2161 12.2732 11.2161 12.026V11.7788C11.4632 11.5317 11.7104 11.2845 11.7104 11.0373C11.9576 10.543 11.9576 10.0487 11.9576 9.55436C12.4519 9.80153 12.9462 10.2959 13.1934 10.543C13.4406 10.7902 13.9349 10.7902 14.1821 11.0373C14.1821 11.0373 14.1821 11.0373 14.4292 11.2845C14.6764 11.2845 14.9236 11.2845 14.9236 11.2845C15.1707 11.0373 14.9236 10.7902 14.9236 10.7902C14.9236 10.7902 14.9236 10.7902 14.6764 10.7902C14.6764 10.543 14.4292 10.2958 14.1821 10.0487C13.6877 9.30718 12.9462 9.06002 12.4519 9.06002C12.9462 9.06002 13.4406 8.81284 13.9349 8.56567C14.1821 8.31851 14.4292 8.07135 14.6764 7.82418H14.9236C15.1707 7.57702 15.1707 7.32986 14.9236 7.32986C14.6764 7.0827 14.4292 7.0827 14.4292 7.32986C14.4292 7.32986 14.4292 7.32985 14.1821 7.57701C13.9349 7.57701 13.4406 7.57702 13.1934 7.82418C12.9462 7.57702 12.4519 8.07136 12.2047 8.31853C12.2047 7.82419 12.2047 7.32985 11.9576 6.83552C11.9576 6.34119 11.7104 6.09402 11.4632 5.84686V5.59969C11.4632 5.35252 11.2161 5.35254 10.9689 5.35254C10.7217 5.35254 10.7217 5.59969 10.7217 5.84686V6.09403C10.7217 6.3412 10.7217 6.83553 10.7217 7.08269C10.7217 7.32986 10.7217 7.32985 10.9689 7.57701C11.2161 7.82418 11.4632 8.07135 11.4632 8.07135V8.31853C11.4632 8.56569 10.7217 8.31853 10.2274 8.31853C9.73308 8.31853 9.48592 8.31851 9.23875 8.56567H8.99158C8.74442 8.56567 8.49725 8.81285 8.49725 9.06002C8.49725 9.06002 8.74442 9.30719 8.99158 9.30719ZM11.9576 9.06002C11.9576 8.81285 11.9576 8.81285 11.9576 9.06002C11.9576 8.81285 11.9576 8.81285 11.9576 9.06002C12.2047 8.81285 12.2047 8.81285 12.2047 8.81285C12.2047 9.06001 11.9576 9.06002 11.9576 9.06002Z" fill="url(#paint30_linear_1_846)"/>
</g>
</g>
<defs>
<radialGradient id="paint0_radial_1_846" cx="0" cy="0" r="1" gradientUnits="userSpaceOnUse" gradientTransform="translate(17.7584 7.48554) rotate(163.567) scale(7.3041 7.30411)">
<stop stop-color="white"/>
<stop offset="0.1506" stop-color="#FAFAFA"/>
<stop offset="0.3375" stop-color="#EAEAEA"/>
<stop offset="0.5435" stop-color="#D1D1D1"/>
<stop offset="0.7632" stop-color="#AEAEAE"/>
<stop offset="0.9917" stop-color="#818181"/>
<stop offset="1" stop-color="#808080"/>
</radialGradient>
<radialGradient id="paint1_radial_1_846" cx="0" cy="0" r="1" gradientUnits="userSpaceOnUse" gradientTransform="translate(17.7584 7.48554) rotate(163.567) scale(7.3041 7.30411)">
<stop stop-color="#FFC3C3"/>
<stop offset="0.2359" stop-color="#FFC8C8"/>
<stop offset="0.5284" stop-color="#FFD8D8"/>
<stop offset="0.8496" stop-color="#FFF1F1"/>
<stop offset="1" stop-color="white"/>
</radialGradient>
<radialGradient id="paint2_radial_1_846" cx="0" cy="0" r="1" gradientUnits="userSpaceOnUse" gradientTransform="translate(18.5579 14.6175) rotate(163.567) scale(7.29669 7.2967)">
<stop stop-color="white"/>
<stop offset="0.1506" stop-color="#FAFAFA"/>
<stop offset="0.3375" stop-color="#EAEAEA"/>
<stop offset="0.5435" stop-color="#D1D1D1"/>
<stop offset="0.7632" stop-color="#AEAEAE"/>
<stop offset="0.9917" stop-color="#818181"/>
<stop offset="1" stop-color="#808080"/>
</radialGradient>
<radialGradient id="paint3_radial_1_846" cx="0" cy="0" r="1" gradientUnits="userSpaceOnUse" gradientTransform="translate(18.5579 14.6175) rotate(163.567) scale(7.29669 7.2967)">
<stop stop-color="#FFC3C3"/>
<stop offset="0.2359" stop-color="#FFC8C8"/>
<stop offset="0.5284" stop-color="#FFD8D8"/>
<stop offset="0.8496" stop-color="#FFF1F1"/>
<stop offset="1" stop-color="white"/>
</radialGradient>
<radialGradient id="paint4_radial_1_846" cx="0" cy="0" r="1" gradientUnits="userSpaceOnUse" gradientTransform="translate(12.0844 16.7406) rotate(163.567) scale(7.29916 7.29917)">
<stop stop-color="white"/>
<stop offset="0.1506" stop-color="#FAFAFA"/>
<stop offset="0.3375" stop-color="#EAEAEA"/>
<stop offset="0.5435" stop-color="#D1D1D1"/>
<stop offset="0.7632" stop-color="#AEAEAE"/>
<stop offset="0.9917" stop-color="#818181"/>
<stop offset="1" stop-color="#808080"/>
</radialGradient>
<radialGradient id="paint5_radial_1_846" cx="0" cy="0" r="1" gradientUnits="userSpaceOnUse" gradientTransform="translate(12.0844 16.7406) rotate(163.567) scale(7.29916 7.29917)">
<stop stop-color="#FFC3C3"/>
<stop offset="0.2359" stop-color="#FFC8C8"/>
<stop offset="0.5284" stop-color="#FFD8D8"/>
<stop offset="0.8496" stop-color="#FFF1F1"/>
<stop offset="1" stop-color="white"/>
</radialGradient>
<radialGradient id="paint6_radial_1_846" cx="0" cy="0" r="1" gradientUnits="userSpaceOnUse" gradientTransform="translate(17.8918 15.399) rotate(163.567) scale(12.7445 12.7445)">
<stop stop-color="white"/>
<stop offset="0.1506" stop-color="#FAFAFA"/>
<stop offset="0.3375" stop-color="#EAEAEA"/>
<stop offset="0.5435" stop-color="#D1D1D1"/>
<stop offset="0.7632" stop-color="#AEAEAE"/>
<stop offset="0.9917" stop-color="#818181"/>
<stop offset="1" stop-color="#808080"/>
</radialGradient>
<radialGradient id="paint7_radial_1_846" cx="0" cy="0" r="1" gradientUnits="userSpaceOnUse" gradientTransform="translate(17.8918 15.399) rotate(163.567) scale(12.7445 12.7445)">
<stop stop-color="#FFC3C3"/>
<stop offset="0.2359" stop-color="#FFC8C8"/>
<stop offset="0.5284" stop-color="#FFD8D8"/>
<stop offset="0.8496" stop-color="#FFF1F1"/>
<stop offset="1" stop-color="white"/>
</radialGradient>
<radialGradient id="paint8_radial_1_846" cx="0" cy="0" r="1" gradientUnits="userSpaceOnUse" gradientTransform="translate(7.23534 11.5272) rotate(163.567) scale(6.84435 6.84435)">
<stop stop-color="white"/>
<stop offset="0.1506" stop-color="#FAFAFA"/>
<stop offset="0.3375" stop-color="#EAEAEA"/>
<stop offset="0.5435" stop-color="#D1D1D1"/>
<stop offset="0.7632" stop-color="#AEAEAE"/>
<stop offset="0.9917" stop-color="#818181"/>
<stop offset="1" stop-color="#808080"/>
</radialGradient>
<radialGradient id="paint9_radial_1_846" cx="0" cy="0" r="1" gradientUnits="userSpaceOnUse" gradientTransform="translate(7.23534 11.5272) rotate(163.567) scale(6.84435 6.84435)">
<stop stop-color="#FFC3C3"/>
<stop offset="0.2359" stop-color="#FFC8C8"/>
<stop offset="0.5284" stop-color="#FFD8D8"/>
<stop offset="0.8496" stop-color="#FFF1F1"/>
<stop offset="1" stop-color="white"/>
</radialGradient>
<linearGradient id="paint10_linear_1_846" x1="18.5406" y1="17.0919" x2="4.47694" y2="-1.64442" gradientUnits="userSpaceOnUse">
<stop stop-color="#FA667E"/>
<stop offset="1" stop-color="white"/>
</linearGradient>
<linearGradient id="paint11_linear_1_846" x1="8.80534" y1="18.8334" x2="16.2224" y2="-2.23763" gradientUnits="userSpaceOnUse">
<stop stop-color="#FA667E"/>
<stop offset="1" stop-color="#FFC3C3"/>
</linearGradient>
<linearGradient id="paint12_linear_1_846" x1="10.9659" y1="13.644" x2="12.6452" y2="3.32425" gradientUnits="userSpaceOnUse">
<stop stop-color="#FA667E"/>
<stop offset="1" stop-color="#FFC3C3"/>
</linearGradient>
<radialGradient id="paint13_radial_1_846" cx="0" cy="0" r="1" gradientUnits="userSpaceOnUse" gradientTransform="translate(16.694 13.1469) rotate(163.567) scale(5.86059 5.86059)">
<stop stop-color="white"/>
<stop offset="0.2028" stop-color="#E3E3E3"/>
<stop offset="0.7468" stop-color="#9C9C9C"/>
<stop offset="1" stop-color="#808080"/>
</radialGradient>
<radialGradient id="paint14_radial_1_846" cx="0" cy="0" r="1" gradientUnits="userSpaceOnUse" gradientTransform="translate(16.694 13.1469) rotate(163.567) scale(5.86059 5.86059)">
<stop stop-color="#FA667E"/>
<stop offset="0.3243" stop-color="#FC9CAB"/>
<stop offset="0.7852" stop-color="#FEE3E7"/>
<stop offset="1" stop-color="white"/>
</radialGradient>
<radialGradient id="paint15_radial_1_846" cx="0" cy="0" r="1" gradientUnits="userSpaceOnUse" gradientTransform="translate(10.9639 14.4091) rotate(163.567) scale(5.34646 5.34646)">
<stop stop-color="white"/>
<stop offset="0.2028" stop-color="#E3E3E3"/>
<stop offset="0.7468" stop-color="#9C9C9C"/>
<stop offset="1" stop-color="#808080"/>
</radialGradient>
<radialGradient id="paint16_radial_1_846" cx="0" cy="0" r="1" gradientUnits="userSpaceOnUse" gradientTransform="translate(10.9639 14.4091) rotate(163.567) scale(5.34646 5.34646)">
<stop stop-color="#FA667E"/>
<stop offset="0.3243" stop-color="#FC9CAB"/>
<stop offset="0.7852" stop-color="#FEE3E7"/>
<stop offset="1" stop-color="white"/>
</radialGradient>
<radialGradient id="paint17_radial_1_846" cx="0" cy="0" r="1" gradientUnits="userSpaceOnUse" gradientTransform="translate(15.261 7.51082) rotate(163.567) scale(4.69391)">
<stop stop-color="white"/>
<stop offset="0.2028" stop-color="#E3E3E3"/>
<stop offset="0.7468" stop-color="#9C9C9C"/>
<stop offset="1" stop-color="#808080"/>
</radialGradient>
<radialGradient id="paint18_radial_1_846" cx="0" cy="0" r="1" gradientUnits="userSpaceOnUse" gradientTransform="translate(15.261 7.51082) rotate(163.567) scale(4.69391)">
<stop stop-color="#FA667E"/>
<stop offset="0.3243" stop-color="#FC9CAB"/>
<stop offset="0.7852" stop-color="#FEE3E7"/>
<stop offset="1" stop-color="white"/>
</radialGradient>
<linearGradient id="paint19_linear_1_846" x1="16.5998" y1="15.6053" x2="6.96363" y2="2.77633" gradientUnits="userSpaceOnUse">
<stop stop-color="#FA667E"/>
<stop offset="1" stop-color="white"/>
</linearGradient>
<linearGradient id="paint20_linear_1_846" x1="10.1842" y1="14.415" x2="14.9316" y2="0.918411" gradientUnits="userSpaceOnUse">
<stop stop-color="#FFC3C3"/>
<stop offset="1" stop-color="#FA667E"/>
</linearGradient>
<linearGradient id="paint21_linear_1_846" x1="11.9581" y1="11.7172" x2="13.0341" y2="5.10678" gradientUnits="userSpaceOnUse">
<stop stop-color="#FFC3C3"/>
<stop offset="1" stop-color="#FA667E"/>
</linearGradient>
<radialGradient id="paint22_radial_1_846" cx="0" cy="0" r="1" gradientUnits="userSpaceOnUse" gradientTransform="translate(14.411 12.1786) rotate(163.567) scale(3.5297 3.52971)">
<stop stop-color="white"/>
<stop offset="0.2028" stop-color="#E3E3E3"/>
<stop offset="0.7468" stop-color="#9C9C9C"/>
<stop offset="1" stop-color="#808080"/>
</radialGradient>
<radialGradient id="paint23_radial_1_846" cx="0" cy="0" r="1" gradientUnits="userSpaceOnUse" gradientTransform="translate(14.411 12.1786) rotate(163.567) scale(3.5297 3.52971)">
<stop stop-color="#FA667E"/>
<stop offset="0.3243" stop-color="#FC9CAB"/>
<stop offset="0.7852" stop-color="#FEE3E7"/>
<stop offset="1" stop-color="white"/>
</radialGradient>
<radialGradient id="paint24_radial_1_846" cx="0" cy="0" r="1" gradientUnits="userSpaceOnUse" gradientTransform="translate(15.4986 9.48699) rotate(163.567) scale(2.73132 2.73132)">
<stop stop-color="white"/>
<stop offset="0.2028" stop-color="#E3E3E3"/>
<stop offset="0.7468" stop-color="#9C9C9C"/>
<stop offset="1" stop-color="#808080"/>
</radialGradient>
<radialGradient id="paint25_radial_1_846" cx="0" cy="0" r="1" gradientUnits="userSpaceOnUse" gradientTransform="translate(15.4986 9.48699) rotate(163.567) scale(2.73132 2.73132)">
<stop stop-color="#FA667E"/>
<stop offset="0.3243" stop-color="#FC9CAB"/>
<stop offset="0.7852" stop-color="#FEE3E7"/>
<stop offset="1" stop-color="white"/>
</radialGradient>
<radialGradient id="paint26_radial_1_846" cx="0" cy="0" r="1" gradientUnits="userSpaceOnUse" gradientTransform="translate(10.2023 10.3944) rotate(163.567) scale(3.52228 3.52228)">
<stop stop-color="white"/>
<stop offset="0.2028" stop-color="#E3E3E3"/>
<stop offset="0.7468" stop-color="#9C9C9C"/>
<stop offset="1" stop-color="#808080"/>
</radialGradient>
<radialGradient id="paint27_radial_1_846" cx="0" cy="0" r="1" gradientUnits="userSpaceOnUse" gradientTransform="translate(10.2023 10.3944) rotate(163.567) scale(3.52228 3.52228)">
<stop stop-color="#FA667E"/>
<stop offset="0.3243" stop-color="#FC9CAB"/>
<stop offset="0.7852" stop-color="#FEE3E7"/>
<stop offset="1" stop-color="white"/>
</radialGradient>
<linearGradient id="paint28_linear_1_846" x1="14.7562" y1="12.3169" x2="8.81937" y2="4.41167" gradientUnits="userSpaceOnUse">
<stop stop-color="#FA667E"/>
<stop offset="1" stop-color="white"/>
</linearGradient>
<linearGradient id="paint29_linear_1_846" x1="10.6648" y1="13.0068" x2="13.7617" y2="4.20818" gradientUnits="userSpaceOnUse">
<stop stop-color="#FA667E"/>
<stop offset="1" stop-color="#FFC3C3"/>
</linearGradient>
<linearGradient id="paint30_linear_1_846" x1="11.5738" y1="10.8467" x2="12.2748" y2="6.5373" gradientUnits="userSpaceOnUse">
<stop stop-color="#FA667E"/>
<stop offset="1" stop-color="#FFC3C3"/>
</linearGradient>
</defs>
</svg>
