<svg width="71" height="69" viewBox="0 0 71 69" fill="none" xmlns="http://www.w3.org/2000/svg">
<g id="Group">
<path id="Vector" d="M-20.2963 37.4976C-20.0491 37.2504 -18.5662 35.7674 -17.3303 34.7788C-16.0945 33.7901 -14.6115 32.3071 -13.6228 30.577C-12.387 29.094 -7.69086 25.8808 -6.70219 26.8695C-5.71353 27.8581 -7.44369 30.0826 -8.43235 31.0713C-9.17385 32.06 -12.6342 33.7901 -13.3757 34.7788C-14.1172 35.7674 -16.3417 37.9919 -17.5775 40.7108C-18.5662 43.1824 -18.0718 44.4182 -18.0718 43.6767C-18.0718 43.1824 -16.5888 41.9466 -16.5888 41.9466C-16.5888 41.9466 -16.5888 42.4409 -16.836 44.1711C-17.0832 45.9012 -15.6002 48.6201 -14.8587 49.6087C-14.1172 50.5974 -13.3757 51.5861 -11.6455 52.0804C-9.91535 52.5747 -7.44369 55.5407 -7.44369 55.2935C-7.44369 55.0464 -7.93802 52.0804 -8.67952 51.0917C-9.42102 49.8559 -9.91535 49.3616 -10.1625 48.1257C-10.4097 46.8899 -10.1625 45.1597 -10.1625 43.6767C-10.1625 42.1938 -9.17385 40.9579 -9.17385 40.9579C-9.17385 40.9579 -8.92669 43.4296 -9.17385 44.9126C-9.42102 46.3956 -9.17385 46.8899 -9.17385 47.8786C-9.17385 48.8672 -8.43235 49.8559 -7.93802 50.1031C-7.69086 50.3502 -8.43235 49.6087 -8.43235 48.3729C-8.43235 46.8899 -7.69086 45.6541 -6.70219 43.1824C-5.71353 40.9579 -5.2192 37.7448 -4.72487 35.7674C-3.98337 34.0373 -2.74754 29.5883 -1.26455 29.3411C0.465614 29.094 2.19578 30.8241 2.19578 32.3071C2.19578 33.7901 -0.028717 37.7448 -1.75888 39.9693C-3.48904 41.9466 -3.48904 43.4296 -4.4777 45.1597C-5.2192 47.1371 -4.23053 50.3502 -3.98337 51.5861C-3.98337 53.0691 -2.74754 55.7879 -2.50037 56.5294C-2.25321 57.2709 0.465616 59.7425 -0.770212 58.0124C-2.00604 56.2822 -2.00604 54.552 -2.25321 53.8105C-2.25321 53.069 -1.75888 52.0804 -1.01738 54.3049C-0.275883 56.5294 1.20711 58.7539 1.94861 59.4954C2.69011 59.9897 3.67877 60.9784 6.15043 61.7198C8.37492 62.4613 9.61075 63.6972 10.3522 63.6972C11.0937 63.6972 9.61075 61.2255 9.36359 59.7425C8.62209 58.2595 7.38626 56.5294 6.89193 55.5407C6.15043 54.3049 5.6561 53.3162 6.15043 53.8105C6.64476 54.3049 6.89193 53.8106 7.63343 54.7992C8.37493 55.7879 9.11642 56.7765 9.36359 58.0124C9.61075 59.2482 11.0937 61.2255 10.8466 60.484C10.3522 59.7425 10.5994 59.001 10.3522 57.2709C9.85792 55.5407 9.11642 53.3162 8.37493 51.5861C7.88059 50.1031 7.1391 46.6427 6.89193 45.1597C6.64477 43.4296 7.63343 40.2164 8.62209 38.2391C9.61075 36.2618 11.8352 37.4976 12.5767 38.4863C13.3182 39.4749 13.0711 42.4409 12.5767 44.4182C12.3296 46.6427 12.5767 50.8446 12.5767 53.3162C12.5767 55.7879 13.3182 58.7539 14.0597 59.7425C14.8012 60.7312 18.0144 61.967 19.0031 62.7085C19.9917 63.2028 24.1935 65.4273 24.935 65.4273C25.4294 65.4273 25.6765 63.6972 25.4294 62.7085C24.935 61.4727 25.6765 58.5067 25.1822 57.0237C24.4407 55.5407 21.2275 51.5861 20.486 49.6087C19.7446 47.6314 20.486 42.6881 21.969 41.2051C23.452 39.9693 25.4294 41.9466 25.6765 42.6881C25.9237 43.1824 26.1709 47.8786 25.9237 49.1144C25.4294 50.3502 25.4294 53.8105 26.418 57.2709C27.4067 60.7312 29.8783 62.2142 31.3613 63.2028C32.8443 64.1915 33.833 65.1802 35.0688 65.9217C36.3047 66.6632 39.0235 67.4047 38.0348 66.9103C37.0462 66.1688 36.5518 65.9217 35.316 64.6858C34.3273 63.6972 32.8443 61.7198 33.5858 62.2142C34.0802 62.7085 35.8103 63.2028 36.799 64.1915C37.7877 64.933 40.7536 67.1575 41.4951 67.4047C42.2366 67.6518 44.4611 68.3933 43.7196 67.1575C42.9781 65.9217 42.731 64.4387 41.7423 63.2028C40.7536 61.967 38.5292 60.7312 37.7877 60.2369C36.799 59.4954 36.3047 58.7539 37.0462 59.001C37.7877 59.001 38.282 59.9897 39.2707 60.7312C40.2593 61.4727 39.5178 60.484 38.5292 59.4954C37.5405 58.2595 35.5632 56.5294 35.316 54.552C34.8217 52.3276 34.8217 47.8786 35.316 47.6314C35.5632 47.3842 37.0462 47.6314 37.5405 48.6201C38.0348 49.6087 38.7763 51.8332 39.2707 53.5634C39.5178 54.7992 42.731 59.9897 43.2253 61.4727C43.7196 62.9557 46.1913 63.9443 47.18 64.4387C48.4158 64.933 51.8761 65.6745 52.8648 66.416C53.8534 67.1575 54.8421 67.4047 54.5949 65.6745C54.3478 64.4387 54.3478 62.4614 53.1119 61.4727C52.1233 60.7312 51.1346 59.001 49.6516 56.2822C48.1686 53.5634 49.1573 51.0917 49.6516 51.0917C50.1459 50.8446 50.8874 51.3389 51.6289 52.0804C52.1233 53.0691 53.1119 54.7992 54.5949 56.7765C56.0779 59.001 59.2911 61.7199 60.2797 61.967C61.2684 62.2142 65.9646 61.967 66.9532 62.2142C67.9419 62.4613 69.6721 62.2142 69.1777 60.9784C68.4362 59.7425 64.7287 57.518 62.5042 55.2935C60.2797 53.3162 58.7967 49.1144 60.7741 48.6201C62.5042 48.1257 65.4702 49.1144 66.9532 50.3502C68.4362 51.5861 70.4135 50.8446 69.9192 49.8559C69.4249 49.1144 67.9419 47.6314 66.9532 46.3956C65.9646 45.1597 64.7287 43.9239 63.4929 43.4296C62.2571 42.9353 59.7854 42.1937 57.5609 41.4523C55.0893 40.4636 54.8421 37.4976 55.3364 36.5089C55.5836 35.7674 58.7968 35.5203 60.0326 36.2618C61.2684 37.0033 64.7287 37.4976 65.7174 37.7448C66.7061 37.9919 69.9192 38.2391 70.6607 38.7334C71.6494 39.2278 69.1777 35.7674 67.4476 34.2844C65.7174 32.8014 62.5042 31.5656 61.0212 30.8241C59.5383 30.0826 56.0779 27.3638 54.1006 26.6223C52.3704 26.128 47.6743 25.8808 45.697 24.1507C43.4725 22.1733 43.2253 20.196 44.214 19.7017C45.2026 19.2073 48.1686 19.9488 49.1573 20.6903C50.1459 21.4318 52.6176 22.4205 54.5949 23.162C56.5723 23.9035 59.5383 25.6336 62.0099 27.3638C64.4816 29.094 67.9419 28.3525 68.4362 28.3525C68.9305 28.3525 71.4022 28.3525 70.4135 26.8695C69.4249 25.6336 67.4476 24.8921 65.7174 23.9035C63.9872 22.9148 62.9986 21.1847 62.5042 20.4432C62.0099 19.9488 60.5269 18.713 61.2684 18.9602C62.0099 19.2073 63.7401 19.9488 64.7287 20.6903C65.7174 21.4318 68.6834 22.6677 67.4476 21.679C66.4589 20.6903 64.2344 19.4545 61.7627 17.7243C59.2911 15.9942 57.5609 14.5112 56.0779 14.264C54.5949 14.0168 49.6516 12.2867 47.6743 11.7924C45.9441 11.0509 41.7423 9.56787 41.0008 9.81503C40.2593 10.0622 37.7877 10.3094 34.8217 10.8037C31.8557 11.298 30.1255 9.32071 29.8783 8.82637C29.8783 8.33204 30.867 6.35471 32.1028 5.86038C33.3387 5.11888 36.799 4.62455 38.282 4.62455C39.765 4.62455 43.9668 5.36605 45.2026 5.36605C46.4385 5.36605 48.4158 6.35471 49.1573 7.09621C49.6516 7.83771 50.8874 8.82637 51.6289 9.3207C52.1233 9.56787 52.8648 10.0622 52.8648 9.56787C52.8648 9.07354 52.8648 8.08487 52.8648 8.08487C52.8648 8.08487 53.8534 8.57921 55.0893 9.81503C56.3251 10.8037 57.0666 10.8037 58.5496 10.8037C59.7854 10.8037 62.0099 10.0622 62.0099 9.56787C62.0099 9.07354 59.2911 6.10755 59.0439 5.36605C58.3024 4.62455 57.3138 3.88306 56.3251 3.88306C55.3364 3.88306 51.3818 1.65856 50.6403 0.917063C49.8988 0.422731 48.6629 -0.56593 49.8988 -0.318765C51.1346 -0.071599 52.1233 -0.0716 53.1119 0.175567C54.3478 0.669898 56.8194 0.422731 55.8308 0.422731C55.0893 0.422731 53.1119 -1.06026 50.3931 -1.80176C47.9215 -2.54326 41.9895 -4.27341 40.7536 -4.02625C39.5178 -3.53192 35.8103 -2.54326 35.5632 -2.29609C35.0688 -2.04892 32.5972 -2.54326 31.6085 -1.55459C30.3727 -0.565929 27.4067 0.917063 25.9237 1.65856C24.4407 2.64722 22.2162 2.40006 21.4747 1.41139C20.7332 0.669897 22.7105 -2.29609 23.2049 -3.28475C23.6992 -4.27341 24.6879 -5.75641 25.6765 -6.00358C26.6652 -6.49791 32.8443 -7.9809 35.5632 -8.22807C38.282 -8.7224 40.2593 -9.71107 41.4951 -10.4526C42.731 -11.4412 41.4951 -10.9469 40.2593 -11.4412C39.0235 -11.9356 38.0348 -12.1827 37.7877 -12.4299C37.2933 -12.9242 36.0575 -14.16 33.833 -14.16C31.6085 -14.16 29.384 -13.6657 28.1482 -13.6657C26.9124 -13.4186 24.6879 -13.1714 26.1709 -13.6657C27.4067 -13.9129 30.867 -15.643 28.8897 -15.1487C26.9124 -14.6544 25.6765 -15.1487 23.9464 -14.9015C22.2162 -14.4072 19.9917 -12.6771 18.5087 -11.9356C17.2729 -10.9469 16.0371 -8.47524 15.5427 -6.74508C15.0484 -5.01492 13.8126 -2.04893 12.0824 0.422731C10.5994 2.89439 8.62209 -0.071599 8.62209 -0.56593C8.62209 -1.06026 10.1051 -4.76775 11.3409 -6.25074C12.5767 -7.73374 14.0597 -10.4526 13.8126 -11.4412C13.8126 -12.4299 10.1051 -9.95823 7.88059 -7.9809C5.6561 -6.00358 2.69011 -3.03759 3.67877 1.41139C4.9146 5.61321 4.66743 6.35471 3.67877 6.84904C2.93727 7.34337 1.20711 3.38872 0.465616 1.90573C-0.275883 0.175565 -2.00604 -2.29609 -2.00604 -1.30743C-2.25321 -0.318764 -2.00604 -0.565933 -2.50037 1.90573C-2.99471 4.37738 -0.523048 6.10754 0.218451 7.59054C0.959948 9.3207 2.44294 13.5225 2.44294 13.5225C5.40893 14.5112 7.88059 15.4998 9.11642 15.9942C9.11642 15.9942 13.0711 3.88305 15.2956 -0.318765C17.7672 -4.76775 20.7332 -7.23941 23.452 -8.96957C26.1709 -10.6997 19.2502 -5.26208 17.5201 -2.79042C16.0371 -0.318763 12.0824 10.8037 11.0937 13.5225C10.3522 15.2527 10.3522 15.747 10.3522 15.747C10.3522 15.747 14.5541 17.7243 15.5427 18.4658C15.5427 18.4658 21.7219 11.0509 23.452 8.57921C25.1822 6.10755 28.8897 4.13022 30.1255 3.63589C30.1255 3.63589 25.6765 6.35471 24.6879 7.59054C23.9464 8.82637 16.2842 18.2187 16.2842 18.2187C16.2842 18.4658 16.0371 18.4658 16.0371 18.4658C16.0371 18.4658 23.9464 22.6677 24.935 23.6563C24.935 23.6563 36.0575 16.2413 38.5292 15.2527C41.0008 14.264 46.4385 15.0055 48.1686 15.747C49.8988 16.4885 48.1686 16.2413 46.4385 15.747C44.7083 15.4998 39.5178 15.747 38.282 16.2413C37.2933 16.7357 28.6425 22.1733 25.6765 23.9035C25.6765 23.9035 34.5745 29.094 37.5405 31.0713C37.5405 31.0713 51.1346 29.094 54.1006 30.3298C54.1006 30.3298 49.4044 30.577 47.9215 30.577C46.4385 30.577 39.765 31.5656 38.7763 31.8128C38.7763 31.8128 52.1233 43.1824 55.3364 47.8786C55.3364 47.8786 47.18 39.9693 44.9555 38.2391C44.9555 38.2391 43.2253 45.1597 43.4725 47.3842C43.9668 49.8559 44.214 52.0804 44.214 52.0804C44.214 52.0804 43.4725 50.8446 43.2253 49.6087C42.9781 48.3729 42.4838 45.1597 42.9781 43.6767C43.2253 42.4409 44.4611 37.7448 44.4611 37.7448C44.4611 37.7448 37.2933 32.3071 34.3273 30.577C34.3273 30.577 31.3613 38.7334 30.3727 43.9239C30.3727 45.1597 30.1255 45.9012 30.1255 45.9012C30.1255 45.4069 30.1255 44.6654 30.3727 43.9239C30.6198 42.1938 30.867 39.7221 31.1142 38.2391C31.6085 35.2731 33.3387 30.3298 33.3387 30.3298C33.3387 30.3298 23.6992 24.1507 22.2162 23.4092C22.2162 23.4092 17.0257 37.0033 16.7786 39.9693C16.5314 42.9352 17.0257 45.9012 16.7786 46.6427C16.7786 47.3842 16.0371 40.7108 16.0371 38.9806C16.0371 37.2504 20.9804 23.9035 21.4747 22.9148C21.4747 22.9148 15.2956 19.7017 13.3182 18.9602C13.3182 18.9602 7.13909 32.0599 5.6561 34.7788C4.42027 37.7448 1.94861 42.6881 2.19578 44.1711C2.69011 45.6541 1.20712 43.1824 2.19578 40.9579C3.18444 38.7334 6.3976 32.06 7.1391 31.0713C7.88059 30.0826 13.0711 19.4545 13.0711 18.9602C13.0711 18.4658 8.37493 16.2413 7.88059 16.2413C7.63343 16.2413 2.19578 21.9262 0.959948 23.4092C1.70144 22.4205 6.3976 16.4885 7.38626 15.9942C8.12776 15.9942 8.62209 15.747 8.86926 15.747C5.90327 14.7584 1.45428 13.5225 0.465616 13.2754C-0.523048 13.0282 -2.00604 13.5225 -4.23054 14.264C-6.7022 15.0055 -6.45503 15.2527 -7.69086 15.2527C-8.67952 15.2527 -8.92669 15.2527 -10.6568 16.2413C-12.387 17.23 -14.6115 20.6903 -15.6002 21.9262C-16.5888 22.9148 -18.319 22.6677 -17.8247 23.162C-17.5775 23.9035 -16.0945 23.9035 -14.8587 23.4092C-13.3757 22.9148 -11.1512 20.4432 -9.17385 19.4545C-7.19652 18.4658 -6.45503 20.6903 -6.94936 21.4318C-7.19652 22.1733 -9.66818 23.6563 -11.1512 24.1507C-12.387 24.645 -14.6115 25.6336 -16.5888 26.3751C-18.8133 27.1166 -19.802 31.5656 -20.2963 33.2958C-20.5435 35.2731 -20.5435 37.7448 -20.2963 37.4976ZM4.1731 25.1393C4.66743 22.6677 6.3976 22.1733 7.38626 22.6677C8.37493 23.162 8.12776 24.8921 7.1391 26.3751C6.15043 27.8581 5.40893 28.8468 5.40893 28.8468C4.1731 30.8241 3.92594 27.611 4.1731 25.1393ZM14.0597 31.8128C14.3069 29.8355 15.0484 27.1166 15.7899 26.8695C16.2842 26.8695 17.7672 26.8695 17.2729 28.5996C16.7786 30.3298 15.5427 33.543 15.5427 33.543C14.8012 35.0259 13.8126 34.0373 14.0597 31.8128ZM47.9215 35.5203C46.6856 35.5203 44.7083 35.0259 45.9441 33.7901C45.9441 33.7901 47.4271 33.0486 48.9101 33.2958C50.6403 33.7901 49.1573 35.5203 47.9215 35.5203ZM15.7899 11.298C15.5427 12.5339 15.7899 12.781 14.0597 12.781C14.0597 12.781 13.8126 9.56787 14.8012 9.3207C15.7899 8.82637 16.0371 9.81503 15.7899 11.298ZM22.4634 5.11888C22.4634 5.86038 21.4747 7.09621 20.7332 7.59054C19.9917 7.83771 19.0031 7.59054 18.7559 6.35471C18.7559 5.11888 21.2275 3.38873 21.2275 3.38873C21.969 2.89439 22.2162 4.37739 22.4634 5.11888ZM33.833 14.0168C34.0802 14.5112 31.8557 15.747 30.867 15.9942C29.8783 16.2413 28.1482 17.9715 26.9124 17.9715C25.6765 17.9715 23.452 16.2413 24.6879 14.7584C25.9237 13.0282 32.35 12.781 32.35 12.781C33.3387 12.2867 33.833 13.5225 33.833 14.0168ZM40.2593 21.1847C39.2706 20.9375 39.0235 21.1847 38.282 21.679C37.5405 22.1733 36.5518 20.9375 36.799 19.9488C37.0462 18.9602 40.7536 19.4545 40.7536 19.4545C41.9895 20.196 41.248 21.679 40.2593 21.1847ZM42.731 26.8695C40.2593 26.8695 38.5291 28.1053 37.5405 26.8695C36.5518 25.6336 36.799 24.3978 38.282 24.1507C39.5178 24.1507 43.4725 24.645 43.4725 24.645C44.214 25.6336 45.2026 26.8695 42.731 26.8695ZM32.8443 43.1824C32.5972 41.6994 32.8443 37.0033 33.833 36.2618C34.8217 35.5203 36.3047 35.7674 36.0575 37.7448C35.8103 39.4749 36.3047 43.4296 36.3047 43.4296C36.5518 45.6541 33.0915 44.4182 32.8443 43.1824ZM27.4067 34.7788C27.4067 32.8014 29.384 33.0486 29.6312 34.2844C29.8783 35.2731 28.6425 37.2504 28.6425 37.2504H28.3954C26.9124 37.7448 27.4067 36.7561 27.4067 34.7788ZM20.7332 37.2504C20.7332 36.0146 20.9804 30.8241 21.969 30.577C22.7105 30.3298 24.1935 29.8355 23.6992 32.8015C23.2049 35.5203 22.9577 38.4863 22.9577 38.4863C22.2162 39.7221 20.7332 38.7334 20.7332 37.2504ZM9.11642 32.5543C9.36359 31.3185 10.3522 30.0826 10.8466 31.0713C11.3409 32.06 10.1051 34.5316 10.1051 34.5316C9.61075 35.7674 8.86926 33.7901 9.11642 32.5543Z" fill="#65DCE1"/>
<path id="Vector_2" d="M62.5042 55.5407C61.7627 54.7992 61.0212 53.5634 60.5268 52.5747C57.5608 50.8445 55.5835 48.3729 55.5835 48.3729C55.5835 48.3729 47.1799 40.4636 44.9554 38.7334C44.9554 38.7334 43.2252 45.654 43.4724 47.8785C43.9667 50.103 43.9667 52.3275 43.9667 52.3275C43.9667 52.3275 43.4724 51.0917 43.2252 49.8559C42.978 48.62 42.7309 45.4069 42.978 43.9239C43.2252 42.6881 44.461 37.9919 44.461 37.9919C44.461 37.9919 37.5404 32.5543 34.3272 30.8241C34.3272 30.8241 31.3612 38.9806 30.3726 44.171C30.3726 45.4069 30.1254 46.1484 30.1254 46.1484C30.1254 45.654 30.1254 44.9125 30.3726 44.171C30.6198 42.4409 30.8669 40.2164 31.1141 38.4862C31.6084 35.5202 33.3386 30.5769 33.3386 30.5769C33.3386 30.5769 23.9463 24.3978 22.4633 23.9035C22.4633 23.9035 17.2728 37.4976 17.0256 40.2164C16.7785 43.1824 17.2728 46.3955 17.0256 47.137C17.0256 47.8785 16.2841 41.2051 16.2841 39.4749C16.2841 37.7447 21.2275 24.3978 21.7218 23.4091C21.7218 23.4091 15.5426 20.196 13.5653 19.4545C13.5653 19.4545 7.38617 32.5543 5.90317 35.2731C4.42018 37.9919 1.94852 42.9352 2.44285 44.4182C2.69002 45.9012 1.20702 43.4296 2.19568 41.2051C3.18435 38.9806 6.39751 32.3071 7.139 31.3184C7.8805 30.3298 13.071 19.7016 13.071 19.2073C13.071 18.713 8.37483 16.4885 7.8805 16.4885C7.63334 16.4885 2.19568 22.4205 1.20702 23.6563C1.94852 22.6676 6.64467 16.7356 7.63334 16.2413C8.37483 16.2413 8.622 15.9941 8.86916 15.9941C6.15034 15.0055 1.45419 13.7697 0.712687 13.5225C-0.275976 13.2753 -1.75897 13.7697 -3.98346 14.5112C-6.45512 15.2527 -6.20796 15.4998 -7.44379 15.4998C-8.43245 15.4998 -8.67962 15.4998 -10.4098 16.4885C-12.1399 17.4771 -14.6116 20.9375 -15.6003 22.1733C-16.5889 23.162 -18.3191 22.9148 -17.8248 23.4091C-17.3304 23.9035 -16.0946 24.1506 -14.6116 23.9035C-13.3758 23.162 -11.1513 20.6903 -9.17395 19.7016C-7.19662 18.9601 -6.20796 21.1846 -6.70229 21.679C-7.19662 22.4205 -9.66828 23.9035 -10.9041 24.3978C-12.3871 24.8921 -14.6116 25.8808 -16.5889 26.6223C-18.5663 27.3638 -19.8021 31.8128 -20.0492 33.5429C-20.2964 35.5202 -20.2964 37.9919 -20.0492 37.7447C-20.0492 37.4976 -18.5662 36.0146 -17.3304 35.0259C-16.0946 34.0373 -14.6116 32.5543 -13.6229 30.8241C-12.3871 29.3411 -7.69095 26.1279 -6.70229 27.1166C-5.71362 28.1053 -7.44379 30.3298 -8.43245 31.3184C-8.92678 32.3071 -12.6343 34.0373 -13.3758 35.0259C-14.1173 36.0146 -16.3418 38.2391 -17.3304 40.9579C-18.3191 43.4295 -18.0719 44.6654 -18.0719 43.9239C-18.0719 43.4296 -16.5889 42.1937 -16.5889 42.1937C-16.5889 42.1937 -16.5889 42.6881 -16.8361 44.4182C-17.0833 46.1484 -15.6003 48.8672 -14.8588 49.8559C-14.1173 50.8445 -13.3758 51.8332 -11.6456 52.3275C-9.91544 52.8218 -7.44379 55.7878 -7.19662 55.5407C-7.19662 55.2935 -7.69095 52.5747 -8.43245 51.3389C-9.42111 50.103 -9.91544 49.6087 -10.1626 48.3729C-10.4098 47.137 -10.1626 45.4069 -10.1626 43.9239C-10.1626 42.4409 -9.17395 41.2051 -9.17395 41.2051C-9.17395 41.2051 -8.92678 43.9239 -9.17395 45.1597C-9.42111 46.6427 -9.17395 47.137 -9.17395 48.1257C-9.17395 49.1144 -8.43245 50.103 -7.93812 50.3502C-7.44379 50.5974 -8.18528 49.8559 -8.18528 48.3729C-8.18528 47.137 -7.44378 45.654 -6.45512 43.4296C-5.46646 41.2051 -4.97213 37.9919 -4.4778 36.0146C-3.98347 34.2844 -2.50047 29.8354 -1.01748 29.5883C0.465521 29.3411 2.19568 31.0713 2.19568 32.5543C2.19568 34.0373 -0.0288105 37.9919 -1.75897 40.2164C-3.48913 42.4409 -3.48913 43.6767 -4.4778 45.4069C-5.21929 47.137 -4.23063 50.3502 -3.98346 51.8332C-3.98346 53.3162 -2.74763 56.035 -2.50047 56.7765C-2.2533 57.518 0.465523 59.9897 -0.770306 58.2595C-2.00614 56.5293 -2.00614 54.7992 -2.00614 54.0577C-2.00614 53.3162 -1.5118 52.3275 -0.770306 54.552C-0.0288086 56.7765 1.20702 59.001 1.94851 59.7425C2.93718 60.484 3.92584 61.2255 6.15034 61.967C8.37483 62.7085 9.61066 63.9443 10.3522 63.9443C11.0937 63.9443 9.61066 61.4727 9.36349 59.9897C8.622 58.5067 7.38617 56.7765 6.89184 55.7878C6.39751 54.552 5.656 53.5634 6.3975 54.0577C6.89183 54.552 7.139 54.0577 7.8805 55.0463C8.622 56.035 9.11633 57.0237 9.61066 58.2595C9.85783 59.4953 11.3408 61.4727 10.8465 60.7312C10.3522 59.9897 10.8465 59.2482 10.3522 57.518C10.105 55.7878 9.11633 53.5634 8.622 51.8332C7.8805 50.3502 7.139 47.137 6.89184 45.4069C6.64467 43.9239 7.63333 40.4636 8.622 38.4862C9.61066 36.5089 11.8352 37.7447 12.5766 38.7334C13.3181 39.7221 13.071 42.6881 12.5766 44.6654C12.5766 46.8899 12.5766 51.0917 12.5766 53.5634C12.5766 56.035 13.3181 59.001 14.0596 59.7425C14.8011 60.7312 17.7671 62.2142 19.003 62.7085C19.9916 63.2028 24.1934 65.4273 24.9349 65.4273C25.4293 65.4273 25.6764 63.6972 25.4293 62.7085C24.9349 61.7198 25.6764 58.7538 25.1821 57.2708C24.4406 55.7878 21.4746 51.8332 20.7331 49.8559C19.9916 47.8785 20.7331 42.9352 22.2161 41.4522C23.4519 40.2164 25.4293 42.1937 25.6764 42.9352C25.9236 43.4296 26.1708 48.1257 25.9236 49.3615C25.6764 50.5974 25.4293 54.0577 26.4179 57.518C27.4066 60.9783 29.8783 62.4613 31.3612 63.45C32.8442 64.4387 33.8329 65.4273 35.0687 66.1688C36.3046 66.9103 39.0234 67.6518 38.0347 67.1575C37.2932 66.416 36.5517 66.1688 35.5631 64.933C34.3272 63.9443 32.8442 61.967 33.5857 62.4613C34.0801 62.9557 35.8102 63.45 36.7989 64.4387C37.7876 65.1802 40.7536 67.4046 41.7422 67.6518C42.4837 67.899 44.7082 68.6405 43.9667 67.4046C43.2252 66.1688 42.7309 64.933 41.7422 63.45C40.7536 62.2142 38.5291 60.9783 37.7876 60.484C37.0461 59.9897 36.3046 59.001 37.0461 59.2482C37.7876 59.2482 38.2819 60.2368 39.2706 60.9783C40.2592 61.4727 39.7649 60.7312 38.7762 59.4953C37.5404 58.2595 35.8102 56.5293 35.3159 54.552C35.0687 52.3275 34.8216 47.6314 35.3159 47.6314C35.5631 47.3842 37.0461 47.6314 37.5404 48.62C38.0347 49.6087 38.7762 51.8332 39.2706 53.5634C39.7649 55.0463 42.7309 60.2368 43.2252 61.7198C43.7195 63.2028 46.1912 64.1915 47.427 64.6858C48.6629 65.1801 52.1232 65.9216 53.1118 66.6631C54.1005 67.4046 55.0892 67.6518 54.842 65.9216C54.3477 64.6858 54.3477 62.7085 53.1118 61.7198C51.876 60.9783 51.1345 59.2482 49.6515 56.5293C48.1685 53.8105 49.1572 51.3389 49.6515 51.3389C50.1459 51.0917 50.8874 51.586 51.6289 52.3275C52.3704 53.3162 53.1118 55.0463 54.5948 57.0237C56.0778 59.2482 59.291 61.967 60.2797 62.2142C61.2683 62.4613 65.9645 62.2142 66.9531 62.4613C67.9418 62.7085 69.672 62.4613 69.1776 61.2255C68.4361 59.9897 64.7286 57.7652 62.5042 55.5407ZM4.17301 25.3864C4.66734 22.9148 6.39751 22.4205 7.38617 22.9148C8.622 23.4091 8.12767 24.8921 7.139 26.3751C6.15034 27.8581 5.40884 28.8468 5.40884 28.8468C4.17301 31.0713 3.92584 27.8581 4.17301 25.3864ZM10.3522 34.5316C9.61066 36.0146 8.86916 34.0372 9.11633 32.8014C9.36349 31.5656 10.3522 30.3298 10.8465 31.3184C11.3408 32.0599 10.3522 34.5316 10.3522 34.5316ZM14.0596 32.0599C14.3068 29.8354 15.0483 27.1166 15.7898 27.1166C16.5313 27.1166 17.7671 27.1166 17.2728 28.8468C16.7785 30.5769 15.5426 33.7901 15.5426 33.7901C14.8011 35.2731 13.8125 34.2844 14.0596 32.0599ZM23.6991 33.0486C23.2048 35.7674 22.9576 38.7334 22.9576 38.7334C22.2161 39.9692 20.7331 38.9806 20.7331 37.4976C20.7331 36.2617 20.9803 31.0713 21.969 30.8241C22.9576 30.5769 24.1934 30.0826 23.6991 33.0486ZM28.8896 37.2504C26.9123 37.9919 27.4066 37.0032 27.4066 35.0259C27.4066 33.0486 29.3839 33.2958 29.6311 34.5316C30.1254 35.5202 28.8896 37.2504 28.8896 37.2504ZM33.0914 43.4296C32.8442 41.9466 33.0914 37.2504 34.0801 36.5089C35.0687 35.7674 36.5517 36.0146 36.3046 37.9919C35.8102 39.7221 36.3046 43.6767 36.3046 43.6767C36.5517 45.9012 33.3386 44.6654 33.0914 43.4296Z" fill="url(#paint0_linear_1_532)"/>
<path id="Vector_3" d="M60.5271 52.5748C59.7856 50.8446 59.7856 49.1144 60.7742 48.8673C62.5044 48.3729 65.4704 49.3616 66.9534 50.5974C68.4364 51.8333 70.4137 51.0918 69.9193 50.1031C69.425 49.1144 67.942 47.6314 66.9534 46.6428C65.9647 45.4069 64.7289 44.1711 63.493 43.6768C62.2572 43.1824 59.7855 42.4409 57.5611 41.6995C55.3366 40.7108 54.8422 37.7448 55.3366 37.0033C55.8309 36.2618 58.7969 35.7675 60.0327 36.7561C61.2686 37.2505 64.7289 37.7448 65.7175 37.992C66.7062 38.2391 69.6722 38.4863 70.6609 38.9806C71.6495 39.475 69.1779 36.0146 67.4477 34.5316C65.9647 33.0486 62.5044 31.8128 61.0214 31.0713C59.5384 30.3298 56.0781 27.611 54.1007 26.8695C52.3706 26.3752 47.9216 26.128 45.6971 24.3978C43.4726 22.4205 43.4726 20.4432 44.2141 19.9489C45.2028 19.4545 48.1688 20.196 49.1574 20.9375C50.1461 21.679 52.6177 22.6677 54.5951 23.4092C56.5724 24.1507 59.5384 25.8808 62.01 27.611C64.4817 29.3412 67.942 28.5997 68.4364 28.5997C68.9307 28.5997 71.4023 28.3525 70.4137 27.1167C69.425 25.8808 67.4477 25.1393 65.7175 24.1507C63.9874 22.9149 63.2459 21.4319 62.5044 20.9375C62.01 20.196 60.5271 18.9602 61.2685 19.2074C62.01 19.4545 63.7402 20.196 64.976 20.9375C65.9647 21.679 68.9307 22.9149 67.6949 21.9262C66.459 20.9375 64.2345 19.7017 62.01 17.9715C59.5384 16.2414 57.8082 14.7584 56.3252 14.5112C54.8422 14.2641 49.8989 12.5339 47.9216 12.0396C45.9443 11.2981 41.9896 9.81506 41.0009 10.0622C40.2594 10.3094 37.7878 10.5566 35.069 11.0509C32.103 11.2981 30.3728 9.5679 30.1256 9.07357C30.1256 8.57924 31.1143 6.60191 32.3501 5.86041C33.3388 5.36608 37.0463 4.87175 38.5293 4.87175C40.0123 4.87175 44.2141 5.61324 45.4499 5.61324C46.6858 5.61324 48.6631 6.60191 49.4046 7.3434C49.8989 8.0849 51.1348 9.07357 51.8762 9.5679C52.3706 9.81507 53.1121 10.3094 52.8649 9.81506C52.6177 9.32073 52.8649 8.33207 52.8649 8.33207C52.8649 8.33207 53.8536 8.8264 55.0894 10.0622C56.3252 11.2981 57.0667 11.0509 58.5497 11.0509C59.7855 11.0509 62.01 10.3094 62.01 9.81506C62.01 9.32073 59.2912 6.35474 59.044 5.61324C58.3026 4.87175 57.5611 4.13025 56.5724 4.13025C55.5837 4.13025 51.6291 1.90575 50.8876 1.16426C49.8989 0.669925 48.6631 -0.318737 49.8989 -0.0715714C51.1347 0.175594 52.1234 0.175594 53.3592 0.42276C54.3479 0.917091 57.0667 0.669926 56.0781 0.669926C55.0894 0.669926 53.1121 -0.813067 50.3933 -1.55457C47.9216 -2.29606 41.9896 -4.02622 40.7538 -3.77906C39.518 -3.28472 35.8105 -2.29606 35.5633 -2.0489C35.3161 -1.80173 32.8445 -2.29606 31.6086 -1.3074C30.3728 -0.318736 27.4068 1.16426 25.9238 1.90575C24.4408 2.89442 22.4635 2.64725 21.4748 1.90575C20.7333 0.91709 22.7107 -2.04889 23.205 -3.03756C23.6993 -4.02622 24.9352 -5.50922 25.6767 -5.75639C26.6653 -6.25072 32.8445 -7.73371 35.5633 -7.98088C38.2821 -8.22804 40.2594 -9.2167 41.4953 -10.2054C42.7311 -11.194 41.4953 -10.6997 40.2594 -11.194C39.2708 -11.6884 38.2821 -11.9355 37.7878 -12.1827C37.5406 -12.677 36.0576 -13.9129 33.8331 -13.9129C31.6086 -13.9129 29.3842 -13.4185 28.1483 -13.4185C26.9125 -13.1714 24.688 -12.9242 26.171 -13.4185C27.654 -13.6657 30.8671 -15.3959 28.8898 -14.9015C26.9125 -14.4072 25.6767 -14.9015 23.9465 -14.6544C22.2163 -14.16 19.9918 -12.4299 18.756 -11.6884C17.273 -10.6997 16.0372 -8.22804 15.5429 -6.49788C15.0485 -4.76772 13.8127 -1.80173 12.3297 0.669926C10.5995 3.14158 8.86939 0.175595 8.86939 -0.565903C8.86939 -1.06023 10.3524 -4.76772 11.5882 -6.25072C12.824 -7.73371 14.307 -10.4525 14.0599 -11.4412C14.0599 -12.4299 10.3524 -9.9582 8.12789 -7.98088C5.9034 -6.00355 2.93741 -3.03756 3.92607 1.41142C4.91473 6.10757 4.66757 6.60191 3.6789 7.3434C2.93741 7.83773 1.20724 3.88309 0.465747 2.40009C-0.27575 0.66993 -2.00591 -1.80173 -2.00591 -0.813068C-2.25308 0.175595 -2.00591 -0.0715675 -2.50024 2.40009C-2.99458 4.87175 -0.522916 6.60191 0.218581 8.33207C0.960079 10.0622 2.44307 14.264 2.44307 14.264C5.40906 15.0055 7.63356 15.9942 8.86939 16.4885H9.11655C9.36372 15.9942 13.0712 4.37741 15.2957 0.175594C17.5202 -4.02623 20.7333 -6.74505 23.4522 -8.47521C26.171 -10.2054 19.2504 -4.76772 17.5202 -2.29606C16.0372 -0.0715694 12.0825 11.0509 11.0939 13.7697C10.5995 15.4999 10.3524 15.9942 10.3524 15.9942C10.3524 15.9942 14.5542 17.9715 15.5429 18.713C15.5429 18.713 21.722 11.2981 23.4522 8.8264C25.1823 6.35474 28.8898 4.37742 30.1256 3.88308C30.1256 3.88308 25.6767 6.6019 24.688 7.83773C23.9465 9.07356 16.5315 18.4659 16.2844 18.4659C16.2844 18.713 16.0372 18.9602 16.0372 18.9602C16.0372 18.9602 23.9465 23.162 24.9352 24.1507C24.9352 24.1507 36.0576 16.7357 38.5293 15.747C41.0009 14.7584 46.4386 15.4999 48.1688 16.2414C49.8989 16.9829 48.1688 16.7357 46.4386 16.2414C44.7084 15.747 39.518 15.9942 38.2821 16.4885C37.2935 16.9829 28.6427 22.4205 25.9238 24.3978C25.9238 24.3978 34.8218 29.5883 37.7878 31.5657C37.7878 31.5657 51.3819 29.5883 54.3479 30.8242C54.3479 30.8242 49.6518 31.0713 48.1688 31.0713C46.6858 31.0713 40.0123 32.06 39.0236 32.3072C39.0236 32.3072 52.3706 43.6768 55.5837 48.3729C55.5837 48.3729 57.5611 50.8446 60.5271 52.5748ZM15.79 11.5452C15.5429 12.7811 15.79 13.0282 14.0599 13.0282C14.0599 13.0282 13.8127 9.81507 14.8014 9.5679C15.79 9.07357 16.0372 10.0622 15.79 11.5452ZM20.7333 7.83773C19.9918 8.0849 19.0032 7.83773 18.756 6.60191C18.756 5.36608 21.2277 3.63592 21.2277 3.63592C22.2163 2.89442 22.4635 4.62458 22.4635 5.36608C22.4635 6.10757 21.4748 7.59057 20.7333 7.83773ZM30.8671 16.2414C30.1256 16.4885 28.1483 18.2187 26.9125 18.4659C25.6767 18.4659 23.4522 16.7357 24.688 15.2527C25.9238 13.5226 32.3501 13.0282 32.3501 13.0282C33.3388 12.5339 33.8331 13.7697 33.8331 14.264C34.0803 14.7584 31.8558 15.9942 30.8671 16.2414ZM36.7991 20.196C37.0463 19.2074 40.7538 19.7017 40.7538 19.7017C42.2368 20.4432 41.4953 21.9262 40.2594 21.679C39.2708 21.4319 39.0236 21.679 38.2821 22.1734C37.7878 22.4205 36.552 21.1847 36.7991 20.196ZM42.7311 27.1167C40.2594 27.1167 38.5293 28.3525 37.5406 27.1167C36.552 25.8808 36.7991 24.645 38.2821 24.3978C39.518 24.1507 43.2254 24.8922 43.2254 24.8922C44.2141 25.8808 45.2028 27.1167 42.7311 27.1167ZM48.1688 35.7675C46.9329 35.7675 44.9556 35.2731 46.1914 34.0373C46.1914 34.0373 47.6744 33.2958 49.1574 33.543C50.6404 34.0373 49.1574 35.7675 48.1688 35.7675Z" fill="url(#paint1_linear_1_532)"/>
</g>
<defs>
<linearGradient id="paint0_linear_1_532" x1="23.0738" y1="20.9622" x2="24.972" y2="59.9724" gradientUnits="userSpaceOnUse">
<stop stop-color="#1F485B"/>
<stop offset="0.2581" stop-color="#4C7F88"/>
<stop offset="0.5269" stop-color="#336B7E"/>
<stop offset="0.6754" stop-color="#31687B"/>
<stop offset="0.798" stop-color="#2B5E71"/>
<stop offset="0.9111" stop-color="#224D5F"/>
<stop offset="1" stop-color="#173A4C"/>
</linearGradient>
<linearGradient id="paint1_linear_1_532" x1="50.6824" y1="1.78712" x2="31.3368" y2="28.3871" gradientUnits="userSpaceOnUse">
<stop stop-color="#4C7F88"/>
<stop offset="0.4032" stop-color="#336B7E"/>
<stop offset="0.5906" stop-color="#31687B"/>
<stop offset="0.7452" stop-color="#2B5E71"/>
<stop offset="0.8878" stop-color="#224D5F"/>
<stop offset="1" stop-color="#173A4C"/>
</linearGradient>
</defs>
</svg>
