<svg width="44" height="41" viewBox="0 0 44 41" fill="none" xmlns="http://www.w3.org/2000/svg">
<g id="Group 12">
<path id="Vector" d="M32.3092 -5.95268L39.6627 -0.399987C39.5175 -0.963098 39.2808 -1.742 39.2515 -1.89568C39.1052 -2.66409 38.9503 -3.43201 38.7785 -4.1921C38.4983 -5.42244 38.1863 -6.64468 37.8426 -7.85882C36.1758 -13.7731 33.9229 -19.7082 30.9223 -25.0926L22.0566 -29.8795C26.9009 -22.7789 29.9809 -14.1097 32.3092 -5.95268Z" fill="#EA90A6"/>
<path id="Vector_2" d="M38.1139 36.5503C38.0258 36.4987 37.9549 36.4222 37.9102 36.3304C30.4374 21.5398 18.3653 8.41534 5.64368 -2.11725C5.822 -0.867432 36.3091 28.4055 38.3541 38.8786C38.349 38.3854 38.3362 37.877 38.3197 37.3637C38.2591 37.3122 38.2103 37.2484 38.1765 37.1764C38.1427 37.1045 38.1248 37.0261 38.1239 36.9466C38.1321 36.815 38.1179 36.6829 38.1139 36.5503Z" fill="#EA90A6"/>
<path id="Vector_3" d="M34.1076 20.4812C35.4339 24.0313 36.6632 27.6368 37.7513 31.2795C36.8682 22.4569 34.5596 13.6309 31.8273 5.28586L24.3292 0.793884C28.679 6.66917 31.5826 13.7208 34.1076 20.4812Z" fill="#EA90A6"/>
<path id="Vector_4" d="M32.9347 5.21903C32.8203 5.28901 32.8796 5.30691 32.9347 5.21903V5.21903Z" fill="#EA90A6"/>
<path id="Vector_5" d="M33.0845 5.14689C33.1007 5.2049 33.1217 5.26145 33.1474 5.31595L33.8918 4.89311C33.7222 4.94742 33.5531 5.00862 33.383 5.05433C33.2819 5.07963 33.1822 5.11054 33.0845 5.14689Z" fill="#EA90A6"/>
<path id="Vector_6" d="M32.3826 4.16608L37.8568 1.44525C38.2515 1.2507 38.8055 1.06454 39.1822 0.79506L31.6757 -4.87163L23.0675 -1.41024L32.3826 4.16608Z" fill="#EA90A6"/>
<path id="Vector_7" d="M21.1563 -1.82844C21.1805 -1.87218 21.2102 -1.91267 21.2445 -1.94897C21.322 -2.04556 21.4304 -2.11253 21.5515 -2.13863L31.0034 -5.94383C28.472 -14.7402 25.0882 -24.093 19.4651 -31.359C19.4391 -31.4031 19.4202 -31.4509 19.4089 -31.5008C19.4027 -31.5152 19.3973 -31.5299 19.3926 -31.5448C19.3644 -31.6573 19.3678 -31.7753 19.4024 -31.886C19.4371 -31.9966 19.5016 -32.0956 19.589 -32.1718C19.6561 -32.2355 19.7375 -32.2821 19.8264 -32.3076L28.8304 -35.1076C26.2835 -44.8022 22.4981 -54.3949 17.7828 -63.4562L13.1946 -63.2007C15.2837 -55.8086 17.2287 -48.1824 17.6025 -40.5412C17.6063 -40.4058 17.5677 -40.2726 17.4919 -40.1604C17.4161 -40.0481 17.3071 -39.9624 17.1801 -39.9154L6.49577 -35.0924C12.5136 -27.8346 17.2751 -18.7811 18.9289 -9.50618C18.9373 -9.39707 18.9159 -9.28771 18.8669 -9.18983C18.818 -9.09195 18.7433 -9.00924 18.6509 -8.95057L15.6708 -7.27463C14.6837 -6.40686 13.1408 -5.63583 11.5546 -4.95903L7.1489 -2.48064C18.2771 6.83262 28.8906 18.1522 36.2954 30.7928C35.397 27.8621 34.4214 24.9586 33.3684 22.0824C30.435 14.0298 27.0306 5.4236 21.2579 -1.05754C21.2413 -1.07732 21.2366 -1.0995 21.2217 -1.11938C21.1852 -1.16463 21.1561 -1.21544 21.1357 -1.26989C21.0938 -1.35775 21.0738 -1.45444 21.0774 -1.5517C21.081 -1.64896 21.1081 -1.74392 21.1563 -1.82844Z" fill="#EA90A6"/>
<path id="Vector_8" d="M37.9101 36.3304C37.9548 36.4222 38.0257 36.4987 38.1139 36.5503C38.0611 34.7965 37.9287 33.0385 37.7513 31.2795C36.6632 27.6368 35.434 24.033 34.1076 20.4812C31.5825 13.7191 28.679 6.66922 24.3292 0.793932L21.3892 -0.963014C21.3249 -1.00305 21.2683 -1.05424 21.222 -1.11419C21.2369 -1.09431 21.2416 -1.07214 21.2582 -1.05236C27.0309 5.42878 30.4353 14.035 33.3687 22.0876C34.4158 24.9618 35.3914 27.8653 36.2957 30.798C28.8906 18.1522 18.2771 6.83264 7.14891 -2.48063L11.5546 -4.95902L15.6708 -7.27461L18.6509 -8.95056C18.7433 -9.00923 18.818 -9.09193 18.8669 -9.18981C18.9159 -9.28769 18.9373 -9.39705 18.9289 -9.50617C17.2754 -18.7759 12.5135 -27.8363 6.49578 -35.0924L17.1803 -39.9119C17.3073 -39.959 17.4163 -40.0447 17.4921 -40.1569C17.5679 -40.2692 17.6065 -40.4023 17.6027 -40.5377C17.2289 -48.1789 15.2839 -55.8051 13.1948 -63.1972L11.9218 -63.1263C12.591 -60.6544 13.2329 -58.1759 13.8253 -55.6876C14.5952 -52.4603 15.2939 -49.2118 15.7891 -45.9278C15.9801 -44.6666 15.9395 -43.2269 16.2619 -41.9937C16.3239 -41.747 16.2929 -41.0342 16.4476 -40.9203C16.2908 -40.8547 16.1092 -40.7997 16.0154 -40.7496C14.2458 -39.8641 12.4345 -39.0471 10.6152 -38.2486C8.84479 -37.4718 7.06652 -36.7118 5.31072 -35.9203C4.9875 -35.7746 4.7038 -35.3222 4.99 -34.9861C10.3035 -28.7245 14.6728 -21.0107 16.8595 -13.1063C17.0582 -12.3891 17.9796 -10.2834 17.8125 -9.90648C17.7173 -9.6941 16.9757 -9.43881 16.7734 -9.32227L12.5433 -6.9434L5.71653 -3.10148C5.6376 -3.04849 5.57174 -2.97824 5.52395 -2.89606C5.47616 -2.81387 5.44767 -2.7219 5.44065 -2.62709C5.43363 -2.53228 5.44826 -2.4371 5.48342 -2.34877C5.51859 -2.26044 5.57338 -2.18128 5.64364 -2.11723C18.3652 8.41535 30.4373 21.5398 37.9101 36.3304Z" fill="#1A1A1A"/>
<path id="Vector_9" d="M39.9333 1.36061L39.1821 0.793277C38.8054 1.06276 38.2513 1.2472 37.8567 1.44347L32.3825 4.1643L32.6364 4.32273C33.3219 4.73323 32.7575 5.84666 32.0666 5.43301L31.8275 5.29101C34.5598 13.6361 36.8685 22.4621 37.7516 31.2846C37.9289 33.0436 38.0613 34.8016 38.1141 36.5554C38.1215 36.6878 38.1289 36.8203 38.1362 36.9511C38.137 37.0305 38.155 37.1089 38.1887 37.1809C38.2225 37.2528 38.2714 37.3167 38.332 37.3681C38.6805 37.6766 39.4056 37.4964 39.3903 36.8812C39.1479 27.3845 36.8414 17.9164 34.2133 8.83903C33.8992 7.75553 33.7111 6.29917 33.154 5.31205C33.1283 5.25755 33.1073 5.20099 33.0911 5.14298C33.1898 5.10529 33.2906 5.07318 33.3929 5.0468C33.5629 5.00109 33.7321 4.9399 33.9016 4.88559C36.2068 4.13596 38.5648 2.47568 40.7041 1.41259C40.8154 1.34194 40.8971 1.23307 40.9338 1.10643C40.8928 1.19662 40.832 1.27644 40.756 1.33999C40.6799 1.40354 40.5906 1.4492 40.4946 1.4736C40.3985 1.498 40.2982 1.50052 40.2011 1.48096C40.1039 1.4614 40.0124 1.42027 39.9333 1.36061ZM32.9331 5.21909C32.8213 5.28744 32.8792 5.30492 32.9331 5.21909V5.21909Z" fill="#1A1A1A"/>
<path id="Vector_10" d="M39.1737 -27.9871L38.0527 -28.6875L31.4298 -26.2357L31.6665 -26.1074C32.378 -25.726 31.8049 -24.6138 31.0967 -24.9971L30.9188 -25.0925C33.9194 -19.7081 36.1723 -13.7729 37.8391 -7.85868C38.1805 -6.6444 38.4925 -5.42216 38.775 -4.19195C38.9487 -3.42852 39.1038 -2.65716 39.248 -1.89553C39.2773 -1.74185 39.514 -0.962949 39.6592 -0.399838L40.7616 0.430951C40.8287 0.481886 40.885 0.545605 40.9274 0.618442C40.2701 -3.64065 39.271 -7.8399 37.9398 -11.9386C36.464 -16.5293 34.5637 -20.9724 32.2634 -25.2105L34.0473 -25.8707L39.546 -27.9026C39.4157 -27.8836 39.2831 -27.9138 39.1737 -27.9871Z" fill="#1A1A1A"/>
<path id="Vector_11" d="M40.7651 0.430804L39.6627 -0.399985L32.3092 -5.95268L32.1849 -6.04757C31.5471 -6.52975 30.7118 -5.6014 31.3531 -5.11769L31.6756 -4.87335L39.1821 0.793342L39.9333 1.36068C40.012 1.41856 40.1025 1.45832 40.1983 1.47711C40.2941 1.49589 40.3929 1.49323 40.4876 1.46931C40.5823 1.4454 40.6705 1.40082 40.7459 1.33878C40.8213 1.27675 40.882 1.1988 40.9238 1.11051C40.9658 1.03553 40.9884 0.951251 40.9897 0.865307C40.9909 0.779363 40.9707 0.694459 40.9309 0.618293C40.8885 0.545457 40.8322 0.481738 40.7651 0.430804Z" fill="#1A1A1A"/>
<path id="Vector_12" d="M21.9569 -2.07835C21.8978 -2.11583 21.8317 -2.14109 21.7626 -2.15265C21.6935 -2.16421 21.6227 -2.16183 21.5546 -2.14567C21.4335 -2.11957 21.3251 -2.05259 21.2476 -1.956C21.2133 -1.91964 21.1837 -1.87915 21.1594 -1.83547C21.1163 -1.74924 21.0922 -1.65478 21.0886 -1.55844C21.085 -1.4621 21.1021 -1.36611 21.1387 -1.27693C21.1592 -1.22248 21.1882 -1.17166 21.2248 -1.12641C21.2711 -1.06646 21.3277 -1.01526 21.392 -0.97523L24.3258 0.794141L31.8238 5.28612L32.063 5.42811C32.7539 5.84176 33.3183 4.72832 32.6327 4.31783L32.3789 4.1594L23.0653 -1.41873L21.9569 -2.07835Z" fill="#1A1A1A"/>
</g>
</svg>
