<svg width="52" height="47" viewBox="0 0 52 47" fill="none" xmlns="http://www.w3.org/2000/svg">
<g id="Group">
<mask id="mask0_1_792" style="mask-type:alpha" maskUnits="userSpaceOnUse" x="14" y="0" width="25" height="26">
<g id="SVGID 147">
<g id="Group_2">
<path id="Vector" d="M16.0891 19.4091C19.5494 25.0939 27.2115 26.824 32.6492 23.1166C38.334 19.6562 40.0641 11.9941 36.3567 6.55645C32.8963 0.871632 25.2342 -0.858532 19.7965 2.84896C14.3589 6.30928 12.6287 13.7243 16.0891 19.4091Z" fill="url(#paint0_radial_1_792)"/>
</g>
</g>
</mask>
<g mask="url(#mask0_1_792)">
<path id="Vector_2" d="M16.0891 19.4091C19.5494 25.0939 27.2115 26.824 32.6492 23.1166C38.334 19.6562 40.0641 11.9941 36.3567 6.55645C32.8963 0.871632 25.2342 -0.858532 19.7965 2.84896C14.3589 6.30928 12.6287 13.7243 16.0891 19.4091Z" fill="url(#paint1_radial_1_792)"/>
</g>
<mask id="mask1_1_792" style="mask-type:alpha" maskUnits="userSpaceOnUse" x="18" y="11" width="25" height="25">
<g id="SVGID 150">
<g id="Group_3">
<path id="Vector_3" d="M20.5383 30.2843C23.9986 35.9691 31.6607 37.6993 37.0984 33.9918C42.7832 30.5315 44.5133 22.8693 40.8059 17.4317C37.0984 11.994 29.6834 10.0167 24.2458 13.7242C18.8081 17.1845 17.078 24.5995 20.5383 30.2843Z" fill="url(#paint2_radial_1_792)"/>
</g>
</g>
</mask>
<g mask="url(#mask1_1_792)">
<path id="Vector_4" d="M20.5383 30.2843C23.9986 35.9691 31.6607 37.6993 37.0984 33.9918C42.7832 30.5315 44.5133 22.8693 40.8059 17.4317C37.0984 11.994 29.6834 10.0167 24.2458 13.7242C18.8081 17.1845 17.078 24.5995 20.5383 30.2843Z" fill="url(#paint3_radial_1_792)"/>
</g>
<mask id="mask2_1_792" style="mask-type:alpha" maskUnits="userSpaceOnUse" x="9" y="18" width="25" height="25">
<g id="SVGID 153">
<g id="Group_4">
<path id="Vector_5" d="M11.1458 36.7106C14.6061 42.3955 22.2683 44.1256 27.7059 40.4181C33.3907 36.9578 35.1209 29.2957 31.4134 23.858C27.9531 18.1732 20.291 16.443 14.8533 20.1505C9.41566 23.6109 7.68549 31.0258 11.1458 36.7106Z" fill="url(#paint4_radial_1_792)"/>
</g>
</g>
</mask>
<g mask="url(#mask2_1_792)">
<path id="Vector_6" d="M11.1458 36.7106C14.6061 42.3955 22.2683 44.1256 27.7059 40.4181C33.3907 36.9578 35.1209 29.2957 31.4134 23.858C27.9531 18.1732 20.291 16.443 14.8533 20.1505C9.41566 23.6109 7.68549 31.0258 11.1458 36.7106Z" fill="url(#paint5_radial_1_792)"/>
</g>
<mask id="mask3_1_792" style="mask-type:alpha" maskUnits="userSpaceOnUse" x="8" y="4" width="44" height="43">
<g id="SVGID 156">
<g id="Group_5">
<path id="Vector_7" d="M12.1346 36.7107C18.3138 46.5973 31.4135 49.5633 41.3002 43.3841C51.1868 37.205 54.1528 24.1052 47.9736 14.2186C41.7945 4.33194 28.6947 1.36596 18.8081 7.5451C8.92145 13.7242 5.95546 26.824 12.1346 36.7107Z" fill="url(#paint6_radial_1_792)"/>
</g>
</g>
</mask>
<g mask="url(#mask3_1_792)">
<path id="Vector_8" d="M12.1346 36.7107C18.3138 46.5973 31.4135 49.5633 41.3002 43.3841C51.1868 37.205 54.1528 24.1052 47.9736 14.2186C41.7945 4.33194 28.6947 1.36596 18.8081 7.5451C8.92145 13.7242 5.95546 26.824 12.1346 36.7107Z" fill="url(#paint7_radial_1_792)"/>
</g>
<mask id="mask4_1_792" style="mask-type:alpha" maskUnits="userSpaceOnUse" x="0" y="12" width="23" height="24">
<g id="SVGID 159">
<g id="Group_6">
<path id="Vector_9" d="M1.75355 30.0372C4.9667 35.2277 12.1345 36.9578 17.325 33.7447C22.7626 30.2844 24.2456 23.3637 21.0325 17.9261C17.5722 12.7356 10.6515 11.2526 5.46104 14.4657C0.0233882 17.9261 -1.45961 24.8467 1.75355 30.0372Z" fill="url(#paint8_radial_1_792)"/>
</g>
</g>
</mask>
<g mask="url(#mask4_1_792)">
<path id="Vector_10" d="M1.75355 30.0372C4.9667 35.2277 12.1345 36.9578 17.325 33.7447C22.7626 30.2844 24.2456 23.3637 21.0325 17.9261C17.5722 12.7356 10.6515 11.2526 5.46104 14.4657C0.0233882 17.9261 -1.45961 24.8467 1.75355 30.0372Z" fill="url(#paint9_radial_1_792)"/>
<path id="Vector_11" d="M35.1208 30.2843C35.8623 29.79 36.3567 29.0485 36.6038 28.307C36.851 27.5655 36.851 26.824 36.851 26.0825C37.5925 25.5881 38.0868 25.0938 38.334 24.3523C39.5698 21.6335 37.3453 18.4203 33.1435 16.6902C32.1549 16.1958 30.919 15.9487 29.6832 15.7015C30.6719 14.96 31.6605 13.9713 32.402 13.2299C35.368 9.76953 35.6152 6.06204 33.3907 4.08471C32.6492 3.34322 31.9077 3.09605 31.1662 3.09605C30.919 2.10739 30.4247 1.61306 29.6832 1.11873C28.2002 -0.364268 25.9757 -0.117102 23.7512 1.11873C22.7625 1.86022 21.7739 2.60172 21.0324 3.59038C20.2909 4.57905 19.5494 5.56771 19.0551 6.55638C18.5607 5.32055 18.0664 4.33188 17.5721 3.34322C15.1004 -0.364271 11.6401 -1.84726 9.16843 -0.364267C8.42693 0.130065 7.9326 0.624395 7.43827 1.36589C6.69677 1.36589 5.95528 1.61306 5.21378 1.86022C2.74212 3.59038 2.74212 7.29787 4.96661 11.2525C5.46094 12.2412 6.20244 12.9827 7.1911 13.9713C5.95527 13.9713 4.71944 14.2185 3.73078 14.4657C2.49495 14.7128 1.25912 15.2072 0.270459 15.9487C-1.95403 17.1845 -2.9427 19.409 -2.44837 21.3863C-2.2012 22.1278 -1.95403 22.6222 -1.21253 23.3637C-1.4597 24.1052 -1.4597 24.8466 -1.21253 25.5881C-0.965369 27.0711 0.270458 28.0598 1.75345 28.5541C3.23645 29.0485 5.21378 29.2956 7.43827 28.5541C8.42693 28.307 9.41559 28.0598 10.6514 27.5655C10.4043 28.8013 10.1571 30.0371 10.1571 31.0258C9.66276 35.4748 11.6401 38.6879 14.6061 38.9351C15.3476 38.9351 16.0891 38.9351 16.8306 38.4408C17.5721 38.9351 18.3136 39.1823 19.0551 39.4294C20.0437 39.4294 20.7852 39.1823 21.5267 38.6879C23.2569 37.4521 24.4927 35.2276 24.7399 32.0145C24.7399 31.0258 24.7399 29.79 24.7399 28.5541C25.7285 29.2956 26.9644 29.79 27.953 30.2843C30.4247 31.273 33.1435 31.273 35.1208 30.2843Z" fill="url(#paint10_linear_1_792)"/>
<path id="Vector_12" d="M33.1437 4.08489C32.4022 3.59056 31.6607 3.09623 30.9192 3.09623C30.6721 2.35473 30.4249 1.61324 29.6834 1.11891C27.7061 -0.611255 23.9986 0.13024 21.0326 3.83773C20.2911 4.82639 19.5496 6.06222 18.8081 7.29805C18.8081 7.29805 18.8081 7.05089 19.0553 7.05089C18.5609 5.56789 18.0666 4.57923 17.3251 3.59056C14.8535 -0.364091 11.3931 -1.59992 9.16865 -0.116922C8.42715 0.130244 7.93282 0.87174 7.68566 1.61324C6.94416 1.61324 6.20267 1.8604 5.46117 2.10757C2.98951 3.59056 2.74234 7.29805 5.214 11.0055C5.9555 11.9942 6.69699 13.23 7.43849 14.2187C6.20266 14.2187 4.71967 14.4659 3.731 14.713C-0.717982 15.7017 -2.94248 18.6677 -2.20098 21.1393C-1.95381 21.8808 -1.45948 22.6223 -0.965144 23.1167C-1.21231 24.1053 -1.45948 24.8468 -1.21231 25.5883C-0.470812 28.3071 2.74234 29.543 7.19133 28.5543C8.42716 28.3072 9.66298 27.8128 10.8988 27.3185C10.4045 28.5543 10.1573 29.7901 10.1573 31.026C9.91015 35.7221 11.8875 38.6881 14.6063 38.9353C15.3478 38.9353 16.0893 38.6881 16.8308 38.441C17.5723 38.6881 18.3138 39.1824 19.0553 39.1824C21.7741 39.4296 24.2458 36.7108 24.4929 32.0146C24.4929 30.7788 24.4929 29.543 24.2458 28.3071C25.4816 29.0486 26.4703 29.543 27.7061 30.0373C31.9079 31.7675 35.3682 30.7788 36.6041 28.3071C36.8512 27.5656 36.8512 26.8242 36.6041 25.8355C37.3456 25.3412 37.8399 24.8468 38.087 24.1053C39.0757 21.6337 37.3456 18.4205 32.8966 16.6904C31.9079 16.196 30.6721 15.9489 29.1891 15.7017C30.1777 14.713 31.4136 13.9715 32.1551 12.9829C35.1211 9.27538 35.1211 5.81505 33.1437 4.08489Z" fill="url(#paint11_linear_1_792)"/>
<path id="Vector_13" d="M6.44968 22.6223C6.69685 22.6223 6.94401 22.3751 7.19118 22.128C8.17984 22.6223 9.66284 22.6223 11.1458 22.128C12.876 21.6336 15.5948 20.3978 16.8306 19.4092C16.0891 20.8921 15.3476 23.611 15.1005 25.5883C15.1005 27.3185 15.3477 28.5543 15.842 29.543C15.842 29.7901 15.5948 30.0373 15.5948 30.2844C15.5948 31.2731 16.3363 32.0146 17.0778 32.0146C18.0665 32.0146 18.808 31.2731 18.808 30.5316C18.808 30.2845 18.808 29.7901 18.5608 29.543C19.5495 28.8015 20.0438 27.5656 20.0438 25.8355C20.0438 24.1053 19.7966 21.6336 19.3023 19.9035C20.5381 21.1393 22.5155 22.6223 24.2456 23.1166C25.7286 23.611 27.2116 23.8581 28.2003 23.611C28.4474 23.8581 28.6946 24.1053 28.9418 24.3525C29.9304 24.5996 30.9191 24.3525 31.1663 23.3638C31.4134 22.3751 31.1663 21.3865 30.1776 21.1393C29.9304 21.1393 29.6833 20.8921 29.1889 21.1393C28.6946 20.1507 27.4588 19.4092 25.9758 18.6677C24.4928 17.9262 21.774 17.4318 20.0438 17.679C21.5268 16.9375 23.5041 15.2073 24.7399 13.9715C25.7286 12.7357 26.4701 11.2527 26.4701 10.264C26.7173 10.264 26.9644 10.0168 27.2116 9.76968C27.7059 9.02819 27.7059 8.03953 26.9644 7.29803C26.2229 6.8037 25.2343 6.8037 24.4928 7.54519C24.4928 7.79236 24.2456 8.03952 24.2456 8.53386C23.257 8.78102 22.0211 9.52252 21.0325 10.7584C19.7966 11.9942 18.5608 14.2187 18.3136 15.9488C18.0665 14.2187 17.0778 11.9942 16.0891 10.5112C15.3476 9.02819 14.1118 8.03953 13.1232 7.79236C13.1232 7.54519 13.1232 7.29803 12.876 6.8037C12.3817 6.0622 11.393 5.81503 10.6515 6.30937C9.91 6.8037 9.66283 7.79236 10.1572 8.53386C10.4043 8.78102 10.6515 9.02819 10.8987 9.27535C10.8987 10.264 11.1458 11.747 12.1345 13.23C12.6288 13.7243 13.1232 14.4658 13.6175 15.2073C14.8533 15.2073 16.0891 15.9488 16.3363 16.6903C16.3363 16.9375 16.8306 17.1847 17.0778 17.4318C15.5948 16.6903 12.3817 16.9375 10.1572 17.4318C8.67417 17.9262 7.19118 18.6677 6.69684 19.4092C6.44968 19.4092 6.20251 19.4092 5.70818 19.4092C4.71952 19.6563 4.22518 20.645 4.47235 21.6336C4.71951 22.3751 5.70818 22.8695 6.44968 22.6223ZM17.5721 18.9148C17.5721 18.6677 17.8193 18.4205 17.5721 18.1733C17.5721 18.1733 17.5721 17.9262 17.325 17.9262C17.5721 17.9262 17.5721 17.9262 17.8193 17.9262L18.0665 17.679C18.0665 17.679 18.0665 17.9262 18.3136 17.9262C18.3136 17.9262 18.5608 18.1733 18.808 18.1733C18.5608 18.1733 18.5608 18.4205 18.5608 18.4205C18.5608 18.6677 18.5608 18.6677 18.5608 18.9148C18.5608 18.9148 18.3136 18.6677 18.0665 18.6677C17.8193 18.6677 17.5721 18.6677 17.5721 18.9148Z" fill="url(#paint12_linear_1_792)"/>
</g>
<mask id="mask5_1_792" style="mask-type:alpha" maskUnits="userSpaceOnUse" x="17" y="12" width="20" height="21">
<g id="SVGID 165">
<g id="Group_7">
<path id="Vector_14" d="M19.0552 27.5656C22.0212 32.0146 27.9532 33.4976 32.4022 30.5316C36.8512 27.5656 38.3342 21.6337 35.3682 17.1847C32.6494 12.7357 26.4702 11.2527 22.0212 14.2187C17.5722 16.9375 16.0892 23.1167 19.0552 27.5656Z" fill="url(#paint13_radial_1_792)"/>
</g>
</g>
</mask>
<g mask="url(#mask5_1_792)">
<path id="Vector_15" d="M19.0552 27.5656C22.0212 32.0146 27.9532 33.4976 32.4022 30.5316C36.8512 27.5656 38.3342 21.6337 35.3682 17.1847C32.6494 12.7357 26.4702 11.2527 22.0212 14.2187C17.5722 16.9375 16.0892 23.1167 19.0552 27.5656Z" fill="url(#paint14_radial_1_792)"/>
</g>
<mask id="mask6_1_792" style="mask-type:alpha" maskUnits="userSpaceOnUse" x="9" y="18" width="19" height="18">
<g id="SVGID 168">
<g id="Group_8">
<path id="Vector_16" d="M11.146 31.7675C13.6177 35.7221 19.0553 37.2051 23.2571 34.4863C27.4589 32.0146 28.6948 26.3298 25.9759 22.3752C23.5043 18.1733 18.0666 16.9375 13.8648 19.4092C9.663 22.128 8.42718 27.5656 11.146 31.7675Z" fill="url(#paint15_radial_1_792)"/>
</g>
</g>
</mask>
<g mask="url(#mask6_1_792)">
<path id="Vector_17" d="M11.146 31.7675C13.6177 35.7221 19.0553 37.2051 23.2571 34.4863C27.4589 32.0146 28.6948 26.3298 25.9759 22.3752C23.5043 18.1733 18.0666 16.9375 13.8648 19.4092C9.663 22.128 8.42718 27.5656 11.146 31.7675Z" fill="url(#paint16_radial_1_792)"/>
</g>
<mask id="mask7_1_792" style="mask-type:alpha" maskUnits="userSpaceOnUse" x="14" y="6" width="17" height="16">
<g id="SVGID 171">
<g id="Group_9">
<path id="Vector_18" d="M15.842 18.1733C18.0665 21.8808 23.0098 22.8695 26.4701 20.645C30.1776 18.4205 31.1663 13.4772 28.9418 10.0169C26.7173 6.30937 21.774 5.32071 18.3137 7.5452C14.6062 9.76969 13.3703 14.713 15.842 18.1733Z" fill="url(#paint17_radial_1_792)"/>
</g>
</g>
</mask>
<g mask="url(#mask7_1_792)">
<path id="Vector_19" d="M15.842 18.1733C18.0665 21.8808 23.0098 22.8695 26.4701 20.645C30.1776 18.4205 31.1663 13.4772 28.9418 10.0169C26.7173 6.30937 21.774 5.32071 18.3137 7.5452C14.6062 9.76969 13.3703 14.713 15.842 18.1733Z" fill="url(#paint18_radial_1_792)"/>
<path id="Vector_20" d="M23.7514 30.0372C24.2457 29.79 24.4929 29.2957 24.7401 29.0485C25.2344 29.0485 25.7287 29.0485 26.223 28.5542C27.9532 27.5655 27.9532 25.0938 26.4702 22.6222C26.2231 21.8807 25.7287 21.3863 25.2344 20.892C25.9759 20.892 26.7174 20.6448 27.2117 20.6448C27.9532 20.3977 28.6947 20.1505 29.4362 19.6562C30.9192 18.6675 31.6607 17.4317 31.1664 16.1959C31.1664 15.7015 30.9192 15.2072 30.4249 14.96C30.672 14.4657 30.672 13.9714 30.4249 13.477C30.1777 11.4997 27.7061 10.7582 24.9872 11.2525C24.2457 11.4997 23.5042 11.7469 23.0099 11.994C23.2571 11.2525 23.2571 10.511 23.2571 9.76955C23.5042 6.80356 22.2684 4.82624 20.2911 4.57907C19.7967 4.57907 19.3024 4.57907 18.8081 4.82624C18.3137 4.82624 18.0666 4.57907 17.5722 4.57907C17.0779 4.57907 16.3364 4.57907 16.0893 5.0734C14.6063 5.56773 13.8648 7.29789 13.8648 9.27522C13.8648 10.0167 13.8648 10.7582 13.8648 11.4997C13.1233 11.0054 12.6289 10.511 11.8874 10.2639C9.91011 9.52238 8.17995 9.52238 7.19128 10.2639C6.69695 10.7582 6.20262 11.0054 6.20262 11.7469C5.95546 11.994 5.95546 12.4884 5.95546 12.9827C5.46112 13.477 5.21396 13.7242 4.96679 14.2185C4.71963 15.2072 4.71963 15.9487 5.46113 16.9374C5.95546 17.926 7.19128 18.6675 8.42711 19.1619C9.16861 19.409 9.66294 19.6562 10.6516 19.9033C9.91011 20.3977 9.41578 20.892 8.92144 21.3863C7.93278 22.6222 7.43845 23.6108 7.43845 24.8467C7.43845 25.8353 7.68562 26.824 8.42711 27.3183C8.67428 27.5655 9.16861 27.8127 9.66294 28.0598C9.91011 28.307 10.1573 28.8013 10.4044 29.0485C11.3931 30.0372 12.8761 29.79 14.3591 29.0485C14.8534 28.5542 15.5949 28.0598 16.0893 27.5655C16.5836 27.0712 17.0779 26.3297 17.3251 25.8353C17.5723 26.5768 17.8194 27.0712 18.3137 27.8127C20.0439 30.0371 22.2684 31.0258 23.7514 30.0372Z" fill="url(#paint19_linear_1_792)"/>
<path id="Vector_21" d="M8.42691 27.3183C8.92124 27.5655 9.16841 27.8127 9.9099 27.8127C9.9099 28.307 10.1571 28.8013 10.6514 29.0485C11.8872 30.0372 14.1117 29.5428 16.089 27.3183C16.5834 26.824 17.0777 26.0825 17.572 25.0938V25.341C17.8192 26.0825 18.3135 26.824 18.5607 27.5655C20.0437 30.0372 22.2682 30.7786 23.7512 30.0372C24.2455 29.79 24.4927 29.2956 24.7398 28.8013C25.2342 28.8013 25.7285 28.8013 26.2228 28.5542C27.7058 27.5655 27.953 25.341 26.47 22.8693C25.9757 22.1278 25.4813 21.3863 24.7398 20.6448C25.4813 20.6448 26.47 20.3977 27.2115 20.3977C30.1775 19.6562 31.4133 17.926 31.1662 16.1959C31.1662 15.7015 30.6718 15.2072 30.4247 14.96C30.6718 14.4657 30.6718 13.9714 30.4247 13.477C29.9303 11.7469 27.953 10.7582 24.987 11.4997C24.2455 11.7469 23.504 11.994 22.7625 12.2412C23.0097 11.4997 23.2569 10.511 23.2569 9.76955C23.504 6.80356 22.2682 4.82624 20.538 4.82624C20.0437 4.82624 19.5494 4.82624 19.055 5.0734C18.3135 4.82624 18.0664 4.82624 17.572 4.57907C15.8419 4.57907 14.1117 6.30923 13.8646 9.27522C13.8646 10.0167 13.8646 10.7582 13.8646 11.7469C13.3702 11.2525 12.6287 10.7582 11.8872 10.5111C9.16841 9.52239 6.94392 10.0167 6.20242 11.7469C5.95525 12.2412 5.95525 12.7355 6.20242 13.2299C5.70809 13.477 5.46092 13.7242 5.21376 14.2185C4.47226 15.9487 5.70809 17.926 8.42691 18.9147C9.16841 19.1619 9.9099 19.409 10.8986 19.6562C10.1571 20.3977 9.66274 20.892 9.16841 21.3863C7.19108 23.858 7.19108 26.0825 8.42691 27.3183Z" fill="url(#paint20_linear_1_792)"/>
<path id="Vector_22" d="M12.3815 25.0939C12.8759 25.5882 13.6174 25.3411 13.8645 24.8467C14.1117 24.8467 14.1117 24.5996 14.1117 24.3524C14.8532 24.1052 15.5947 23.6109 16.089 22.8694C17.0777 21.8807 18.0663 19.9034 18.0663 18.9147C18.0663 19.1619 18.0663 19.4091 18.3135 19.4091C18.8078 19.9034 18.8078 20.6449 18.5607 21.6336C18.8078 22.1279 19.055 22.6222 19.3022 23.1166C19.7965 24.1052 20.538 24.5996 21.2795 24.8467C21.2795 25.0939 21.2795 25.341 21.5267 25.341C21.7738 25.8354 22.2682 26.0825 22.7625 25.8354C23.2568 25.5882 23.504 24.8467 23.0097 24.3524C23.0097 24.1052 22.7625 24.1052 22.5153 23.8581C22.5153 23.1166 22.2682 22.3751 21.7738 21.3864C21.5267 20.3977 20.2908 19.4091 19.3022 18.6676C20.2908 18.9147 22.021 18.6676 23.0097 18.4204C23.9983 18.1732 24.7398 17.6789 25.2341 17.1846C25.4813 17.1846 25.7285 17.1846 25.7285 17.1846C26.47 17.1846 26.9643 16.6902 26.7171 15.9487C26.7171 15.4544 25.9756 14.9601 25.4813 15.2072C25.2342 15.2072 25.2342 15.4544 24.987 15.4544C24.2455 15.2072 23.504 15.2072 22.5153 15.4544C21.2795 15.7016 19.7965 16.4431 19.055 17.1846C19.5493 16.1959 20.0437 14.7129 20.0437 13.4771C20.0437 12.4884 19.7965 11.4998 19.5493 11.0054C19.5493 10.7583 19.7965 10.7583 19.7965 10.5111C19.7965 10.0168 19.3022 9.27527 18.8078 9.27527C18.3135 9.27527 17.8192 9.7696 17.572 10.2639C17.572 10.5111 17.572 10.7583 17.572 10.7583C17.0777 11.2526 16.8305 12.2413 16.8305 13.2299C16.8305 14.2186 16.8305 15.9488 17.3248 16.9374C16.5833 16.1959 15.1003 15.2072 14.1117 14.7129C13.123 14.4658 12.3815 14.4658 11.64 14.4658C11.64 14.2186 11.3929 14.2186 11.1457 14.2186C10.6514 13.9714 9.90987 14.2186 9.6627 14.7129C9.41553 15.2072 9.6627 15.9487 10.157 16.1959C10.4042 16.1959 10.6514 16.1959 10.6514 16.1959C10.8985 16.6902 11.64 17.4317 12.6287 17.6789C14.1117 18.1732 15.8418 18.6676 17.0777 18.4204C16.089 18.9147 14.606 19.9034 13.8645 20.8921C13.123 21.6336 12.6287 22.6222 12.6287 23.1166C12.3815 23.1166 12.3815 23.3637 12.1344 23.3637C11.8872 24.1052 11.8872 24.5996 12.3815 25.0939ZM17.8192 17.9261V17.6789H18.0663H18.3135V17.9261V18.1732H18.0663C18.0663 18.1732 18.0663 18.1732 17.8192 18.4204C17.8192 18.4204 17.8192 18.1732 17.572 18.1732C17.572 18.1732 17.3248 18.1732 17.0777 18.1732C17.572 18.1732 17.8192 18.1732 17.8192 17.9261Z" fill="url(#paint21_linear_1_792)"/>
</g>
<mask id="mask8_1_792" style="mask-type:alpha" maskUnits="userSpaceOnUse" x="17" y="16" width="12" height="12">
<g id="SVGID 177">
<g id="Group_10">
<path id="Vector_23" d="M18.0667 25.0939C19.7968 27.8128 23.2572 28.5543 26.2231 26.8241C28.942 25.0939 29.6835 21.6336 27.9533 18.9148C26.4703 16.196 22.7628 15.2073 20.044 16.9375C17.3252 18.6676 16.3365 22.3751 18.0667 25.0939Z" fill="url(#paint22_radial_1_792)"/>
</g>
</g>
</mask>
<g mask="url(#mask8_1_792)">
<path id="Vector_24" d="M18.0667 25.0939C19.7968 27.8128 23.2572 28.5543 26.2231 26.8241C28.942 25.0939 29.6835 21.6336 27.9533 18.9148C26.4703 16.196 22.7628 15.2073 20.044 16.9375C17.3252 18.6676 16.3365 22.3751 18.0667 25.0939Z" fill="url(#paint23_radial_1_792)"/>
</g>
<mask id="mask9_1_792" style="mask-type:alpha" maskUnits="userSpaceOnUse" x="19" y="12" width="10" height="10">
<g id="SVGID 180">
<g id="Group_11">
<path id="Vector_25" d="M19.7966 19.6563C21.0325 21.6336 23.9985 22.3751 25.9758 20.8921C28.2003 19.6563 28.6946 16.6903 27.4588 14.713C26.2229 12.7357 23.257 11.9942 21.2796 13.23C19.0551 14.713 18.5608 17.4318 19.7966 19.6563Z" fill="url(#paint24_radial_1_792)"/>
</g>
</g>
</mask>
<g mask="url(#mask9_1_792)">
<path id="Vector_26" d="M19.7966 19.6563C21.0325 21.6336 23.9985 22.3751 25.9758 20.8921C28.2003 19.6563 28.6946 16.6903 27.4588 14.713C26.2229 12.7357 23.257 11.9942 21.2796 13.23C19.0551 14.713 18.5608 17.4318 19.7966 19.6563Z" fill="url(#paint25_radial_1_792)"/>
</g>
<mask id="mask10_1_792" style="mask-type:alpha" maskUnits="userSpaceOnUse" x="9" y="15" width="13" height="12">
<g id="SVGID 183">
<g id="Group_12">
<path id="Vector_27" d="M10.6514 24.1052C12.3816 26.8241 16.0891 27.5655 18.8079 25.8354C21.5267 24.1052 22.2682 20.6449 20.5381 17.9261C18.8079 15.2073 15.3476 14.2186 12.3816 15.9488C9.66277 17.6789 8.92127 21.3864 10.6514 24.1052Z" fill="url(#paint26_radial_1_792)"/>
</g>
</g>
</mask>
<g mask="url(#mask10_1_792)">
<path id="Vector_28" d="M10.6514 24.1052C12.3816 26.8241 16.0891 27.5655 18.8079 25.8354C21.5267 24.1052 22.2682 20.6449 20.5381 17.9261C18.8079 15.2073 15.3476 14.2186 12.3816 15.9488C9.66277 17.6789 8.92127 21.3864 10.6514 24.1052Z" fill="url(#paint27_radial_1_792)"/>
<path id="Vector_29" d="M24.9872 23.1166C25.2344 22.8694 25.4815 22.6222 25.7287 22.1279C25.7287 21.8807 25.9759 21.6336 25.7287 21.1392C26.223 20.8921 26.223 20.6449 26.4702 20.3977C26.9645 19.1619 25.9759 17.9261 24.2457 17.1846C23.7514 16.9374 23.5042 16.9374 23.0099 16.6903C23.257 16.4431 23.7514 15.9488 23.9985 15.7016C25.2344 14.2186 25.4815 12.4884 24.4929 11.7469C23.9985 11.7469 23.7514 11.4998 23.5042 11.4998C23.5042 11.2526 23.257 11.0054 23.0099 10.7583C22.2684 10.264 21.2797 10.264 20.291 10.7583C19.7967 11.0054 19.3024 11.2526 19.0552 11.7469C18.808 11.9941 18.5609 12.4884 18.3137 12.7356C18.0666 12.4884 17.8194 11.9941 17.8194 11.7469C16.5836 10.0168 15.1006 9.27528 14.1119 10.0168C13.8647 10.2639 13.6176 10.5111 13.3704 10.7583C13.1232 10.7583 12.6289 10.7583 12.3817 11.0054C11.3931 11.7469 11.3931 13.4771 12.3817 14.9601C12.6289 15.4544 12.8761 15.7016 13.1232 15.9488C12.6289 15.9488 12.1346 15.9488 11.8874 16.1959C11.3931 16.1959 10.8987 16.4431 10.4044 16.6903C9.41574 17.4318 8.92141 18.4204 9.16858 19.1619C9.16858 19.4091 9.41574 19.6563 9.66291 19.9034C9.66291 20.1506 9.66291 20.6449 9.66291 20.8921C9.91007 21.3864 10.1572 21.8807 10.8987 22.1279C11.6402 22.3751 12.3817 22.3751 13.3704 22.1279C13.8647 22.1279 14.1119 21.8807 14.6062 21.6336C14.6062 22.1279 14.3591 22.6222 14.3591 22.8694C14.3591 23.8581 14.3591 24.5996 14.8534 25.3411C15.1006 26.0826 15.8421 26.3297 16.3364 26.3297C16.5836 26.3297 17.0779 26.3297 17.3251 26.0826C17.5722 26.3297 17.8194 26.3297 18.3137 26.3297C18.5609 26.3297 19.0552 26.3297 19.3024 26.0826C20.0439 25.5882 20.5382 24.5996 20.7854 23.1166C20.7854 22.6222 20.7854 22.3751 20.7854 21.8807C21.0325 22.6222 21.5269 22.8694 21.774 23.1166C23.0099 23.3637 24.2457 23.3637 24.9872 23.1166Z" fill="url(#paint28_linear_1_792)"/>
<path id="Vector_30" d="M24.2456 11.9942C23.9984 11.747 23.5041 11.747 23.2569 11.4999C23.2569 11.2527 23.0097 11.0055 22.7626 10.7584C21.7739 10.0169 20.2909 10.264 19.0551 11.747C18.8079 12.2414 18.5608 12.7357 18.3136 13.23C18.0664 12.7357 17.8193 12.2414 17.5721 11.747C16.5834 10.0169 15.1004 9.52253 14.1118 10.264C13.8646 10.264 13.6174 10.7584 13.6174 11.0055C13.3703 11.0055 12.8759 11.0055 12.6288 11.2527C11.6401 11.747 11.6401 13.4772 12.6288 14.9602C12.8759 15.4545 13.1231 15.7017 13.6174 16.196C13.1231 16.196 12.6288 16.196 12.1344 16.4432C10.1571 16.9375 9.16846 17.9262 9.41562 19.162C9.41562 19.4092 9.66279 19.6563 9.90995 19.9035C9.90995 20.1507 9.90995 20.645 9.90995 20.8922C10.1571 21.8808 11.6401 22.6223 13.3703 22.128C13.8646 22.128 14.3589 21.8808 14.8533 21.6337C14.6061 22.128 14.6061 22.8695 14.6061 23.1167C14.6061 25.094 15.3476 26.3298 16.5834 26.3298C16.8306 26.3298 17.3249 26.3298 17.5721 26.0827C17.8193 26.3298 18.0664 26.3298 18.5608 26.3298C19.7966 26.3298 20.7853 25.3412 20.7853 23.3638C20.7853 22.8695 20.7853 22.3752 20.7853 21.8808C21.0324 22.3752 21.5268 22.6223 22.0211 22.8695C23.7512 23.611 25.2342 23.1167 25.7286 22.128C25.7286 21.8808 25.9757 21.3865 25.7286 21.1393C25.9757 20.8922 26.2229 20.645 26.2229 20.3978C26.7172 19.4092 25.9757 17.9262 23.9984 17.4318C23.7512 17.1847 23.0097 16.9375 22.5154 16.9375C23.0097 16.4432 23.5041 15.9488 23.7512 15.7017C24.9871 14.2187 24.9871 12.7357 24.2456 11.9942Z" fill="url(#paint29_linear_1_792)"/>
<path id="Vector_31" d="M13.1231 19.9034C13.1231 19.9034 13.3703 19.9034 13.3703 19.6563C13.8646 19.9034 14.359 19.9034 15.1004 19.6563C15.8419 19.4091 16.8306 18.9148 17.5721 18.4204C17.0778 18.9148 16.8306 20.1506 16.5834 20.8921C16.5834 21.6336 16.5834 22.1279 16.8306 22.6223V22.8694C16.8306 23.3638 17.0778 23.6109 17.5721 23.6109C18.0664 23.6109 18.3136 23.3638 18.3136 22.8694V22.6223C18.5608 22.3751 18.8079 21.6336 18.8079 21.1393C18.8079 20.3978 18.8079 19.4091 18.5608 18.6676C19.0551 19.1619 20.0438 19.6563 20.5381 19.9034C21.2796 20.1506 21.7739 20.1506 22.2683 20.1506L22.5154 20.3978C22.7626 20.6449 23.2569 20.3978 23.5041 19.9034C23.7513 19.6563 23.5041 19.1619 23.0098 18.9148C22.7626 18.9148 22.7626 18.9148 22.5154 18.9148C22.2683 18.6676 21.7739 18.4204 21.2796 18.1733C20.5381 17.9261 19.5494 17.6789 18.8079 17.6789C19.5494 17.4318 20.2909 16.6903 20.7853 16.1959C21.2796 15.7016 21.5268 15.2073 21.5268 14.7129C21.5268 14.7129 21.7739 14.7129 21.7739 14.4658C22.0211 14.2186 22.0211 13.7243 21.7739 13.4771C21.5268 13.23 21.0324 13.23 20.7853 13.4771L20.5381 13.7243C20.0438 13.7243 19.5494 14.2186 19.0551 14.7129C18.5608 15.2073 18.0664 16.1959 17.8193 16.9374C17.8193 16.1959 17.3249 15.2073 17.0778 14.7129C16.8306 13.9714 16.3363 13.7243 15.842 13.4771V13.23C15.5948 12.7356 15.1005 12.7356 14.8533 12.9828C14.359 12.9828 14.359 13.4771 14.6061 13.9714L14.8533 14.2186C14.8533 14.7129 15.1005 15.2073 15.3476 15.7016C15.5948 15.9488 15.5948 16.1959 15.842 16.4431C16.5834 16.4431 17.0778 16.6903 17.0778 17.1846C17.0778 17.4318 17.3249 17.4318 17.3249 17.4318C16.8306 17.1846 15.3476 17.1846 14.359 17.4318C13.8646 17.6789 13.3703 18.1733 13.1231 18.4204C13.1231 18.4204 12.876 18.4204 12.6288 18.4204C12.1345 18.4204 12.1345 18.9148 12.1345 19.1619C12.3816 19.6563 12.6288 19.9034 13.1231 19.9034ZM17.5721 18.1733V17.9261C17.5721 17.9261 17.5721 17.9261 17.5721 17.6789C17.5721 17.6789 17.5721 17.6789 17.8193 17.6789C17.8193 17.6789 17.8193 17.6789 17.8193 17.4318C17.8193 17.4318 17.8193 17.4318 17.8193 17.6789C17.8193 17.6789 17.8193 17.6789 18.0664 17.6789C18.0664 17.6789 18.0664 17.6789 18.0664 17.9261C18.0664 17.9261 18.0664 17.9261 18.0664 18.1733C18.0664 18.1733 18.0664 18.1733 17.8193 18.1733C17.8193 17.9261 17.8193 18.1733 17.5721 18.1733Z" fill="url(#paint30_linear_1_792)"/>
</g>
</g>
<defs>
<radialGradient id="paint0_radial_1_792" cx="0" cy="0" r="1" gradientUnits="userSpaceOnUse" gradientTransform="translate(26.3457 12.9347) rotate(147.902) scale(12.0872)">
<stop stop-color="white"/>
<stop offset="0.1506" stop-color="#FAFAFA"/>
<stop offset="0.3375" stop-color="#EAEAEA"/>
<stop offset="0.5435" stop-color="#D1D1D1"/>
<stop offset="0.7632" stop-color="#AEAEAE"/>
<stop offset="0.9917" stop-color="#818181"/>
<stop offset="1" stop-color="#808080"/>
</radialGradient>
<radialGradient id="paint1_radial_1_792" cx="0" cy="0" r="1" gradientUnits="userSpaceOnUse" gradientTransform="translate(26.3457 12.9347) rotate(147.902) scale(12.0872)">
<stop stop-color="#FFC3C3"/>
<stop offset="0.2359" stop-color="#FFC8C8"/>
<stop offset="0.5284" stop-color="#FFD8D8"/>
<stop offset="0.8496" stop-color="#FFF1F1"/>
<stop offset="1" stop-color="white"/>
</radialGradient>
<radialGradient id="paint2_radial_1_792" cx="0" cy="0" r="1" gradientUnits="userSpaceOnUse" gradientTransform="translate(30.7956 23.9362) rotate(147.902) scale(12.0798 12.0798)">
<stop stop-color="white"/>
<stop offset="0.1506" stop-color="#FAFAFA"/>
<stop offset="0.3375" stop-color="#EAEAEA"/>
<stop offset="0.5435" stop-color="#D1D1D1"/>
<stop offset="0.7632" stop-color="#AEAEAE"/>
<stop offset="0.9917" stop-color="#818181"/>
<stop offset="1" stop-color="#808080"/>
</radialGradient>
<radialGradient id="paint3_radial_1_792" cx="0" cy="0" r="1" gradientUnits="userSpaceOnUse" gradientTransform="translate(30.7956 23.9362) rotate(147.902) scale(12.0798 12.0798)">
<stop stop-color="#FFC3C3"/>
<stop offset="0.2359" stop-color="#FFC8C8"/>
<stop offset="0.5284" stop-color="#FFD8D8"/>
<stop offset="0.8496" stop-color="#FFF1F1"/>
<stop offset="1" stop-color="white"/>
</radialGradient>
<radialGradient id="paint4_radial_1_792" cx="0" cy="0" r="1" gradientUnits="userSpaceOnUse" gradientTransform="translate(21.4276 30.2323) rotate(147.902) scale(12.0823 12.0823)">
<stop stop-color="white"/>
<stop offset="0.1506" stop-color="#FAFAFA"/>
<stop offset="0.3375" stop-color="#EAEAEA"/>
<stop offset="0.5435" stop-color="#D1D1D1"/>
<stop offset="0.7632" stop-color="#AEAEAE"/>
<stop offset="0.9917" stop-color="#818181"/>
<stop offset="1" stop-color="#808080"/>
</radialGradient>
<radialGradient id="paint5_radial_1_792" cx="0" cy="0" r="1" gradientUnits="userSpaceOnUse" gradientTransform="translate(21.4276 30.2323) rotate(147.902) scale(12.0823 12.0823)">
<stop stop-color="#FFC3C3"/>
<stop offset="0.2359" stop-color="#FFC8C8"/>
<stop offset="0.5284" stop-color="#FFD8D8"/>
<stop offset="0.8496" stop-color="#FFF1F1"/>
<stop offset="1" stop-color="white"/>
</radialGradient>
<radialGradient id="paint6_radial_1_792" cx="0" cy="0" r="1" gradientUnits="userSpaceOnUse" gradientTransform="translate(30.0963 25.4777) rotate(147.902) scale(21.0822 21.0822)">
<stop stop-color="white"/>
<stop offset="0.1506" stop-color="#FAFAFA"/>
<stop offset="0.3375" stop-color="#EAEAEA"/>
<stop offset="0.5435" stop-color="#D1D1D1"/>
<stop offset="0.7632" stop-color="#AEAEAE"/>
<stop offset="0.9917" stop-color="#818181"/>
<stop offset="1" stop-color="#808080"/>
</radialGradient>
<radialGradient id="paint7_radial_1_792" cx="0" cy="0" r="1" gradientUnits="userSpaceOnUse" gradientTransform="translate(30.0963 25.4777) rotate(147.902) scale(21.0822 21.0822)">
<stop stop-color="#FFC3C3"/>
<stop offset="0.2359" stop-color="#FFC8C8"/>
<stop offset="0.5284" stop-color="#FFD8D8"/>
<stop offset="0.8496" stop-color="#FFF1F1"/>
<stop offset="1" stop-color="white"/>
</radialGradient>
<radialGradient id="paint8_radial_1_792" cx="0" cy="0" r="1" gradientUnits="userSpaceOnUse" gradientTransform="translate(11.3821 24.0742) rotate(147.902) scale(11.3333)">
<stop stop-color="white"/>
<stop offset="0.1506" stop-color="#FAFAFA"/>
<stop offset="0.3375" stop-color="#EAEAEA"/>
<stop offset="0.5435" stop-color="#D1D1D1"/>
<stop offset="0.7632" stop-color="#AEAEAE"/>
<stop offset="0.9917" stop-color="#818181"/>
<stop offset="1" stop-color="#808080"/>
</radialGradient>
<radialGradient id="paint9_radial_1_792" cx="0" cy="0" r="1" gradientUnits="userSpaceOnUse" gradientTransform="translate(11.3821 24.0742) rotate(147.902) scale(11.3333)">
<stop stop-color="#FFC3C3"/>
<stop offset="0.2359" stop-color="#FFC8C8"/>
<stop offset="0.5284" stop-color="#FFD8D8"/>
<stop offset="0.8496" stop-color="#FFF1F1"/>
<stop offset="1" stop-color="white"/>
</radialGradient>
<linearGradient id="paint10_linear_1_792" x1="31.8728" y1="27.8678" x2="1.09306" y2="4.30245" gradientUnits="userSpaceOnUse">
<stop stop-color="#FA667E"/>
<stop offset="1" stop-color="white"/>
</linearGradient>
<linearGradient id="paint11_linear_1_792" x1="17.1295" y1="35.006" x2="19.534" y2="-1.87386" gradientUnits="userSpaceOnUse">
<stop stop-color="#FA667E"/>
<stop offset="1" stop-color="#FFC3C3"/>
</linearGradient>
<linearGradient id="paint12_linear_1_792" x1="18.2488" y1="25.776" x2="16.3121" y2="8.58692" gradientUnits="userSpaceOnUse">
<stop stop-color="#FA667E"/>
<stop offset="1" stop-color="#FFC3C3"/>
</linearGradient>
<radialGradient id="paint13_radial_1_792" cx="0" cy="0" r="1" gradientUnits="userSpaceOnUse" gradientTransform="translate(27.1862 22.4246) rotate(147.902) scale(9.70191)">
<stop stop-color="white"/>
<stop offset="0.2028" stop-color="#E3E3E3"/>
<stop offset="0.7468" stop-color="#9C9C9C"/>
<stop offset="1" stop-color="#808080"/>
</radialGradient>
<radialGradient id="paint14_radial_1_792" cx="0" cy="0" r="1" gradientUnits="userSpaceOnUse" gradientTransform="translate(27.1862 22.4246) rotate(147.902) scale(9.70191)">
<stop stop-color="#FA667E"/>
<stop offset="0.3243" stop-color="#FC9CAB"/>
<stop offset="0.7852" stop-color="#FEE3E7"/>
<stop offset="1" stop-color="white"/>
</radialGradient>
<radialGradient id="paint15_radial_1_792" cx="0" cy="0" r="1" gradientUnits="userSpaceOnUse" gradientTransform="translate(18.5941 26.9941) rotate(147.902) scale(8.8343)">
<stop stop-color="white"/>
<stop offset="0.2028" stop-color="#E3E3E3"/>
<stop offset="0.7468" stop-color="#9C9C9C"/>
<stop offset="1" stop-color="#808080"/>
</radialGradient>
<radialGradient id="paint16_radial_1_792" cx="0" cy="0" r="1" gradientUnits="userSpaceOnUse" gradientTransform="translate(18.5941 26.9941) rotate(147.902) scale(8.8343)">
<stop stop-color="#FA667E"/>
<stop offset="0.3243" stop-color="#FC9CAB"/>
<stop offset="0.7852" stop-color="#FEE3E7"/>
<stop offset="1" stop-color="white"/>
</radialGradient>
<radialGradient id="paint17_radial_1_792" cx="0" cy="0" r="1" gradientUnits="userSpaceOnUse" gradientTransform="translate(22.3663 14.0799) rotate(147.902) scale(7.77883 7.77883)">
<stop stop-color="white"/>
<stop offset="0.2028" stop-color="#E3E3E3"/>
<stop offset="0.7468" stop-color="#9C9C9C"/>
<stop offset="1" stop-color="#808080"/>
</radialGradient>
<radialGradient id="paint18_radial_1_792" cx="0" cy="0" r="1" gradientUnits="userSpaceOnUse" gradientTransform="translate(22.3663 14.0799) rotate(147.902) scale(7.77883 7.77883)">
<stop stop-color="#FA667E"/>
<stop offset="0.3243" stop-color="#FC9CAB"/>
<stop offset="0.7852" stop-color="#FEE3E7"/>
<stop offset="1" stop-color="white"/>
</radialGradient>
<linearGradient id="paint19_linear_1_792" x1="28.118" y1="26.3891" x2="7.0251" y2="10.2427" gradientUnits="userSpaceOnUse">
<stop stop-color="#FA667E"/>
<stop offset="1" stop-color="white"/>
</linearGradient>
<linearGradient id="paint20_linear_1_792" x1="17.3545" y1="27.3687" x2="18.8932" y2="3.73824" gradientUnits="userSpaceOnUse">
<stop stop-color="#FFC3C3"/>
<stop offset="1" stop-color="#FA667E"/>
</linearGradient>
<linearGradient id="paint21_linear_1_792" x1="18.9842" y1="22.2823" x2="17.7438" y2="11.2636" gradientUnits="userSpaceOnUse">
<stop stop-color="#FFC3C3"/>
<stop offset="1" stop-color="#FA667E"/>
</linearGradient>
<radialGradient id="paint22_radial_1_792" cx="0" cy="0" r="1" gradientUnits="userSpaceOnUse" gradientTransform="translate(23.1099 21.9031) rotate(147.902) scale(5.84092 5.84092)">
<stop stop-color="white"/>
<stop offset="0.2028" stop-color="#E3E3E3"/>
<stop offset="0.7468" stop-color="#9C9C9C"/>
<stop offset="1" stop-color="#808080"/>
</radialGradient>
<radialGradient id="paint23_radial_1_792" cx="0" cy="0" r="1" gradientUnits="userSpaceOnUse" gradientTransform="translate(23.1099 21.9031) rotate(147.902) scale(5.84092 5.84092)">
<stop stop-color="#FA667E"/>
<stop offset="0.3243" stop-color="#FC9CAB"/>
<stop offset="0.7852" stop-color="#FEE3E7"/>
<stop offset="1" stop-color="white"/>
</radialGradient>
<radialGradient id="paint24_radial_1_792" cx="0" cy="0" r="1" gradientUnits="userSpaceOnUse" gradientTransform="translate(23.6475 17.1366) rotate(147.902) scale(4.52096)">
<stop stop-color="white"/>
<stop offset="0.2028" stop-color="#E3E3E3"/>
<stop offset="0.7468" stop-color="#9C9C9C"/>
<stop offset="1" stop-color="#808080"/>
</radialGradient>
<radialGradient id="paint25_radial_1_792" cx="0" cy="0" r="1" gradientUnits="userSpaceOnUse" gradientTransform="translate(23.6475 17.1366) rotate(147.902) scale(4.52096)">
<stop stop-color="#FA667E"/>
<stop offset="0.3243" stop-color="#FC9CAB"/>
<stop offset="0.7852" stop-color="#FEE3E7"/>
<stop offset="1" stop-color="white"/>
</radialGradient>
<radialGradient id="paint26_radial_1_792" cx="0" cy="0" r="1" gradientUnits="userSpaceOnUse" gradientTransform="translate(15.6074 20.9395) rotate(147.902) scale(5.83598)">
<stop stop-color="white"/>
<stop offset="0.2028" stop-color="#E3E3E3"/>
<stop offset="0.7468" stop-color="#9C9C9C"/>
<stop offset="1" stop-color="#808080"/>
</radialGradient>
<radialGradient id="paint27_radial_1_792" cx="0" cy="0" r="1" gradientUnits="userSpaceOnUse" gradientTransform="translate(15.6074 20.9395) rotate(147.902) scale(5.83598)">
<stop stop-color="#FA667E"/>
<stop offset="0.3243" stop-color="#FC9CAB"/>
<stop offset="0.7852" stop-color="#FEE3E7"/>
<stop offset="1" stop-color="white"/>
</radialGradient>
<linearGradient id="paint28_linear_1_792" x1="23.7085" y1="21.9596" x2="10.7265" y2="12.0177" gradientUnits="userSpaceOnUse">
<stop stop-color="#FA667E"/>
<stop offset="1" stop-color="white"/>
</linearGradient>
<linearGradient id="paint29_linear_1_792" x1="17.4895" y1="24.9075" x2="18.4931" y2="9.49775" gradientUnits="userSpaceOnUse">
<stop stop-color="#FA667E"/>
<stop offset="1" stop-color="#FFC3C3"/>
</linearGradient>
<linearGradient id="paint30_linear_1_792" x1="17.9666" y1="21.0347" x2="17.1577" y2="13.8633" gradientUnits="userSpaceOnUse">
<stop stop-color="#FA667E"/>
<stop offset="1" stop-color="#FFC3C3"/>
</linearGradient>
</defs>
</svg>
