<svg width="134" height="51" viewBox="0 0 134 51" fill="none" xmlns="http://www.w3.org/2000/svg">
<g id="Group 11">
<path id="Vector" d="M61.9381 47.0532C64.1328 46.2238 66.3772 45.5323 68.6581 44.9828C68.2706 46.0742 67.8702 47.163 67.4569 48.2492L60.1361 50.7949C60.7698 49.4823 61.3796 48.2169 61.9381 47.0532Z" fill="#FFE761"/>
<path id="Vector_2" d="M59.4993 52.18C61.9888 51.314 64.4778 50.4475 66.9661 49.5804C66.4991 50.767 65.9882 51.9369 65.4914 53.1106C63.0039 54.1934 60.4727 55.1446 57.8991 56.0014C58.4542 54.7333 58.9776 53.4575 59.4993 52.18Z" fill="#FFE761"/>
<path id="Vector_3" d="M65.22 40.2799C65.371 40.4364 65.5364 40.5756 65.6874 40.7286C65.4225 40.8139 65.1397 40.9096 64.8675 41.0019L65.22 40.2799Z" fill="#FFE761"/>
<path id="Vector_4" d="M64.1938 42.3774C64.853 42.1584 65.5147 41.9382 66.1787 41.7168C66.2928 41.6731 66.3877 41.5903 66.4463 41.483C67.189 42.2531 67.8958 43.0544 68.6044 43.8504C66.5727 44.3406 64.5699 44.9435 62.6052 45.6563C63.1889 44.4683 63.7271 43.3519 64.1938 42.3774Z" fill="#FFE761"/>
<path id="Vector_5" d="M77.9394 44.4915C80.2775 47.2594 82.4076 50.1963 84.3125 53.2783C84.3907 53.4167 84.5037 53.5323 84.6403 53.6136C84.7768 53.695 84.9322 53.7395 85.0911 53.7425C85.2501 53.7456 85.407 53.7072 85.5466 53.6311C85.6862 53.555 85.8035 53.4439 85.8871 53.3086C90.3858 45.6257 91.9493 35.8283 93.7509 27.232C94.9856 21.3392 96.0822 15.4196 97.0409 9.47344C102.021 15.2208 106.964 21.07 111.365 27.2612C112.338 28.6295 113.818 30.3517 114.186 32.0873C109.118 43.5042 93.2504 76.3234 87.4611 83.4278C87.2748 83.3679 87.0528 83.1269 86.5389 82.612C85.0403 81.1193 83.9066 79.1913 82.8059 77.3982C81.0115 74.4752 79.3657 71.4471 77.8426 68.3735C77.5493 67.7813 76.5726 67.73 76.2662 68.345C73.5088 73.8832 69.6014 79.0788 65.4618 84.0157L56.7387 74.9707C62.7891 63.9994 68.285 52.6008 71.9655 40.7062L77.9394 44.4915ZM96.7837 58.799C94.1967 64.188 91.2514 69.3976 87.9677 74.3926C87.3226 75.3621 88.8863 76.285 89.5297 75.3172C92.8134 70.3222 95.7586 65.1126 98.3456 59.7236C98.8418 58.679 97.2906 57.7475 96.7837 58.799ZM98.1132 55.2803L98.2711 55.444C99.0797 56.2825 100.382 55.0262 99.5738 54.1877L99.4159 54.024C98.6072 53.1855 97.3099 54.4402 98.1168 55.2768L98.1132 55.2803Z" fill="#FFE761"/>
<path id="Vector_6" d="M88.5774 9.8115C89.353 10.7166 90.116 11.6337 90.8862 12.544L87.9396 13.6875C88.1551 12.3961 88.3677 11.1041 88.5774 9.8115Z" fill="#FFE761"/>
<path id="Vector_7" d="M83.1245 43.7139C82.5755 43.9621 81.6924 44.206 81.0277 44.6005C81.4315 43.2873 81.781 41.9536 82.1515 40.6273C84.853 39.3451 87.4776 37.9218 90.0371 36.3771C89.6669 38.0144 89.255 39.6399 88.8014 41.2534C88.7167 41.2483 88.6359 41.2186 88.5414 41.2611L83.1245 43.7139Z" fill="#FFE761"/>
<path id="Vector_8" d="M66.0518 38.5713L66.6631 37.3219L70.3892 39.6912C70.1298 40.5456 69.8756 41.402 69.595 42.2525C68.4571 40.9838 67.276 39.7567 66.0518 38.5713Z" fill="#FFE761"/>
<path id="Vector_9" d="M81.4509 45.6335C81.7855 45.5123 82.7923 45.0692 83.049 44.9536L84.8546 44.136L88.4499 42.5093C88.0284 43.9159 87.5591 45.2946 87.042 46.6453C86.9696 46.5774 86.8771 46.5349 86.7784 46.5242C86.6798 46.5134 86.5803 46.5351 86.495 46.5859C85.3952 47.2126 84.2227 47.702 83.0036 48.043C82.4709 47.2926 81.8882 46.5731 81.3251 45.8416C81.3543 45.7962 81.4025 45.767 81.4228 45.7197L81.4509 45.6335Z" fill="#FFE761"/>
<path id="Vector_10" d="M87.7821 14.6729C87.8549 14.7206 87.9381 14.7501 88.0247 14.7591C88.1113 14.768 88.1987 14.7561 88.2797 14.7243C89.4002 14.2897 90.5188 13.8556 91.6357 13.4221C92.1341 14.0145 92.638 14.5982 93.1329 15.1906C91.1545 15.8422 89.2148 16.6057 87.3229 17.4772C87.4812 16.5467 87.6218 15.6158 87.7821 14.6729Z" fill="#FFE761"/>
<path id="Vector_11" d="M85.0189 51.076C84.5684 50.3749 84.1143 49.6772 83.6371 48.9879C84.6522 48.6795 85.6347 48.2728 86.5707 47.7735C86.1012 48.907 85.5839 50.0079 85.0189 51.076Z" fill="#FFE761"/>
<path id="Vector_12" d="M97.1229 6.80017C97.0378 6.69438 96.9262 6.61305 96.7994 6.56448C96.6727 6.5159 96.5353 6.50183 96.4013 6.52368C96.7463 5.82633 97.0938 5.28282 97.3397 5.27136C98.0143 5.21464 115.779 28.1686 115.779 28.1686C115.804 28.2486 115.624 28.7527 115.272 29.602C114.35 27.9871 113.001 26.4476 112.133 25.2669C107.455 18.8673 102.32 12.7795 97.1229 6.80017Z" fill="#FFE761"/>
<path id="Vector_13" d="M84.2259 24.1001C82.9282 30.6441 81.3875 37.1343 79.4656 43.4885L79.4049 43.4255C80.3421 39.5073 82.7098 29.6219 84.8884 20.6135C84.6828 21.7147 84.479 22.8141 84.2557 23.9185C84.2321 23.976 84.2219 24.0381 84.2259 24.1001Z" fill="#FFE761"/>
<path id="Vector_14" d="M88.6564 7.10995C88.5481 6.98875 88.4042 6.90504 88.2453 6.87091C88.8017 4.65349 89.1703 3.23528 89.2381 3.10392C89.6152 2.393 94.8982 9.77228 95.1574 9.81056C94.9261 11.1912 94.6907 12.5759 94.451 13.9646C92.5302 11.674 90.6202 9.36949 88.6564 7.10995Z" fill="#FFE761"/>
<path id="Vector_15" d="M84.9324 29.4996C84.9994 29.4806 85.06 29.444 85.1078 29.3935C85.1557 29.343 85.1891 29.2806 85.2046 29.2128C87.5389 28.1979 89.8613 27.1528 92.1582 26.0559C91.8984 27.3205 91.6398 28.6152 91.3808 29.9311C88.9589 31.2968 86.4863 32.5631 83.963 33.7302C84.2997 32.3196 84.6229 30.9094 84.9324 29.4996Z" fill="#FFE761"/>
<path id="Vector_16" d="M85.2837 27.9696C85.5562 26.6858 85.7971 25.3908 86.0503 24.1048C88.4701 22.989 90.8608 21.8154 93.2226 20.5842C92.9477 21.9988 92.6815 23.4188 92.3926 24.8296C92.3165 24.83 92.2464 24.8005 92.1626 24.8396C89.8906 25.9299 87.5914 26.9595 85.2837 27.9696Z" fill="#FFE761"/>
<path id="Vector_17" d="M83.6772 34.9677C83.7602 34.971 83.841 35.0008 83.9337 34.96C86.3723 33.8445 88.7545 32.6236 91.101 31.3261C90.8614 32.518 90.6128 33.7162 90.3552 34.9208C87.829 36.4785 85.226 37.8845 82.5577 39.1868C82.9385 37.7812 83.3281 36.381 83.6772 34.9677Z" fill="#FFE761"/>
<path id="Vector_18" d="M86.3133 22.7572C86.5847 21.3425 86.8683 19.9299 87.1168 18.5095C87.19 18.5583 87.2747 18.5869 87.3624 18.5926C87.4501 18.5982 87.5378 18.5806 87.6166 18.5415C89.6513 17.593 91.744 16.7742 93.8821 16.0899L94.0551 16.2945C93.8727 17.2901 93.6692 18.2782 93.4831 19.2772C93.4511 19.2872 93.4214 19.2672 93.3875 19.286C91.067 20.5168 88.6936 21.6424 86.3133 22.7572Z" fill="#FFE761"/>
<path id="Vector_19" d="M87.7821 14.6729C87.8394 14.3434 87.8914 14.0119 87.9451 13.6823L90.8916 12.5389L91.6358 13.4221C90.5177 13.8568 89.399 14.2909 88.2797 14.7244C88.1987 14.7561 88.1113 14.7681 88.0247 14.7591C87.9381 14.7502 87.855 14.7206 87.7821 14.6729Z" fill="#1A1A1A"/>
<path id="Vector_20" d="M87.1203 18.5131C87.1831 18.1677 87.2565 17.8261 87.3175 17.4825C89.2093 16.6109 91.1491 15.8475 93.1274 15.1958C93.3766 15.4973 93.6364 15.792 93.8855 16.0935C91.7474 16.7778 89.6547 17.5966 87.62 18.5451C87.5412 18.5842 87.4536 18.6018 87.3658 18.5962C87.2781 18.5905 87.1934 18.5619 87.1203 18.5131Z" fill="#1A1A1A"/>
<path id="Vector_21" d="M64.1938 42.3774L64.1618 42.3874C63.7702 42.5593 63.3636 42.6946 62.947 42.7915C63.0856 42.3662 63.2101 41.9335 63.3433 41.5064C63.4394 41.4727 63.5213 41.4424 63.5462 41.4358L64.2576 41.1976L64.8623 40.9964C65.129 40.9129 65.4101 40.8154 65.6823 40.7231C65.9321 40.9822 66.1983 41.2222 66.4464 41.483C66.3877 41.5902 66.2928 41.6731 66.1787 41.7168C65.5182 41.9394 64.8566 42.1596 64.1938 42.3774Z" fill="#1A1A1A"/>
<path id="Vector_22" d="M65.4618 84.0157C69.5942 79.0858 73.5088 73.8832 76.2662 68.3449C76.5726 67.73 77.5493 67.7813 77.8426 68.3735C79.3656 71.4471 81.0115 74.4752 82.8059 77.3982C83.9066 79.1913 85.0402 81.1193 86.5389 82.612C87.0459 83.1197 87.2711 83.3713 87.461 83.4278C87.7001 83.5028 87.8707 83.2584 88.4665 82.7671C90.5665 81.0267 92.0447 77.4966 93.3877 75.1874C95.4843 71.5818 97.4778 67.9054 99.4131 64.2262C103.534 56.4074 107.505 48.4904 111.2 40.4712C112.188 38.3305 114.038 35.5532 114.32 33.177C114.335 32.8096 114.291 32.4421 114.188 32.0891C113.823 30.3571 112.339 28.6313 111.367 27.263C106.962 21.0682 102.019 15.219 97.0426 9.47522C96.0886 15.4215 94.992 21.341 93.7526 27.2338C91.9618 35.8197 90.3875 45.6275 85.8888 53.3104C85.8052 53.4456 85.6879 53.5568 85.5483 53.6329C85.4088 53.7089 85.2518 53.7474 85.0928 53.7443C84.9339 53.7412 84.7785 53.6968 84.642 53.6154C84.5054 53.534 84.3925 53.4185 84.3142 53.2801C82.4093 50.1981 80.2792 47.2612 77.9411 44.4933C76.2609 42.5062 74.4581 40.6261 72.5433 38.8639C72.3625 39.4794 72.1641 40.0875 71.9762 40.6993C68.2815 52.5972 62.7908 64.0011 56.7494 74.9638L55.441 73.6071C55.9548 72.6706 56.4527 71.7285 56.9594 70.7884L57.6106 70.5562C57.7174 70.519 57.8105 70.4504 57.8775 70.3593C57.9445 70.2683 57.9824 70.1591 57.9862 70.0461C57.9899 69.933 57.9594 69.8216 57.8986 69.7262C57.8378 69.6309 57.7495 69.5562 57.6455 69.512C58.3153 68.2513 58.9641 66.9831 59.6112 65.7132L60.2484 65.4772C60.3576 65.44 60.4527 65.3697 60.5203 65.2762C60.5879 65.1826 60.6249 65.0704 60.626 64.955C60.6271 64.8395 60.5924 64.7266 60.5265 64.6318C60.4607 64.5369 60.3671 64.4649 60.2586 64.4255C60.9885 62.9714 61.7003 61.5117 62.3939 60.0463C62.8254 59.8455 63.258 59.6459 63.6918 59.4476C64.3389 59.1499 63.8048 58.1856 63.1648 58.4798C63.1522 58.492 63.1396 58.5041 63.1114 58.5036C63.7246 57.1829 64.3208 55.8578 64.9 54.5283C65.274 54.3724 65.6549 54.2308 66.0273 54.0696C66.6795 53.788 66.1436 52.8219 65.5004 53.1019C65.9972 51.9282 66.5081 50.7583 66.9751 49.5717L67.8467 49.2728C68.5121 49.0409 68.254 47.9702 67.585 48.2021C67.5423 48.219 67.4996 48.2323 67.4552 48.2474C67.8638 47.1588 68.2642 46.0699 68.6564 44.981C68.9067 44.9201 69.1556 44.8468 69.4007 44.7841C69.4309 44.7758 69.4349 44.7511 69.4547 44.732C70.2289 45.3224 71.3279 44.1826 70.6073 43.3634C70.2783 42.9862 69.9312 42.6263 69.5864 42.2435C69.867 41.393 70.1211 40.5366 70.3806 39.6821C70.6588 38.7679 70.9721 37.8649 71.2203 36.9519C71.4169 36.2483 72.2411 36.1306 72.744 36.5693C75.131 38.6783 77.352 40.968 79.3873 43.4182L79.448 43.4811C79.2842 44.0315 79.1448 44.6071 78.9758 45.152C78.67 46.1241 79.9674 46.6267 80.5252 45.988C80.5495 46.0132 80.579 46.0438 80.6106 46.055L80.7319 46.0943C80.8436 46.1216 80.9613 46.1111 81.0664 46.0644C81.1716 46.0176 81.2582 45.9374 81.3129 45.8361C81.8759 46.5676 82.4587 47.2871 82.9913 48.0374C82.9203 48.0574 82.8525 48.0915 82.7797 48.1096C82.0922 48.2934 82.3539 49.3642 83.0378 49.1803C83.2403 49.1274 83.4292 49.0424 83.6248 48.9823C84.102 49.6716 84.5561 50.3693 85.0066 51.0705C85.5716 50.0023 86.0889 48.9015 86.5585 47.7679C86.7048 47.6893 86.8615 47.632 87.0079 47.5498C87.0866 47.5037 87.1523 47.4383 87.1986 47.3597C87.245 47.2812 87.2704 47.192 87.2726 47.1009C87.2748 47.0097 87.2536 46.9194 87.2111 46.8387C87.1686 46.758 87.1061 46.6895 87.0297 46.6398C87.5468 45.2891 88.0161 43.9104 88.4376 42.5037C88.6443 42.412 88.8511 42.3168 89.0561 42.2232C89.6104 41.9734 89.2907 41.2781 88.7892 41.2479C89.2415 39.6355 89.6534 38.0101 90.0248 36.3715C90.3591 36.1707 90.7017 35.9931 91.0343 35.787C91.6351 35.4124 91.1099 34.443 90.5073 34.8192C90.4537 34.8501 90.3966 34.8809 90.3429 34.9153C90.6029 33.7084 90.8514 32.5102 91.0887 31.3206C91.4333 31.1306 91.7812 30.9583 92.1241 30.763C92.7421 30.4136 92.2152 29.4458 91.5972 29.7953C91.5239 29.8382 91.4454 29.8756 91.3686 29.9184C91.6362 28.6186 91.8861 27.3149 92.146 26.0432C92.3225 25.9598 92.5059 25.8871 92.6825 25.8002C93.2407 25.5327 92.9001 24.8159 92.3856 24.8225C92.6745 23.4116 92.9407 21.9916 93.2156 20.577C93.4441 20.4538 93.6756 20.359 93.9023 20.2411C94.4967 19.9249 94.0489 19.0788 93.4727 19.2663C93.6622 18.2709 93.8657 17.2829 94.0447 16.2837L94.3475 16.6445C95.0915 17.542 96.3872 16.2784 95.6502 15.3882C95.2506 14.9054 94.8384 14.4348 94.4387 13.952C94.6772 12.5644 94.9127 11.1797 95.1451 9.79795C95.2883 8.92369 95.4526 8.04981 95.5904 7.17368C95.6045 6.99176 95.6893 6.82259 95.8267 6.70246C95.964 6.58234 96.143 6.52082 96.3251 6.53112C96.3466 6.5234 96.3685 6.51731 96.3909 6.51286C96.5249 6.49101 96.6622 6.50508 96.789 6.55366C96.9158 6.60223 97.0274 6.68356 97.1125 6.78935C102.308 12.7669 107.444 18.853 112.128 25.2402C112.993 26.4245 114.344 27.9658 115.267 29.5753C115.889 30.6703 116.323 31.7972 116.261 32.8745C116.146 34.8683 114.615 37.2643 113.825 39.0443C109.809 48.0053 105.376 56.8014 100.78 65.4885C98.5642 69.7089 96.2891 73.8963 93.8321 77.978C92.5763 80.0608 91.0936 83.3522 89.0151 84.7871C88.1217 85.4056 87.1445 85.2854 86.1441 84.6909C85.1436 84.0965 84.1875 83.1051 83.21 81.8322C83.5437 81.2707 83.8304 80.7615 84.0524 80.4155C84.6819 79.4334 83.1234 78.5124 82.4922 79.4891C82.4595 79.5416 82.4232 79.594 82.3904 79.6464C82.3692 79.646 82.3661 79.6212 82.3376 79.6313L81.7334 79.707C81.2142 78.895 80.7133 78.0515 80.2356 77.196C80.2586 77.1947 80.2834 77.1916 80.3081 77.192C81.0174 77.1713 81.0391 76.0703 80.3281 76.0892C80.1017 76.0957 79.8767 76.1217 79.6485 76.13C79.1115 75.1302 78.6131 74.1489 78.1681 73.241L78.4742 73.2306C79.1835 73.2064 79.2052 72.1054 78.4959 72.1296L77.6415 72.1584C77.3877 71.6287 77.1612 71.1526 76.9602 70.7317C76.6701 71.2303 76.4009 71.7399 76.0863 72.2239L74.972 72.2567C74.2627 72.281 74.2409 73.382 74.9503 73.3577L75.3271 73.3416C74.8187 74.0855 74.3066 74.8293 73.7949 75.5554C73.6153 75.8121 73.4252 76.0579 73.2456 76.311C72.5601 76.0899 71.6814 76.7776 72.1426 77.5691L72.2268 77.7068C70.3991 80.23 68.5189 82.7204 66.5689 85.1636L65.4618 84.0157Z" fill="#1A1A1A"/>
<path id="Vector_23" d="M85.012 24.6234C85.3649 24.4636 85.7097 24.2666 86.0555 24.1102C85.8024 25.3961 85.551 26.6804 85.2889 27.975C84.8202 28.1804 84.3618 28.4072 83.8932 28.6091C83.2573 28.8751 83.7286 29.6916 84.2814 29.6238C84.4674 29.6042 84.6534 29.5811 84.8377 29.5597C84.8838 29.5534 84.8899 29.5093 84.9342 29.5013C84.6246 30.9135 84.3015 32.3213 83.9649 33.7248C83.7777 33.8116 83.5957 33.9073 83.4067 33.9923C82.8559 34.2457 83.1756 34.9409 83.679 34.9695C83.3298 36.3828 82.9316 37.7739 82.5526 39.1813C82.1066 39.3996 81.6744 39.6428 81.2215 39.8538C80.5779 40.155 81.1102 41.1211 81.7485 40.8215C81.8822 40.7585 82.0126 40.6848 82.1464 40.6219C81.7758 41.9481 81.4264 43.2818 81.0225 44.5951C80.6804 44.7598 80.4039 45.0351 80.2376 45.3764C80.2047 45.4968 80.2164 45.625 80.2706 45.7374C80.3247 45.8498 80.4177 45.9388 80.5323 45.9881C79.9675 46.6196 78.6771 46.1242 78.9829 45.1521C79.1519 44.6072 79.2914 44.0316 79.4552 43.4812C81.3701 37.1198 82.9177 30.6368 84.2154 24.0928C84.2135 24.1882 84.2356 24.2825 84.2798 24.3671C84.324 24.4516 84.3888 24.5237 84.4682 24.5766C84.5476 24.6295 84.639 24.6615 84.7341 24.6697C84.8291 24.6779 84.9247 24.662 85.012 24.6234Z" fill="#1A1A1A"/>
<path id="Vector_24" d="M88.6563 7.10997C90.6271 9.37671 92.5373 11.6671 94.4527 13.9664C94.8523 14.4492 95.2645 14.9199 95.6641 15.4027C96.4011 16.2929 95.1054 17.5564 94.3614 16.659L94.0586 16.2982L93.8855 16.0935C93.6364 15.792 93.3766 15.4973 93.1275 15.1958C92.6326 14.6035 92.1287 14.0198 91.6303 13.4274L90.8861 12.5441C90.1159 11.6338 89.3529 10.7166 88.5773 9.81159C88.3713 11.1031 88.1587 12.3951 87.9396 13.6875C87.8859 14.0172 87.834 14.3486 87.7767 14.6781C87.6201 15.614 87.4884 16.5398 87.3175 17.4825C87.2565 17.8261 87.1831 18.1677 87.1203 18.5131C86.8684 19.9299 86.5847 21.3426 86.3168 22.7608C85.7016 23.0485 85.107 23.3789 84.4884 23.6594C84.4357 23.684 84.3886 23.719 84.3498 23.7624C84.311 23.8057 84.2815 23.8565 84.2629 23.9116C84.4808 22.8124 84.6846 21.713 84.8955 20.6066C85.7078 16.2347 86.4571 11.8622 87.1432 7.48916C87.2213 6.98674 87.7947 6.7567 88.2541 6.86933C88.41 6.90563 88.5506 6.98977 88.6563 7.10997Z" fill="#1A1A1A"/>
<path id="Vector_25" d="M69.5879 42.2594C69.9223 42.6315 70.2781 43.0003 70.6089 43.3793C71.3294 44.1985 70.2304 45.3383 69.4562 44.748C70.0435 44.5288 69.7957 43.5697 69.1354 43.7203C68.9561 43.7613 68.7817 43.8218 68.6024 43.8627C67.8938 43.0667 67.1816 42.2707 66.4443 41.4954C66.1945 41.2363 65.9319 40.9928 65.6802 40.7355C65.531 40.5807 65.3674 40.4399 65.2128 40.2868C64.8432 39.9036 64.4519 39.5447 64.0643 39.1823C63.8362 39.9649 63.587 40.74 63.3413 41.5187C63.2081 41.9459 63.0835 42.3785 62.945 42.8038C62.6044 43.8477 62.2479 44.8826 61.8792 45.9154C61.7243 45.9744 61.5644 46.0175 61.4113 46.0784C60.8523 46.291 60.9727 47.064 61.4328 47.1342C60.9809 48.3653 60.5431 49.6037 60.0578 50.8253L58.91 51.2376C58.2429 51.4677 58.4993 52.5402 59.1682 52.3083C59.2784 52.2714 59.3888 52.231 59.4991 52.1941C58.9864 53.463 58.454 54.7474 57.8989 56.0155C57.6356 56.1027 57.3828 56.2006 57.1161 56.2842C56.4706 56.4935 56.6952 57.4681 57.3125 57.3484C56.5757 58.9851 55.8203 60.6132 55.0461 62.2326L53.8249 62.7957C53.2009 63.0849 53.6833 63.974 54.2952 63.7659C53.7427 64.8926 53.1743 66.0137 52.6043 67.1331L51.1662 67.6621C50.5042 67.9047 50.7606 68.9771 51.4244 68.7328C51.5792 68.6773 51.7305 68.6217 51.8836 68.5644C51.7297 68.8621 51.5723 69.1563 51.4149 69.4539L50.0995 68.0901C55.2608 58.1846 59.8024 47.9391 62.7765 37.2709C62.9714 36.5655 63.7973 36.4497 64.2986 36.8866C64.9111 37.4245 65.475 38.0128 66.0587 38.582C67.2783 39.7626 68.4547 40.9885 69.5879 42.2594Z" fill="#1A1A1A"/>
<path id="Vector_26" d="M85.0119 24.6235C84.9253 24.6603 84.8308 24.6751 84.737 24.6663C84.6433 24.6575 84.5531 24.6256 84.4748 24.5733C84.3965 24.521 84.3324 24.45 84.2883 24.3668C84.2443 24.2836 84.2216 24.1907 84.2224 24.0965C84.2197 24.0316 84.2323 23.967 84.2594 23.908C84.278 23.8529 84.3076 23.8021 84.3463 23.7588C84.3851 23.7154 84.4323 23.6804 84.485 23.6557C85.1035 23.3753 85.6982 23.0448 86.3133 22.7572C88.7026 21.6337 91.067 20.5168 93.3857 19.2878C93.4127 19.2617 93.4493 19.2889 93.4813 19.2789C94.0593 19.0931 94.5071 19.9392 93.9109 20.2537C93.6807 20.375 93.4492 20.4698 93.2242 20.5895C90.8659 21.8267 88.4751 23.0003 86.0519 24.1102C85.7042 24.2718 85.3649 24.4637 85.0119 24.6235Z" fill="#1A1A1A"/>
<path id="Vector_27" d="M84.9325 29.4995C84.8933 29.513 84.8803 29.5499 84.8359 29.5579C84.6517 29.5793 84.4657 29.6024 84.2797 29.6221C83.7234 29.6862 83.2555 28.8734 83.8915 28.6073C84.3601 28.4055 84.8185 28.1786 85.2872 27.9732C87.5949 26.9632 89.8975 25.9371 92.1712 24.8486C92.255 24.8095 92.3252 24.839 92.4012 24.8386C92.9158 24.8321 93.2564 25.5489 92.6982 25.8163C92.5216 25.9033 92.3382 25.976 92.1617 26.0594C89.8631 27.1545 87.5424 28.2015 85.2081 29.2164C85.1918 29.2839 85.1576 29.3459 85.1091 29.3957C85.0606 29.4455 84.9996 29.4814 84.9325 29.4995Z" fill="#1A1A1A"/>
<path id="Vector_28" d="M83.6772 34.9677C83.1738 34.9392 82.8541 34.2439 83.4049 33.9905C83.5939 33.9055 83.7759 33.8098 83.9631 33.723C86.484 32.5536 88.9566 31.2872 91.3809 29.9239C91.4577 29.8811 91.5362 29.8437 91.6094 29.8008C92.2274 29.4513 92.7613 30.4263 92.1364 30.7685C91.7952 30.9621 91.4474 31.1344 91.1009 31.3261C88.7545 32.6236 86.3723 33.8445 83.9336 34.96C83.841 35.0007 83.7495 34.9779 83.6772 34.9677Z" fill="#1A1A1A"/>
<path id="Vector_29" d="M81.7519 40.8287C81.1136 41.1283 80.5813 40.1622 81.2249 39.8609C81.6778 39.6499 82.11 39.4067 82.5559 39.1885C85.2224 37.888 87.8272 36.4802 90.3534 34.9225C90.3984 34.8791 90.4642 34.8574 90.5178 34.8265C91.1204 34.4503 91.6455 35.4197 91.0448 35.7942C90.714 35.9986 90.3714 36.1763 90.0353 36.3788C87.474 37.9217 84.8513 39.3468 82.1497 40.629C82.0178 40.6903 81.8874 40.764 81.7519 40.8287Z" fill="#1A1A1A"/>
<path id="Vector_30" d="M80.2409 45.3836C80.4072 45.0422 80.6838 44.7669 81.0259 44.6022C81.6889 44.2094 82.5737 43.9638 83.1227 43.7156L88.5431 41.2664C88.6376 41.2239 88.7184 41.2536 88.8031 41.2587C89.3046 41.289 89.6244 41.9843 89.0701 42.2341C88.8651 42.3276 88.6583 42.4229 88.4515 42.5146L84.8563 44.1413L83.0507 44.9589C82.794 45.0745 81.7871 45.5176 81.4526 45.6389L81.4245 45.725C81.4077 45.7759 81.3507 45.7961 81.3268 45.847C81.2722 45.9482 81.1855 46.0285 81.0804 46.0752C80.9753 46.1219 80.8576 46.1325 80.7458 46.1051L80.6246 46.0658C80.5911 46.0564 80.5742 46.0136 80.5391 45.9989C80.4231 45.9501 80.3288 45.8607 80.2739 45.7475C80.219 45.6342 80.2073 45.5048 80.2409 45.3836Z" fill="#1A1A1A"/>
<path id="Vector_31" d="M87.042 46.6453C87.1185 46.695 87.1809 46.7635 87.2234 46.8442C87.2659 46.9249 87.2871 47.0152 87.2849 47.1064C87.2827 47.1976 87.2573 47.2867 87.2109 47.3653C87.1646 47.4438 87.099 47.5093 87.0202 47.5553C86.8738 47.6375 86.7172 47.6948 86.5708 47.7735C85.6328 48.2712 84.6485 48.6761 83.6319 48.9825C83.4363 49.0426 83.2474 49.1275 83.0449 49.1804C82.361 49.3643 82.0993 48.2935 82.7868 48.1097C82.8596 48.0916 82.9274 48.0575 82.9985 48.0376C84.2175 47.6965 85.3901 47.2072 86.4898 46.5805C86.5762 46.5291 86.6771 46.5076 86.7769 46.5194C86.8767 46.5311 86.9699 46.5753 87.042 46.6453Z" fill="#1A1A1A"/>
<path id="Vector_32" d="M61.6802 47.1422C61.5841 47.1794 61.5193 47.1411 61.4418 47.1291C60.987 47.0536 60.8682 46.2931 61.4202 46.0733C61.5734 46.0124 61.7333 45.9693 61.8881 45.9103C62.1284 45.8209 62.3702 45.7475 62.6104 45.6617C64.5751 44.9489 66.5779 44.346 68.6096 43.8558C68.7889 43.8148 68.9633 43.7544 69.1426 43.7134C69.8029 43.5627 70.049 44.5201 69.4634 44.741C69.4436 44.7601 69.4292 44.774 69.4094 44.7931C69.1591 44.8504 68.912 44.9255 68.6651 44.99C66.3842 45.5395 64.1398 46.231 61.9451 47.0604C61.8527 47.087 61.7639 47.1101 61.6802 47.1422Z" fill="#1A1A1A"/>
<path id="Vector_33" d="M59.1685 52.2942C58.4995 52.526 58.2415 51.4518 58.9103 51.2235L60.058 50.8111L60.1292 50.7877L67.45 48.242C67.4945 48.2269 67.5372 48.2135 67.5799 48.1966C68.2488 47.9648 68.5087 49.0373 67.8416 49.2674L66.9592 49.5732C64.4685 50.4402 61.9796 51.3068 59.4924 52.1728C59.3944 52.2152 59.2787 52.2573 59.1685 52.2942Z" fill="#1A1A1A"/>
<path id="Vector_34" d="M57.3143 57.3467C56.6969 57.4664 56.4724 56.4917 57.1179 56.2825C57.3846 56.1989 57.6374 56.1009 57.9006 56.0138C60.4743 55.157 63.0106 54.2112 65.4929 53.123C66.1397 52.8465 66.6703 53.8073 66.0199 54.0907C65.6475 54.2519 65.2684 54.3918 64.8925 54.5494C62.4217 55.5883 59.9224 56.5366 57.3724 57.3601C57.346 57.3544 57.3287 57.3328 57.3143 57.3467Z" fill="#1A1A1A"/>
</g>
</svg>
