<svg width="99" height="47" viewBox="0 0 99 47" fill="none" xmlns="http://www.w3.org/2000/svg">
<circle cx="23.703" cy="23.4656" r="23.0444" fill="#F4DE4D"/>
<path d="M36.2929 30.116C40.0939 30.116 42.3619 27.701 43.0339 25.181L40.7239 24.425C40.2199 26.105 38.7919 27.701 36.2929 27.701C33.7519 27.701 31.3579 25.853 31.3579 22.367C31.3579 18.755 33.8149 16.97 36.2719 16.97C38.7709 16.97 40.1569 18.419 40.5979 20.225L42.9709 19.427C42.2989 16.823 40.0519 14.597 36.2719 14.597C32.4079 14.597 28.7749 17.516 28.7749 22.367C28.7749 27.218 32.2819 30.116 36.2929 30.116Z" fill="black"/>
<path d="M48.7399 27.029C48.7399 28.646 50.0629 30.116 52.2049 30.116C53.8639 30.116 54.8719 29.276 55.3549 28.499C55.3549 29.318 55.4389 29.738 55.4599 29.801H57.7279C57.7069 29.696 57.6019 29.087 57.6019 28.163V23.081C57.6019 21.044 56.4049 19.259 53.2549 19.259C50.7349 19.259 49.1389 20.834 48.9499 22.598L51.1759 23.102C51.2809 22.073 51.9949 21.254 53.2759 21.254C54.6199 21.254 55.2079 21.947 55.2079 22.808C55.2079 23.165 55.0399 23.459 54.4519 23.543L51.8269 23.942C50.0839 24.194 48.7399 25.202 48.7399 27.029ZM52.6669 28.205C51.7009 28.205 51.1759 27.575 51.1759 26.882C51.1759 26.042 51.7849 25.622 52.5409 25.496L55.2079 25.097V25.559C55.2079 27.554 54.0319 28.205 52.6669 28.205ZM62.9617 33.791V28.646C63.4867 29.423 64.5997 30.053 66.0697 30.053C69.0097 30.053 70.8787 27.743 70.8787 24.677C70.8787 21.653 69.1777 19.343 66.1537 19.343C64.5787 19.343 63.4027 20.078 62.8987 20.96V19.574H60.5467V33.791H62.9617ZM68.4427 24.677C68.4427 26.63 67.3087 27.89 65.6917 27.89C64.0957 27.89 62.9407 26.63 62.9407 24.677C62.9407 22.766 64.0957 21.506 65.6917 21.506C67.3297 21.506 68.4427 22.766 68.4427 24.677ZM74.9215 23.564C75.0055 22.472 75.8875 21.296 77.4205 21.296C79.1005 21.296 79.8985 22.367 79.9405 23.564H74.9215ZM80.2135 26.231C79.8775 27.239 79.1215 28.016 77.6515 28.016C76.1395 28.016 74.9215 26.903 74.8585 25.349H82.3345C82.3555 25.307 82.3975 24.971 82.3975 24.572C82.3975 21.338 80.5495 19.259 77.3995 19.259C74.8165 19.259 72.4225 21.401 72.4225 24.635C72.4225 28.1 74.8795 30.116 77.6515 30.116C80.1085 30.116 81.7255 28.667 82.2715 26.882L80.2135 26.231ZM86.3634 24.656C86.3634 22.703 87.5394 21.464 89.1354 21.464C90.7314 21.464 91.8234 22.682 91.8234 24.635C91.8234 26.588 90.7104 27.911 89.1144 27.911C87.4554 27.911 86.3634 26.609 86.3634 24.656ZM94.1754 14.597H91.8024V20.771C91.4874 20.12 90.5844 19.301 88.7994 19.301C85.9224 19.301 83.9274 21.716 83.9274 24.656C83.9274 27.743 85.9014 30.053 88.8414 30.053C90.2904 30.053 91.3614 29.339 91.8444 28.478C91.8444 28.898 91.9074 29.57 91.9494 29.801H94.2804C94.2594 29.633 94.1754 28.856 94.1754 27.932V14.597Z" fill="black"/>
<rect x="72.9343" y="14.0384" width="12.5697" height="3.14242" fill="black"/>
</svg>
