<svg width="39" height="61" viewBox="0 0 39 61" fill="none" xmlns="http://www.w3.org/2000/svg">
<g id="Group">
<path id="Vector" d="M-11.8928 25.6292C-11.3984 26.3707 -7.4438 32.0555 -7.4438 32.0555C-7.4438 32.0555 -11.1513 30.0782 -13.3758 28.8424C-15.6003 27.8537 -18.3191 26.865 -18.3191 26.865C-18.3191 26.865 -18.3191 26.865 -18.0719 27.1122C-16.5889 28.1009 -11.8928 31.8084 -11.1513 32.5499C-10.1626 33.2914 -6.20797 36.2573 -6.20797 36.2573C-6.20797 36.2573 -7.4438 44.1667 -7.4438 47.627C-7.4438 48.8628 -7.4438 49.8515 -7.4438 50.3458C-7.4438 51.0873 -7.4438 51.5816 -7.4438 51.5816C-7.4438 51.3345 -5.9608 45.8968 -5.71363 44.4138C-5.46647 42.9308 -4.47781 40.212 -4.23064 39.9648C-4.23064 40.212 -2.99481 47.1326 -2.25331 49.6043C-1.75898 52.076 0.218346 57.0193 0.465511 57.2664C0.465511 56.7721 -0.523151 46.6383 -0.523151 45.6496C-0.523151 44.4138 -0.523151 42.1893 -0.523151 42.1893C-0.275986 42.6837 2.44284 47.627 3.4315 49.6043C4.42016 51.5816 10.105 59.7381 11.0936 60.7268C10.8465 59.9853 8.37482 53.8061 7.13899 51.8288C6.15033 49.8515 2.93717 42.4365 2.93717 42.1893C3.18434 42.6837 9.85781 48.8628 12.0823 50.8401C14.3068 52.8175 19.4973 57.2664 20.4859 57.5136C21.2274 57.5136 17.0256 52.076 17.0256 52.076C17.0256 52.076 13.3181 48.6156 11.3408 46.6383C9.61065 44.661 4.9145 40.7063 4.42016 40.212C5.40883 40.9535 8.86915 43.9195 11.588 46.144C12.8238 47.1326 13.8125 47.8741 14.3068 48.3685C16.037 49.3571 21.9689 52.5703 22.4633 52.8175C22.9576 53.0646 25.4293 54.7948 25.4293 54.7948C25.1821 54.7948 23.4519 53.0646 21.4746 51.0873C19.4973 48.8628 15.2955 45.6496 12.3295 42.9308C9.36348 40.4592 7.13899 38.729 7.13899 38.729C7.13899 38.729 7.13899 38.729 7.38616 38.729C9.36348 39.4705 17.2728 42.1893 19.0029 42.6837C20.9803 43.178 32.3499 44.9082 32.8442 45.1553C32.3499 44.9082 28.6424 43.6723 26.4179 42.4365C23.9463 40.9535 19.9916 40.4592 19.7444 40.212C19.4973 39.9648 12.5766 37.246 12.0823 36.9988C12.5766 36.9988 24.9349 39.2233 26.6651 39.2233C28.3953 38.729 35.3159 38.729 35.8102 38.729C35.3159 38.729 29.8782 37.246 28.3952 36.9988C27.1594 36.7517 18.0143 34.5272 14.554 34.0328C14.0596 34.0328 13.5653 33.7857 13.3181 33.7857C11.588 33.7857 10.3521 33.7857 10.3521 33.7857C10.5993 33.7857 18.5086 33.5385 19.9916 33.2914C21.4746 33.0442 28.3952 32.797 29.8782 32.5499C31.1141 32.3027 36.5517 31.8084 37.7876 31.8084H38.0347C37.7876 31.8084 36.7989 31.8084 35.5631 31.5612C32.5971 31.314 28.1481 30.8197 27.1594 30.5725C25.4293 30.0782 22.2161 29.831 22.2161 29.831C22.2161 29.831 11.8351 30.8197 10.5993 30.8197C11.0936 30.5725 17.0256 28.5952 18.2614 28.1009C19.4973 27.6065 27.4066 23.1576 29.3839 21.9217C31.3612 20.6859 35.3159 17.7199 35.3159 17.4727C35.0687 17.4727 28.8896 19.4501 26.9123 20.6859C25.1821 21.9217 19.2501 24.1462 17.52 24.8877C16.037 25.6292 12.3295 27.3594 12.3295 27.3594L8.86915 28.348C9.61065 27.8537 15.2955 23.6519 16.2841 22.1689C17.2728 20.6859 20.7331 17.2256 22.2161 15.9897C23.6991 14.7539 28.3952 9.06911 28.6424 9.06911C28.3952 9.06911 24.1934 12.2823 22.7104 13.2709C21.2274 14.5068 15.5426 18.2142 14.0596 19.4501C13.3181 20.4387 11.0936 22.1689 9.61065 23.4047C8.62198 24.3934 7.88049 24.8877 7.63332 25.1349C7.88049 24.6406 12.8238 19.4501 14.0596 17.9671C15.2955 16.7313 18.7558 11.7879 19.2501 10.5521C19.7444 9.31627 22.7104 4.12578 22.7104 4.12578C22.4633 4.12578 17.7671 8.82194 16.5313 10.5521C15.0483 12.2823 8.37482 19.4501 7.38616 21.1802C6.39749 22.9104 5.90316 23.8991 5.90316 23.8991C5.90316 23.8991 5.90316 23.4047 6.15032 22.9104C7.38615 20.6859 11.0936 14.0124 11.588 12.2823C12.0823 10.7993 12.8238 7.33895 13.5653 4.62013C13.8125 3.13713 14.0596 1.9013 14.3068 1.40697C13.8125 2.6428 11.0936 8.57477 10.105 10.5521C8.86915 12.5294 3.67867 19.9444 3.4315 20.4387C3.18434 20.9331 2.44284 22.1689 2.44284 22.1689C2.44284 22.1689 5.16166 10.3049 5.65599 7.09178C5.90316 4.12579 5.16166 0.665466 5.16166 0.665466C4.9145 1.1598 1.45417 11.5408 0.959843 14.2596C0.712677 17.2256 -1.26465 23.4047 -1.26465 23.6519C-1.26465 23.4047 -1.26465 12.2823 -1.51182 10.7993C-1.75898 9.31628 -2.00615 4.12579 -2.00615 3.87862C-2.00615 4.37296 -3.73631 11.7879 -3.98347 14.0124C-3.98347 16.2369 -4.47781 26.3707 -4.47781 26.3707C-4.47781 26.3707 -7.69096 19.9444 -8.18529 17.7199C-8.67963 15.4954 -11.6456 11.2936 -11.6456 11.2936C-11.3984 11.7879 -9.42112 18.2142 -9.42112 20.1916C-9.17396 21.9217 -7.69096 27.3594 -7.4438 27.8537C-7.69096 27.6065 -9.91545 23.6519 -10.9041 22.9104C-11.8928 22.1689 -16.3418 18.9557 -16.3418 18.9557C-16.0946 19.2029 -12.3871 24.8877 -11.8928 25.6292Z" fill="#65DCE1"/>
<path id="Vector_2" d="M-11.8928 25.8764C-11.3984 26.6179 -7.4438 32.3027 -7.4438 32.3027C-7.4438 32.3027 -11.1513 30.0782 -13.3758 29.0895C-15.6003 28.1009 -18.3191 27.1122 -18.3191 27.1122C-18.3191 27.1122 -18.3191 27.1122 -18.0719 27.3594C-16.5889 28.348 -11.8928 32.0555 -11.1513 32.5499C-10.1626 33.2914 -6.20797 36.2574 -6.20797 36.2574C-6.20797 36.2574 -7.4438 44.4138 -7.4438 47.627C-7.4438 48.8628 -7.4438 49.8515 -7.4438 50.3458C-7.4438 51.0873 -7.4438 51.3345 -7.4438 51.5816C-7.4438 51.3345 -5.9608 45.8968 -5.71363 44.4138C-5.2193 43.178 -4.23064 40.212 -4.23064 40.212C-4.23064 40.4592 -2.99481 47.3798 -2.25331 49.8515C-1.75898 52.3231 0.218346 57.0193 0.465511 57.5136C0.465511 57.0193 -0.523151 46.8855 -0.523151 45.8968C-0.523151 44.661 -0.523151 42.4365 -0.523151 42.1893C-0.275986 42.6837 2.44284 47.627 3.4315 49.6043C4.42016 51.3345 10.105 59.4909 11.0936 60.4796C10.8465 59.9853 8.62199 53.8061 7.38616 51.8288C6.15033 49.8515 2.93717 42.6837 2.93717 42.4365C3.4315 42.6837 9.85781 48.8628 12.0823 50.8401C14.0596 52.8175 19.4973 57.2665 20.4859 57.5136C21.2274 57.5136 17.0256 52.076 17.0256 52.076C17.0256 52.076 13.3181 48.6156 11.3408 46.6383C9.61065 44.9082 5.16166 40.7063 4.42016 40.212C5.40883 40.9535 8.86915 43.9195 11.588 46.144C12.8238 47.1326 13.8125 47.8741 14.3068 48.1213C16.037 49.6043 22.2161 52.5703 22.4633 53.0646C22.9576 53.3118 25.4293 55.042 25.4293 55.042C25.4293 54.7948 23.4519 53.0646 21.4746 51.0873C19.4973 49.11 15.2955 45.6497 12.5766 43.178C9.61065 40.7063 7.38616 38.9762 7.38616 38.9762C7.38616 38.9762 7.38616 38.9762 7.63332 38.9762C9.36348 39.4705 17.2728 42.4365 19.0029 42.9308C20.9803 43.4252 32.3499 45.1553 32.8442 45.1553C32.5971 45.1553 28.6424 43.6723 26.4179 42.4365C23.9463 41.2007 19.9916 40.4592 19.7444 40.212C19.4973 40.212 12.8238 37.246 12.0823 36.9989C12.5766 36.9989 24.9349 39.2233 26.6651 38.9762C28.3953 38.9762 35.5631 38.9762 35.8102 38.9762C35.3159 38.9762 29.8782 37.4932 28.3952 37.246C27.1594 36.9988 18.0143 34.7744 14.554 34.28C14.0596 34.28 13.5653 34.0329 13.3181 34.0329C11.588 34.0329 10.3521 34.0329 10.3521 34.0329C10.5993 34.0329 18.5086 33.7857 19.9916 33.5385C21.4746 33.5385 28.3952 33.0442 29.8782 32.797C31.1141 32.5499 36.5517 32.0555 37.7876 32.0555H38.0347C37.7876 32.0555 36.7989 32.0555 35.8102 31.8084C32.8442 31.5612 28.3953 31.0669 27.4066 30.8197C25.6764 30.3254 22.4633 30.0782 22.4633 30.0782C22.4633 30.0782 11.8351 31.0669 10.5993 31.0669C11.0936 30.8197 17.0256 28.8424 18.2614 28.348C19.4973 27.8537 27.4066 23.4047 29.3839 22.1689C31.3612 20.9331 35.3159 17.9671 35.3159 17.7199C35.0687 17.7199 28.8896 19.6972 26.9123 20.9331C25.1821 21.9217 19.4973 24.1462 17.7671 25.1349C16.037 25.8764 12.3295 27.6065 12.3295 27.6065L8.86915 28.5952C9.61065 28.1009 15.2955 23.8991 16.2841 22.4161C17.2728 20.9331 20.7331 17.4727 22.2161 16.2369C23.6991 15.0011 28.3952 9.31627 28.6424 9.31627C28.3952 9.31627 24.1934 12.5294 22.7104 13.5181C21.2274 14.7539 15.5426 18.4614 14.0596 19.6972C13.3181 20.4387 11.3408 22.1689 9.61065 23.6519C8.62198 24.3934 7.88049 25.1349 7.88049 25.1349C8.12765 24.8877 13.071 19.4501 14.3068 18.2142C15.5426 16.7312 19.003 11.7879 19.4973 10.7993C19.9916 9.56345 22.9576 4.37296 22.9576 4.37296C22.7104 4.37296 18.0143 9.06911 16.5313 10.5521C15.0483 12.2823 8.62199 19.4501 7.63332 21.1802C6.64466 23.1576 5.90316 23.8991 5.90316 23.8991C5.90316 23.8991 6.15032 23.6519 6.39749 23.1576C7.63332 20.9331 11.0936 14.2596 11.588 12.2823C12.0823 10.7993 12.8238 7.33895 13.5653 4.62013C13.8125 3.13713 14.0596 1.9013 14.3068 1.40697C13.8125 2.6428 11.0936 8.82194 10.105 10.5521C8.86915 12.7766 3.92583 19.9444 3.67867 20.6859C3.18434 21.1802 2.44284 22.1689 2.44284 22.1689C2.44284 22.1689 5.16166 10.3049 5.65599 7.09178C5.90316 4.12579 5.16166 0.665466 5.16166 0.665466C5.16166 0.912632 1.45417 11.5408 1.20701 14.2596C0.712677 17.2256 -1.01748 23.6519 -1.26465 23.8991C-1.26465 23.6519 -1.26465 12.5294 -1.51182 11.0464C-1.51182 9.31627 -2.00615 4.37295 -2.00615 4.12578C-2.00615 4.62012 -3.73631 12.0351 -3.98347 14.2596C-3.98347 16.4841 -4.23064 26.865 -4.23064 26.865C-4.23064 26.865 -7.4438 20.1916 -8.18529 17.7199C-8.67963 15.4954 -11.3984 11.5408 -11.6456 11.2936C-11.6456 11.7879 -9.66829 18.2142 -9.42112 20.1916C-9.17396 22.1689 -7.4438 27.3594 -7.4438 27.8537C-7.69096 27.6065 -9.91545 23.6519 -10.9041 22.9104C-11.8928 22.4161 -16.0946 18.9557 -16.0946 18.9557C-16.0946 19.2029 -12.3871 24.8877 -11.8928 25.8764Z" fill="url(#paint0_linear_1_604)"/>
<path id="Vector_3" d="M-3.48895 35.2687L10.8467 31.0668C11.341 30.8197 17.273 28.8423 18.5088 28.348C19.7446 27.8537 27.6539 23.4047 29.6313 22.1689C31.6086 20.933 35.5632 17.967 35.5632 17.7199C35.3161 17.967 14.0598 28.5952 8.86934 30.0782C3.67886 31.5612 -3.48895 35.2687 -3.48895 35.2687Z" fill="url(#paint1_linear_1_604)"/>
<path id="Vector_4" d="M-3.48895 35.2686L9.1165 28.5952C9.858 28.1008 15.5428 23.899 16.5315 22.416C17.5201 20.933 20.9805 17.4727 22.4635 16.2369C23.9465 15.001 28.6426 9.31622 28.8898 9.31622C25.4294 12.7765 -3.24179 34.7743 -3.48895 35.2686Z" fill="url(#paint2_linear_1_604)"/>
<path id="Vector_5" d="M-3.24194 35.0215L7.63336 25.1349C7.88052 24.8878 12.8238 19.4501 14.0597 18.2143C15.2955 16.7313 18.7558 11.788 19.2502 10.7993C19.7445 9.56347 22.7105 4.37299 22.7105 4.37299C22.7105 4.37299 16.2842 13.0238 15.0483 14.754C14.0597 16.4841 -2.74761 34.5272 -3.24194 35.0215Z" fill="url(#paint3_linear_1_604)"/>
<path id="Vector_6" d="M-3.24194 35.0216L6.15036 23.1576C7.63335 20.9332 11.0937 14.2597 11.588 12.2823C12.0823 10.7994 12.8238 7.33903 13.5653 4.62021C11.8352 9.06919 8.86918 15.2483 7.38619 17.9672C5.40886 21.4275 -3.24194 35.0216 -3.24194 35.0216Z" fill="url(#paint4_linear_1_604)"/>
<path id="Vector_7" d="M5.16185 0.912689C5.16185 1.40702 2.93736 14.0125 2.69019 15.7426C2.44303 17.2256 -3.48895 34.5272 -3.48895 35.2687C-3.24179 35.0216 -0.0286305 27.1123 2.44303 22.4161C2.44303 22.4161 5.16185 10.5522 5.65618 7.33899C5.90335 4.373 5.16185 0.912689 5.16185 0.912689Z" fill="url(#paint5_linear_1_604)"/>
<path id="Vector_8" d="M13.3182 34.0328C11.588 34.0328 10.3522 34.0328 10.3522 34.0328C10.5993 34.0328 18.5087 33.7857 19.9916 33.5385C21.4746 33.5385 28.3953 33.0442 29.8783 32.797C31.1141 32.5498 36.5518 32.0555 37.7876 32.0555H38.0348C37.2933 32.0555 36.5518 31.8083 35.8103 31.8083C18.2615 30.3253 -2.74761 34.7743 -3.24194 35.0215L14.3068 34.28C13.8125 34.0328 13.5653 34.0328 13.3182 34.0328Z" fill="url(#paint6_linear_1_604)"/>
<path id="Vector_9" d="M12.0823 36.9989C12.0823 36.9989 24.935 39.2233 26.6651 38.9762C28.3953 38.9762 35.5631 38.9762 35.8103 38.9762C34.8216 38.729 16.2842 35.763 14.554 35.763C12.8238 35.763 -2.50045 35.0215 -3.24194 35.0215L12.0823 36.9989Z" fill="url(#paint7_linear_1_604)"/>
<path id="Vector_10" d="M-3.24194 35.0215L7.63336 38.9762C9.36352 39.4705 17.2728 42.4365 19.003 42.9308C20.9803 43.4252 32.3499 45.1553 32.8443 45.1553C32.1028 44.9082 18.0143 40.7063 15.0483 39.4705C12.0823 38.4818 -2.74761 35.0215 -3.24194 35.0215Z" fill="url(#paint8_linear_1_604)"/>
<path id="Vector_11" d="M-3.24194 35.0215L4.17303 40.212L11.3408 46.144C12.5767 47.1326 13.5653 47.8741 14.0597 48.1213C16.037 49.6043 22.2161 52.5703 22.4633 53.0646C22.9576 53.3118 25.4293 55.042 25.4293 55.042C24.935 54.5476 10.8465 42.9308 9.61068 41.9422C8.37485 40.9535 -3.24194 35.0215 -3.24194 35.0215Z" fill="url(#paint9_linear_1_604)"/>
<path id="Vector_12" d="M-3.48895 35.2687L2.93736 42.4365C3.43169 42.6837 9.858 48.8628 12.0825 50.8402C14.0598 52.8175 19.4975 57.2665 20.4861 57.5136C20.4861 57.5136 14.0598 50.593 11.341 48.1213C8.62217 45.4025 -3.48895 35.2687 -3.48895 35.2687Z" fill="url(#paint10_linear_1_604)"/>
<path id="Vector_13" d="M-3.48895 35.2687L-0.770128 41.9422C-0.522962 42.4365 2.19586 47.3798 3.18452 49.3572C4.42035 51.3345 10.1052 59.491 11.0938 60.4796C10.8467 59.9853 3.18453 45.8968 2.19586 44.4138C1.45436 42.9308 -3.24179 35.5159 -3.48895 35.2687Z" fill="url(#paint11_linear_1_604)"/>
<path id="Vector_14" d="M-3.48891 35.763L-4.23041 40.212C-4.23041 40.4591 -2.99458 47.3798 -2.25308 49.8514C-1.75875 52.3231 0.218579 57.0192 0.465744 57.5136C0.465744 57.0192 -2.00591 44.9081 -1.75875 43.9194C-2.00591 42.9308 -3.48891 35.763 -3.48891 35.763Z" fill="url(#paint12_linear_1_604)"/>
</g>
<defs>
<linearGradient id="paint0_linear_1_604" x1="17.2938" y1="18.158" x2="-8.83245" y2="57.8831" gradientUnits="userSpaceOnUse">
<stop stop-color="#336B7E"/>
<stop offset="0.3139" stop-color="#31687B"/>
<stop offset="0.5731" stop-color="#2B5E71"/>
<stop offset="0.812" stop-color="#224D5F"/>
<stop offset="1" stop-color="#173A4C"/>
</linearGradient>
<linearGradient id="paint1_linear_1_604" x1="14.1454" y1="37.884" x2="17.6248" y2="14.8817" gradientUnits="userSpaceOnUse">
<stop stop-color="#173A4C"/>
<stop offset="0.188" stop-color="#224D5F"/>
<stop offset="0.4269" stop-color="#2B5E71"/>
<stop offset="0.6861" stop-color="#31687B"/>
<stop offset="1" stop-color="#336B7E"/>
</linearGradient>
<linearGradient id="paint2_linear_1_604" x1="13.472" y1="28.2848" x2="11.308" y2="12.9147" gradientUnits="userSpaceOnUse">
<stop stop-color="#173A4C"/>
<stop offset="0.188" stop-color="#224D5F"/>
<stop offset="0.4269" stop-color="#2B5E71"/>
<stop offset="0.6861" stop-color="#31687B"/>
<stop offset="1" stop-color="#336B7E"/>
</linearGradient>
<linearGradient id="paint3_linear_1_604" x1="7.25959" y1="36.5649" x2="12.398" y2="2.58815" gradientUnits="userSpaceOnUse">
<stop stop-color="#173A4C"/>
<stop offset="0.188" stop-color="#224D5F"/>
<stop offset="0.4269" stop-color="#2B5E71"/>
<stop offset="0.6861" stop-color="#31687B"/>
<stop offset="1" stop-color="#336B7E"/>
</linearGradient>
<linearGradient id="paint4_linear_1_604" x1="3.73382" y1="18.4316" x2="13.9165" y2="28.5278" gradientUnits="userSpaceOnUse">
<stop stop-color="#173A4C"/>
<stop offset="0.188" stop-color="#224D5F"/>
<stop offset="0.4269" stop-color="#2B5E71"/>
<stop offset="0.6861" stop-color="#31687B"/>
<stop offset="1" stop-color="#336B7E"/>
</linearGradient>
<linearGradient id="paint5_linear_1_604" x1="-1.87769" y1="15.3875" x2="17.3455" y2="34.4492" gradientUnits="userSpaceOnUse">
<stop stop-color="#173A4C"/>
<stop offset="0.188" stop-color="#224D5F"/>
<stop offset="0.4269" stop-color="#2B5E71"/>
<stop offset="0.6861" stop-color="#31687B"/>
<stop offset="1" stop-color="#336B7E"/>
</linearGradient>
<linearGradient id="paint6_linear_1_604" x1="16.7139" y1="35.3637" x2="20.2785" y2="24.8761" gradientUnits="userSpaceOnUse">
<stop stop-color="#173A4C"/>
<stop offset="0.188" stop-color="#224D5F"/>
<stop offset="0.4269" stop-color="#2B5E71"/>
<stop offset="0.6861" stop-color="#31687B"/>
<stop offset="1" stop-color="#336B7E"/>
</linearGradient>
<linearGradient id="paint7_linear_1_604" x1="14.5493" y1="41.6357" x2="19.2367" y2="29.2712" gradientUnits="userSpaceOnUse">
<stop stop-color="#173A4C"/>
<stop offset="0.188" stop-color="#224D5F"/>
<stop offset="0.4269" stop-color="#2B5E71"/>
<stop offset="0.6861" stop-color="#31687B"/>
<stop offset="1" stop-color="#336B7E"/>
</linearGradient>
<linearGradient id="paint8_linear_1_604" x1="14.5483" y1="41.7363" x2="16.7374" y2="31.6631" gradientUnits="userSpaceOnUse">
<stop stop-color="#173A4C"/>
<stop offset="0.188" stop-color="#224D5F"/>
<stop offset="0.4269" stop-color="#2B5E71"/>
<stop offset="0.6861" stop-color="#31687B"/>
<stop offset="1" stop-color="#336B7E"/>
</linearGradient>
<linearGradient id="paint9_linear_1_604" x1="12.1266" y1="43.1729" x2="8.76219" y2="49.7576" gradientUnits="userSpaceOnUse">
<stop stop-color="#173A4C"/>
<stop offset="0.188" stop-color="#224D5F"/>
<stop offset="0.4269" stop-color="#2B5E71"/>
<stop offset="0.6861" stop-color="#31687B"/>
<stop offset="1" stop-color="#336B7E"/>
</linearGradient>
<linearGradient id="paint10_linear_1_604" x1="7.78626" y1="48.4442" x2="10.1788" y2="40.6577" gradientUnits="userSpaceOnUse">
<stop stop-color="#173A4C"/>
<stop offset="0.188" stop-color="#224D5F"/>
<stop offset="0.4269" stop-color="#2B5E71"/>
<stop offset="0.6861" stop-color="#31687B"/>
<stop offset="1" stop-color="#336B7E"/>
</linearGradient>
<linearGradient id="paint11_linear_1_604" x1="2.58157" y1="50.7432" x2="6.7616" y2="41.0457" gradientUnits="userSpaceOnUse">
<stop stop-color="#173A4C"/>
<stop offset="0.188" stop-color="#224D5F"/>
<stop offset="0.4269" stop-color="#2B5E71"/>
<stop offset="0.6861" stop-color="#31687B"/>
<stop offset="1" stop-color="#336B7E"/>
</linearGradient>
<linearGradient id="paint12_linear_1_604" x1="-1.97162" y1="48.1526" x2="-2.51917" y2="34.4812" gradientUnits="userSpaceOnUse">
<stop stop-color="#173A4C"/>
<stop offset="0.188" stop-color="#224D5F"/>
<stop offset="0.4269" stop-color="#2B5E71"/>
<stop offset="0.6861" stop-color="#31687B"/>
<stop offset="1" stop-color="#336B7E"/>
</linearGradient>
</defs>
</svg>
