<svg width="81" height="156" viewBox="0 0 81 156" fill="none" xmlns="http://www.w3.org/2000/svg">
<g id="Group 9">
<path id="Vector" d="M13.1604 17.64C12.2813 16.9095 11.4558 16.2589 10.6946 15.7045C13.0824 19.8672 15.4165 24.0613 17.654 28.3028C18.3237 29.5713 18.9943 30.8482 19.6657 32.1335L25.0038 30.7031C21.2845 26.1469 17.3313 21.7867 13.1604 17.64Z" fill="#EA90A6"/>
<path id="Vector_2" d="M7.99492 13.9988C7.67645 13.836 7.34436 13.7014 7.00244 13.5964C7.00244 13.5964 10.83 23.2125 15.0831 33.3614L18.1868 32.5297C14.9885 26.2452 11.5666 20.0698 7.99492 13.9988Z" fill="#EA90A6"/>
<path id="Vector_3" d="M7.38519 10.1566L7.44162 10.1977C7.4237 10.1828 7.40485 10.1691 7.38519 10.1566Z" fill="#1A1A1A"/>
<path id="Vector_4" d="M19.6657 32.1335C18.996 30.8492 18.3254 29.5723 17.654 28.3028C15.4165 24.0614 13.0824 19.8672 10.6947 15.7046C10.5099 15.3828 10.324 15.062 10.1369 14.7423C11.1593 15.6957 12.1651 16.6515 13.1604 17.64C17.3347 21.7856 21.2912 26.145 25.0138 30.7005L26.5987 30.2758C23.9669 27.0333 21.2428 23.8775 18.4059 20.8527C14.5933 17.5517 10.687 14.3571 6.60974 11.4355C6.52253 11.3719 6.44916 11.2912 6.39407 11.1984C6.33898 11.1056 6.30333 11.0025 6.28928 10.8955C6.27523 10.7885 6.28307 10.6798 6.31233 10.5759C6.34159 10.472 6.39166 10.3751 6.4595 10.2912C6.40104 10.3486 6.35232 10.4152 6.31526 10.4883C6.30355 10.5086 6.28932 10.5274 6.27815 10.5497C6.26698 10.572 6.26263 10.6117 6.25414 10.6439C6.22907 10.7299 6.22337 10.8204 6.23744 10.9089C6.25151 10.9973 6.285 11.0815 6.33552 11.1555C6.89934 12.0926 7.43933 13.0446 7.99223 13.9889C11.5639 20.0599 14.9858 26.2353 18.1841 32.5198L19.6657 32.1335Z" fill="#1A1A1A"/>
<path id="Vector_5" d="M6.60974 11.4355C10.687 14.3571 14.5933 17.5517 18.3959 20.8554C20.801 22.9456 23.167 25.0713 25.494 27.2324C26.4153 28.0887 27.317 28.9674 28.2255 29.84L29.9203 29.3858C28.802 28.306 27.6851 27.2237 26.5471 26.1663C20.4894 20.5301 14.1704 15.0303 7.44004 10.1934L7.38415 10.1527L7.35974 10.1335C7.29178 10.0809 7.21364 10.0429 7.13025 10.0221C7.04686 10.0012 6.96005 9.99792 6.87532 10.0124C6.79059 10.0268 6.70978 10.0587 6.63802 10.106C6.56625 10.1533 6.5051 10.215 6.45842 10.2872C6.39 10.3713 6.33946 10.4685 6.30992 10.5728C6.28038 10.6772 6.27245 10.7864 6.28661 10.8939C6.30078 11.0015 6.33674 11.1049 6.39231 11.1981C6.44787 11.2912 6.52186 11.372 6.60974 11.4355Z" fill="#1A1A1A"/>
<path id="Vector_6" d="M50.185 71.0956L57.3669 66.5858L46.0286 62.4266L37.3175 67.2734L50.185 71.0956Z" fill="#EA90A6"/>
<path id="Vector_7" d="M46.4921 61.0066L57.2613 64.9605C56.6452 63.956 56.0296 62.9535 55.3881 61.9666C49.7954 55.5396 37.9583 42.1085 27.1689 30.997C34.6869 40.3482 41.2801 50.4848 46.4921 61.0066Z" fill="#EA90A6"/>
<path id="Vector_8" d="M56.2046 94.72L66.2128 99.4391C65.9036 98.8129 65.434 97.9555 65.3618 97.7821C65.0009 96.9149 64.6301 96.0503 64.2413 95.1992C63.6095 93.8219 62.9424 92.462 62.2399 91.1194C58.827 84.5774 54.7199 78.1551 49.8694 72.5639L38.272 69.1168C45.7114 76.272 51.4626 85.7046 56.2046 94.72Z" fill="#EA90A6"/>
<path id="Vector_9" d="M73.4754 143.251C73.3591 143.212 73.2569 143.14 73.1818 143.043C60.7625 127.495 43.3467 115.036 25.8046 105.783C26.3215 107.208 69.3519 134.121 74.33 145.929C74.2028 145.35 74.0628 144.756 73.9172 144.157C73.8333 144.111 73.7602 144.048 73.7028 143.972C73.6454 143.896 73.6051 143.808 73.5846 143.715C73.5618 143.558 73.5126 143.406 73.4754 143.251Z" fill="#EA90A6"/>
<path id="Vector_10" d="M64.8163 125.348C67.2479 129.195 69.5791 133.131 71.7536 137.145C68.5469 126.992 63.6637 117.186 58.4007 108.048L48.4833 104.612C55.0403 110.448 60.1866 118.023 64.8163 125.348Z" fill="#EA90A6"/>
<path id="Vector_11" d="M59.6856 107.698C59.5689 107.807 59.6426 107.814 59.6856 107.698V107.698Z" fill="#EA90A6"/>
<path id="Vector_12" d="M61.3513 86.3001C58.3473 80.0535 55.0957 73.554 53.3468 70.8803L51.4169 72.0957C55.1624 76.5117 58.4882 81.267 61.3513 86.3001Z" fill="#EA90A6"/>
<path id="Vector_13" d="M36.2864 90.1095C31.7732 81.3562 24.7391 73.3555 16.9565 67.3097C16.9565 67.3097 35.8457 90.4075 37.1154 94.5784C37.3305 94.3901 38.1335 93.9093 38.1931 93.6363C38.2969 93.1523 36.6962 90.9036 36.2864 90.1095Z" fill="#EA90A6"/>
<path id="Vector_14" d="M59.8442 107.576C59.8775 107.64 59.9162 107.701 59.9597 107.759L60.7307 107.079C60.5448 107.185 60.361 107.298 60.1724 107.394C60.0597 107.448 59.9502 107.509 59.8442 107.576Z" fill="#EA90A6"/>
<path id="Vector_15" d="M58.7783 106.596L64.5438 102.052C64.9599 101.726 65.5652 101.371 65.9418 100.962L55.7257 96.1464L46.4584 102.331L58.7783 106.596Z" fill="#EA90A6"/>
<path id="Vector_16" d="M44.1092 102.309C44.1269 102.252 44.1518 102.197 44.1833 102.146C44.2506 102.013 44.3616 101.908 44.4974 101.848L54.6718 95.0515C49.5341 85.3345 43.2577 75.173 34.8622 68.0147C34.8208 67.9693 34.7868 67.9177 34.7613 67.8619C34.7505 67.8465 34.7405 67.8306 34.7313 67.8142C34.6705 67.689 34.6454 67.5493 34.659 67.4108C34.6725 67.2722 34.7241 67.14 34.808 67.0289C34.8712 66.9376 34.9555 66.8628 35.0537 66.811L44.9487 61.3065C39.572 50.5376 32.7645 40.1927 24.9947 30.7013L19.6646 32.1295C23.9372 40.3046 28.0981 48.7903 30.4158 57.6799C30.4535 57.8381 30.4408 58.0041 30.3793 58.1547C30.3179 58.3052 30.2107 58.4328 30.073 58.5193L18.7003 66.8146C27.5578 73.8662 35.3799 83.3372 39.6037 93.8324C39.6405 93.9586 39.6422 94.0924 39.6087 94.2195C39.5752 94.3466 39.5078 94.4621 39.4136 94.5538L36.3228 97.2563C35.3758 98.5189 33.7518 99.8044 32.0538 100.99L27.4845 104.986C42.854 113.197 58.1116 123.893 69.9226 136.931C68.1462 133.707 66.2857 130.534 64.341 127.412C58.9136 118.668 52.7966 109.389 44.4182 103.19C44.3937 103.171 44.3828 103.146 44.3604 103.127C44.3063 103.082 44.2597 103.03 44.2222 102.971C44.1514 102.878 44.1041 102.769 44.0845 102.654C44.0648 102.539 44.0733 102.42 44.1092 102.309Z" fill="#EA90A6"/>
<path id="Vector_17" d="M28.9651 57.5181C28.7552 57.4223 28.6166 56.5769 28.483 56.3022C27.8109 54.9292 27.4947 53.2297 26.9602 51.7942C25.5713 48.0579 23.9511 44.4094 22.2528 40.8053C20.9428 38.0268 19.581 35.2707 18.1868 32.5298L15.0851 33.3609C19.7178 44.4148 24.8554 56.0982 26.1045 56.691C27.25 57.2409 25.2053 59.6823 22.7643 62.0842C24.7086 60.7065 26.6346 59.2929 28.4969 57.8171C28.605 57.741 28.797 57.6339 28.9651 57.5181Z" fill="#EA90A6"/>
<path id="Vector_18" d="M26.5887 30.2785L25.0038 30.7031C32.772 40.1886 39.5811 50.5394 44.9578 61.3083L35.0628 66.8129C35.1432 66.7682 35.2319 66.7405 35.3235 66.7314C35.415 66.7224 35.5074 66.7322 35.595 66.7603L37.3175 67.2733L46.0286 62.4266L45.763 62.3307C44.8646 61.9995 45.2523 60.5526 46.1592 60.8836L46.4926 61.0085C41.2801 50.4848 34.6869 40.3481 27.1684 30.9949C26.9756 30.7553 26.7829 30.5156 26.5887 30.2785Z" fill="#1A1A1A"/>
<path id="Vector_19" d="M34.7404 67.8161C34.6869 67.6892 34.6658 67.5509 34.6792 67.4137C34.6926 67.2766 34.74 67.145 34.8171 67.0308C34.7332 67.1419 34.6816 67.2741 34.6681 67.4127C34.6545 67.5512 34.6796 67.6909 34.7404 67.8161Z" fill="#1A1A1A"/>
<path id="Vector_20" d="M35.2002 68.2048C35.1091 68.1801 35.0241 68.1371 34.9502 68.0785C34.8763 68.0199 34.8151 67.9468 34.7703 67.8638C34.7959 67.9196 34.8299 67.9712 34.8713 68.0167C43.2647 75.1669 49.5411 85.3284 54.6809 95.0534L44.5065 101.849C44.5827 101.814 44.6652 101.794 44.7493 101.79C44.8333 101.787 44.9172 101.8 44.996 101.83L46.4671 102.339L55.7343 96.1549L55.2952 95.9469C54.423 95.538 55.1767 94.2415 56.0443 94.6495L56.2137 94.7305C51.4729 85.719 45.7206 76.2824 38.2771 69.1197L35.2002 68.2048Z" fill="#1A1A1A"/>
<path id="Vector_21" d="M73.1817 143.043C73.2569 143.14 73.359 143.212 73.4753 143.251C72.9822 141.203 72.3944 139.169 71.7535 137.145C69.5791 133.131 67.2484 129.197 64.8162 125.348C60.186 118.021 55.0402 110.448 48.4833 104.612L44.5956 103.269C44.5102 103.238 44.4311 103.192 44.362 103.133C44.3844 103.152 44.3953 103.177 44.4198 103.196C52.7982 109.395 58.9152 118.674 64.3426 127.418C66.2799 130.539 68.1404 133.712 69.9242 136.937C58.1116 123.893 42.854 113.197 27.4845 104.986L32.0538 100.99L36.3227 97.2563L39.4136 94.5538C39.5078 94.4621 39.5752 94.3466 39.6087 94.2195C39.6422 94.0924 39.6405 93.9586 39.6037 93.8324C35.3815 83.3432 27.5572 73.8642 18.7003 66.8146L30.0741 58.5233C30.2118 58.4368 30.3189 58.3092 30.3804 58.1587C30.4419 58.0081 30.4546 57.8421 30.4168 57.6839C28.0991 48.7943 23.9383 40.3086 19.6657 32.1335L18.1868 32.5297C19.581 35.2707 20.9448 38.0262 22.2528 40.8052C23.951 44.4093 25.5708 48.0559 26.9601 51.7942C27.4947 53.2296 27.8009 54.9319 28.4829 56.3021C28.6165 56.5769 28.7552 57.4222 28.9651 57.5181C28.7969 57.6338 28.597 57.7431 28.499 57.8251C26.6367 59.3008 24.7085 60.7064 22.7664 62.0922C20.8764 63.4404 18.9731 64.7708 17.1039 66.1328C16.7598 66.3835 16.5375 66.985 16.9565 67.3097C24.7413 73.3635 31.7732 81.3562 36.2863 90.1095C36.6962 90.9036 38.2969 93.1522 38.1931 93.6363C38.1335 93.9093 37.3245 94.3917 37.1154 94.5784L32.7281 98.4144L25.6483 104.608C25.5686 104.69 25.5084 104.789 25.4725 104.897C25.4365 105.005 25.4256 105.121 25.4407 105.234C25.4557 105.347 25.4963 105.455 25.5593 105.55C25.6224 105.646 25.7063 105.725 25.8046 105.783C43.3466 115.036 60.7625 127.495 73.1817 143.043Z" fill="#1A1A1A"/>
<path id="Vector_22" d="M44.1117 102.302C44.1295 102.245 44.1544 102.19 44.1857 102.139C44.1543 102.19 44.1294 102.245 44.1117 102.302Z" fill="#1A1A1A"/>
<path id="Vector_23" d="M44.2222 102.971C44.1573 102.875 44.1136 102.766 44.0941 102.652C44.0746 102.538 44.0798 102.421 44.1092 102.309C44.0733 102.421 44.0648 102.539 44.0845 102.654C44.1041 102.769 44.1514 102.878 44.2222 102.971Z" fill="#1A1A1A"/>
<path id="Vector_24" d="M59.6566 65.9616C59.6096 65.8821 59.5566 65.8041 59.507 65.7232C51.4683 52.2703 41.1834 40.259 29.9203 29.3858L28.2295 29.8389C38.371 39.556 47.7303 50.1831 55.3942 61.9735C56.0357 62.9605 56.6513 63.9629 57.2674 64.9674C57.932 65.2091 58.5956 65.4526 59.2582 65.6977C59.3696 65.7402 59.4701 65.807 59.5523 65.8933C59.6346 65.9796 59.6964 66.0833 59.7334 66.1966C59.7703 66.31 59.7814 66.4302 59.7658 66.5484C59.7503 66.6666 59.7085 66.7798 59.6434 66.8797C59.7367 66.7626 59.7928 66.6201 59.8043 66.4708C59.8159 66.3215 59.7823 66.1721 59.7081 66.042L59.6566 65.9616Z" fill="#1A1A1A"/>
<path id="Vector_25" d="M66.9637 101.442L65.9412 100.96C65.5647 101.369 64.9588 101.722 64.5433 102.05L58.7777 106.594L59.1151 106.717C60.0217 107.031 59.632 108.479 58.7183 108.162L58.4023 108.054C63.6652 117.192 68.5484 126.998 71.7552 137.151C72.396 139.175 72.9838 141.209 73.477 143.257C73.5182 143.411 73.5594 143.565 73.6001 143.717C73.6207 143.81 73.661 143.898 73.7184 143.974C73.7758 144.05 73.8489 144.113 73.9328 144.159C74.4183 144.436 75.2263 144.046 75.0571 143.326C72.4376 132.224 67.3992 121.662 62.0787 111.638C61.4432 110.442 60.8641 108.776 59.9666 107.753C59.9231 107.695 59.8844 107.634 59.8511 107.57C59.9579 107.501 60.0684 107.439 60.1822 107.383C60.3708 107.287 60.5546 107.173 60.7405 107.068C63.2658 105.62 65.6293 103.089 67.8825 101.314C67.996 101.203 68.0652 101.055 68.0772 100.897C68.0512 101.013 67.9993 101.122 67.9256 101.216C67.8518 101.309 67.758 101.385 67.6512 101.437C67.5443 101.489 67.427 101.517 67.308 101.518C67.189 101.519 67.0713 101.493 66.9637 101.442ZM59.6841 107.698C59.5695 107.806 59.6419 107.812 59.6841 107.698V107.698Z" fill="#1A1A1A"/>
<path id="Vector_26" d="M58.8568 67.1333L57.367 66.5857L50.185 71.0956L50.4948 71.1882C51.4248 71.4616 51.0246 72.9098 50.098 72.6333L49.8655 72.5649C54.7159 78.1562 58.823 84.5785 62.236 91.1204C62.9358 92.4637 63.6029 93.8237 64.2374 95.2002C64.6292 96.0549 65.0011 96.9234 65.3579 97.7832C65.4301 97.9566 65.8997 98.814 66.2088 99.4401L67.7088 100.146C67.8002 100.189 67.8821 100.25 67.9497 100.325C66.1303 95.4807 63.9237 90.7905 61.3514 86.3001C58.4883 81.267 55.1624 76.5116 51.4169 72.0957L53.3514 70.8812L59.3151 67.1412C59.1666 67.1955 59.0033 67.1927 58.8568 67.1333Z" fill="#1A1A1A"/>
<path id="Vector_27" d="M67.7128 100.145L66.2128 99.4391L56.2046 94.72L56.0351 94.6391C55.1669 94.2291 54.4133 95.5256 55.286 95.9365L55.7251 96.1444L65.9413 100.96L66.9637 101.442C67.0704 101.491 67.1865 101.515 67.3037 101.514C67.421 101.512 67.5365 101.485 67.6419 101.433C67.7473 101.382 67.84 101.308 67.9134 101.217C67.9868 101.125 68.039 101.019 68.0663 100.905C68.0973 100.806 68.1032 100.701 68.0835 100.6C68.0639 100.499 68.0192 100.404 67.9537 100.324C67.886 100.249 67.8042 100.188 67.7128 100.145Z" fill="#1A1A1A"/>
<path id="Vector_28" d="M44.9889 101.819C44.9101 101.789 44.8262 101.776 44.7421 101.779C44.658 101.783 44.5755 101.803 44.4993 101.839C44.3635 101.899 44.2525 102.004 44.1852 102.137C44.1538 102.188 44.1289 102.243 44.1111 102.3C44.0817 102.412 44.0765 102.529 44.096 102.643C44.1155 102.757 44.1592 102.866 44.2241 102.962C44.2616 103.021 44.3082 103.073 44.3623 103.118C44.4314 103.177 44.5105 103.223 44.5959 103.254L48.4793 104.613L58.3967 108.05L58.7127 108.158C59.6265 108.474 60.0162 107.027 59.1095 106.713L58.7721 106.589L46.4538 102.322L44.9889 101.819Z" fill="#1A1A1A"/>
<path id="Vector_29" d="M35.595 66.7603C35.5074 66.7322 35.415 66.7224 35.3235 66.7314C35.232 66.7405 35.1433 66.7682 35.0629 66.8129C34.9646 66.8647 34.8803 66.9395 34.8171 67.0308C34.74 67.145 34.6926 67.2766 34.6792 67.4137C34.6658 67.5509 34.6869 67.6892 34.7405 67.8161C34.7496 67.8325 34.7596 67.8484 34.7704 67.8638C34.8151 67.9468 34.8763 68.0199 34.9502 68.0785C35.0241 68.1371 35.1092 68.1801 35.2002 68.2048L38.2701 69.1173L49.8675 72.5644L50.1 72.6328C51.0306 72.9082 51.4188 71.4633 50.4967 71.1877L50.187 71.0951L37.3176 67.2734L35.595 66.7603Z" fill="#1A1A1A"/>
<path id="Vector_30" d="M59.2555 65.6877C58.5915 65.4372 57.9279 65.1938 57.2648 64.9573L46.496 61.0054L46.1627 60.8805C45.2557 60.5495 44.868 61.9964 45.7665 62.3276L46.0321 62.4235L57.3704 66.5827L58.8602 67.1303C59.0071 67.1865 59.1696 67.1865 59.3164 67.1301C59.4515 67.082 59.5657 66.9885 59.6397 66.8657C59.704 66.766 59.7453 66.6531 59.7605 66.5355C59.7757 66.4178 59.7645 66.2982 59.7277 66.1853C59.6909 66.0725 59.6295 65.9693 59.5478 65.8832C59.4661 65.7972 59.3663 65.7304 59.2555 65.6877Z" fill="#1A1A1A"/>
</g>
</svg>
