<svg width="75" height="50" viewBox="0 0 75 50" fill="none" xmlns="http://www.w3.org/2000/svg">
<g id="Group 10">
<path id="Vector" d="M31.6221 35.6425C31.0074 34.912 30.5789 34.2999 30.599 34.1036C30.6252 33.8311 31.6157 28.0545 33.0403 21.4732C32.8285 23.4726 32.6182 25.4664 32.4094 27.4548C32.1188 30.1812 31.8564 32.9105 31.6221 35.6425Z" fill="white"/>
<path id="Vector_2" d="M26.7099 35.995C23.6366 33.464 20.5667 30.931 17.5003 28.396C21.8744 31.3705 26.7405 35.4921 31.233 39.6155C31.2351 39.6479 31.2373 39.683 31.2392 39.7126L26.7099 35.995Z" fill="white"/>
<path id="Vector_3" d="M15.5067 29.2933C19.7976 32.8381 24.0927 36.3782 28.392 39.9135C34.4664 44.9168 40.5433 49.9173 46.6228 54.9149L47.8371 55.9217C48.1065 56.6306 48.3652 57.3401 48.6339 58.0382L25.5709 39.8419L11.5844 28.8063C10.8617 28.2532 9.4102 26.7061 7.98876 25.6365C11.0657 24.5247 12.7985 27.0561 15.5067 29.2933Z" fill="white"/>
<path id="Vector_4" d="M68.8116 74.3253C69.9954 77.2135 69.9484 79.9951 69.5957 82.9097C69.5233 82.749 69.4394 82.5783 69.3815 82.433C68.4194 80.0562 67.4297 77.7136 66.4262 75.3664C63.5676 68.6757 60.6325 62.0168 57.6843 55.3642C53.9835 47.0248 50.2575 38.7005 46.5063 30.3913C47.4599 30.9569 48.4214 31.5165 49.3801 32.0764C53.5428 40.8417 57.6573 49.629 61.7234 58.4383C64.1428 63.7024 66.6135 68.9633 68.8116 74.3253Z" fill="white"/>
<path id="Vector_5" d="M34.9512 38.5365C35.4504 37.5599 35.8655 36.5832 36.1504 36.0751C37.0924 34.3909 37.9944 32.6712 38.9023 30.9621C39.009 31.2804 39.1265 31.5979 39.2332 31.9162C38.3773 33.6356 37.5188 35.3552 36.674 37.0794C36.3231 37.7866 35.6811 38.2143 34.9512 38.5365Z" fill="white"/>
<path id="Vector_6" d="M41.727 39.1364C43.2668 43.5206 44.8462 47.8879 46.4651 52.2383L45.5683 51.5013L41.727 39.1364Z" fill="white"/>
<path id="Vector_7" d="M72.5572 78.2439C72.6474 81.3987 72.0304 83.7721 71.2216 85.5075C71.806 81.885 72.418 78.1417 71.0819 74.6834C69.0481 69.479 66.6215 64.4022 64.2931 59.3355C60.3784 50.7965 56.3795 42.2953 52.3576 33.8172C53.1862 34.3311 54.4567 35.2396 55.7184 35.8372L54.3771 36.0408C54.3771 36.0408 72.3096 69.837 72.5572 78.2439Z" fill="white"/>
<path id="Vector_8" d="M57.6534 26.5644C56.1129 23.6038 54.0032 20.8497 52.1242 18.1054C48.4767 12.7778 44.746 7.50411 40.9791 2.25982C40.9174 2.18202 40.8447 2.11361 40.7632 2.05675C45.9874 4.16528 59.9956 27.5057 59.9703 29.3407C59.9414 31.3331 58.8603 35.3686 58.8603 35.3686C58.9124 32.3674 59.0521 29.2523 57.6534 26.5644Z" fill="white"/>
<path id="Vector_9" d="M51.1428 30.8659C49.022 29.6435 46.9117 28.3997 44.8117 27.1344C44.1024 26.7079 43.1001 27.5645 43.4461 28.3281C48.3166 39.1016 53.1397 49.8971 57.9154 60.7146C60.6416 66.8937 63.36 73.0788 65.9754 79.3055C66.7719 81.2026 67.582 83.1015 68.2992 85.0306C67.0669 84.2118 65.2472 83.4841 64.3208 82.8789C61.4828 81.0318 58.6817 79.1255 55.8833 77.2191C50.1847 73.3394 44.5211 69.4116 38.756 65.6363C36.9367 64.4428 31.4347 59.5975 28.9372 60.2341C26.1945 60.9348 29.5369 66.7935 30.098 68.1773C32.8399 74.9512 35.8195 81.629 38.7037 88.3398C39.975 91.3255 41.2625 94.3128 42.452 97.3334C42.8387 98.3138 43.8662 100.223 44.0725 101.565C43.7319 101.603 43.3883 101.607 43.0469 101.578C41.9231 101.407 40.785 101.311 39.659 101.149C36.5294 100.693 33.4119 100.129 30.3084 99.5278C26.9909 98.8835 23.6812 98.19 20.3997 97.3864C18.3315 96.8829 15.2424 96.5547 13.4592 95.3318C10.7001 93.4472 10.5468 85.8495 9.98841 82.7865C8.46944 74.4885 7.15587 66.155 6.04769 57.786C4.87499 48.9227 3.76926 39.7465 4.93012 30.8257C5.09343 29.548 5.45319 28.3364 5.69136 27.0865C5.72575 26.9424 5.73016 26.7928 5.70432 26.647C6.56281 26.991 7.59735 28.1527 8.27048 28.6926C22.2381 39.6861 36.194 50.6939 50.1382 61.716C50.8648 62.2878 52.0823 61.6234 51.7103 60.6611C47.5664 49.9429 43.5849 39.1386 40.0211 28.2133C39.756 27.4012 38.6134 27.3621 38.2234 28.0935C37.29 29.8711 36.3428 31.6459 35.3819 33.418C34.69 34.6883 33.9954 35.9589 33.267 37.2072C33.2682 37.2261 33.2301 37.2664 33.2178 37.2861C33.396 35.8152 33.6888 34.1853 33.7749 33.2293C34.1616 29.1914 34.5976 25.1613 35.0828 21.1388C35.4969 17.6923 35.9271 14.2448 36.4753 10.8196C36.6705 9.61839 37.0561 8.34563 37.1458 7.14567C38.1502 8.77507 40.1938 10.6505 41.1257 11.9459C43.2507 14.8995 45.3188 17.8946 47.3768 20.9039C49.3886 23.8646 51.3742 26.8423 53.3339 29.837C53.6157 30.2688 54.328 31.7324 55.0721 33.0559C53.7442 32.3542 52.4384 31.6158 51.1428 30.8659ZM12.6207 84.2051C12.8537 84.9379 13.9801 84.5474 13.7473 83.8173C13.3442 82.5559 13.0481 81.2627 12.8621 79.9516C12.755 79.1973 11.5653 79.2695 11.6725 80.0264C11.8701 81.4436 12.1873 82.8415 12.6207 84.2051ZM8.4399 50.529C8.48813 51.2951 9.67217 51.2179 9.62681 50.4543C9.56162 49.2981 9.36598 48.153 9.04361 47.0408C8.83203 46.3039 7.70562 46.6944 7.91704 47.4286C8.20602 48.4394 8.38139 49.4793 8.4399 50.529ZM6.96308 39.4588C6.80054 40.4621 6.89413 41.4903 7.23519 42.4478C7.49178 43.1682 8.61043 42.7837 8.36176 42.06C8.08653 41.3072 8.00664 40.4969 8.12956 39.7049C8.24977 38.9472 7.08329 38.701 6.96308 39.4588ZM7.35921 32.5008C7.28082 33.2776 7.19974 34.0546 7.12135 34.8313C7.04296 35.6081 8.21163 35.846 8.28766 35.0748C8.36369 34.3036 8.44713 33.5211 8.52552 32.7443C8.60391 31.9675 7.44132 31.7401 7.36461 32.5005L7.35921 32.5008ZM11.1259 72.161L11.4848 75.4099C11.5706 76.171 12.7577 76.0989 12.6744 75.3351C12.5561 74.2592 12.4356 73.1763 12.3128 72.0863C12.2351 71.3248 11.0455 71.3997 11.1313 72.1607L11.1259 72.161ZM11.3345 43.9825C11.2863 43.2165 10.0994 43.2912 10.1476 44.0573L10.3651 47.5128C10.4134 48.2789 11.6001 48.2015 11.552 47.4381L11.3345 43.9825ZM12.7619 35.982C12.7136 35.2159 11.524 35.2908 11.5722 36.0569L11.7655 39.1267C11.8137 39.8928 13.0031 39.8152 12.9551 39.0518L12.7619 35.982ZM16.4056 75.4956C16.3065 74.7381 15.1167 74.8103 15.216 75.5705C15.3725 76.7882 15.6412 77.9888 16.0186 79.1571C16.2514 79.8872 17.378 79.4994 17.1425 78.7694C16.7989 77.7018 16.554 76.6049 16.4108 75.4925L16.4056 75.4956ZM61.8455 78.0164C62.1258 78.7272 63.2527 78.3449 62.972 77.6286C62.4752 76.3618 61.9794 75.0957 61.4845 73.8306C61.2041 73.1197 60.0774 73.5048 60.3579 74.2183C60.8558 75.4743 61.3534 76.7393 61.8507 78.0134L61.8455 78.0164ZM59.9141 70.6525C59.5964 69.9088 59.2787 69.1632 58.9608 68.4159C58.6594 67.7145 57.5325 68.0969 57.8342 68.8037C58.136 69.5105 58.4699 70.2965 58.7877 71.043C59.0968 71.7385 60.2238 71.3561 59.9193 70.6494L59.9141 70.6525ZM57.4427 74.4154C57.7575 75.1132 58.8763 74.7314 58.5693 74.0276L57.4284 71.3912C57.1136 70.6934 55.9948 71.0752 56.3018 71.779L57.4427 74.4154ZM55.7764 64.1208C56.0751 64.8223 57.2048 64.4398 56.903 63.733L55.854 61.2668C55.5553 60.5653 54.4257 60.9478 54.7275 61.6546L55.7764 64.1208Z" fill="white"/>
<path id="Vector_10" d="M5.75483 24.5666C5.89768 24.4666 6.04894 24.3791 6.2069 24.3052C6.06043 24.3876 5.91429 24.4753 5.7631 24.5688L5.75483 24.5666Z" fill="white"/>
<path id="Vector_11" d="M49.5255 17.7788C51.4927 20.634 53.4895 23.4873 55.3002 26.439C56.3206 28.108 56.6863 29.8291 56.8292 31.6265C56.7162 31.4657 56.589 31.2949 56.493 31.1466C54.4403 27.9231 52.3201 24.7444 50.1815 21.575C46.5985 16.2812 43.1248 10.7043 38.9623 5.84245C38.7797 5.63622 38.5865 5.43956 38.3836 5.25328L39.9241 4.17052C43.1634 8.67888 46.3639 13.215 49.5255 17.7788Z" fill="white"/>
<path id="Vector_12" d="M51.0765 31.103C50.5398 29.9776 48.6835 30.6036 49.2208 31.7398L49.3774 32.0765C48.4187 31.5167 47.4572 30.9571 46.5036 30.3915C50.255 38.7043 53.981 47.0285 57.6816 55.3644C60.6298 62.017 63.5649 68.6759 66.4235 75.3666C67.427 77.7138 68.4253 80.0639 69.3788 82.4332C69.4367 82.5785 69.5206 82.7492 69.593 82.9099C69.4361 84.2034 69.2156 85.52 69.031 86.8884C69.0104 87.0269 69.0193 87.1682 69.0572 87.303C69.095 87.4379 69.1609 87.5632 69.2505 87.6708C69.3401 87.7784 69.4514 87.8659 69.5771 87.9275C69.7029 87.9891 69.8402 88.0235 69.9802 88.0284C69.8623 88.0375 69.7437 88.0322 69.6271 88.0127C68.6787 87.918 67.4036 87.1073 66.5593 86.6026C61.417 83.5139 56.5105 79.9988 51.5584 76.6192C46.2326 72.9815 40.9234 69.3076 35.474 65.8565C35.1071 64.9335 34.7394 64.0115 34.3709 63.0904C33.9047 61.9227 32.0514 62.5539 32.5153 63.7272C32.589 63.9094 32.6599 64.0891 32.7308 64.2688C31.964 63.919 31.1006 63.54 30.3871 63.1326C30.643 63.8423 30.8184 64.6925 31.0355 65.2584C33.9501 72.8394 37.3513 80.2353 40.5454 87.6957C41.9802 91.0421 43.4259 94.3906 44.7233 97.7916C44.7555 97.8736 44.7997 97.9737 44.832 98.0556C44.7081 99.4807 44.4785 100.895 44.145 102.286C43.8623 103.517 45.7801 103.911 46.0658 102.685C46.0667 102.69 46.067 102.696 46.0668 102.701C46.0535 102.754 46.035 102.805 46.0114 102.853C45.9695 103.003 45.8853 103.138 45.7689 103.241C45.6524 103.345 45.5087 103.413 45.3548 103.436C43.4795 104.448 38.763 103.264 36.1675 102.644C35.6449 102.517 35.1806 102.411 34.8793 102.357C28.5271 101.259 22.1139 100.052 15.9326 98.2255C12.1629 97.1087 10.9536 96.5701 10.0305 92.7473C8.20219 85.2144 7.0359 77.4855 5.83661 69.8345C5.14354 65.4069 4.46462 60.9459 3.88533 56.4759C3.09794 50.3778 2.52298 44.2556 2.57048 38.1266C2.59034 35.7746 1.93622 24.9532 5.54187 24.5394C5.60931 24.5351 5.68975 24.5652 5.76292 24.5661C5.63263 24.6474 5.51952 24.7005 5.38704 24.7901C4.34743 25.4839 5.42483 27.1114 6.47776 26.4141C6.94829 26.095 7.45562 25.8339 7.98874 25.6365C9.41018 26.7061 10.8617 28.2532 11.5796 28.8174L25.5662 39.8531L48.6291 58.0493C48.3599 57.3432 48.1013 56.6336 47.8324 55.9329L47.9667 56.0436C48.9378 56.8437 50.2347 55.3754 49.2609 54.5755L46.4589 52.2685C44.831 47.9187 43.2516 43.5514 41.7208 39.1666C41.1856 37.6349 40.6557 36.1002 40.131 34.5625C40.4613 33.8727 40.7888 33.1805 41.1279 32.5011C41.6912 31.3823 39.9399 30.4932 39.3798 31.6199L39.2234 31.9331C39.1167 31.6148 38.9993 31.2972 38.8926 30.9789C37.9846 32.6881 37.0823 34.4023 36.1406 36.0919C35.8581 36.5945 35.4433 37.5766 34.9414 38.5534C33.9836 38.9223 32.9975 39.2135 31.9929 39.4241C31.8659 39.4499 31.7467 39.5051 31.645 39.5854C31.5432 39.6656 31.4618 39.7687 31.4072 39.8862L31.2186 39.7302C31.2168 39.7005 31.2145 39.6654 31.2125 39.633C31.194 38.6945 31.4242 37.6184 31.4862 36.8399C31.5183 36.4452 31.5668 36.0549 31.6015 35.66C31.831 32.9373 32.0934 30.2081 32.3888 27.4723C32.5997 25.4874 32.81 23.4936 33.0197 21.4908C33.5349 16.7677 34.0979 12.0308 35.0718 7.41161C35.2087 6.60409 35.4841 5.8263 35.8858 5.11257C35.8917 5.80821 36.6411 6.48412 37.3776 5.96653L38.3684 5.27045C38.5713 5.45673 38.7645 5.65338 38.9471 5.85961C43.1096 10.7215 46.5913 16.2979 50.1663 21.5922C52.3049 24.7616 54.4251 27.9402 56.4777 31.1638C56.5737 31.3121 56.7009 31.4828 56.814 31.6436C56.9111 32.886 56.9156 34.1613 56.8916 35.5007C56.8709 36.764 58.8232 36.6303 58.8446 35.3777C58.8588 35.5487 58.8263 35.7204 58.7506 35.8745C58.6749 36.0285 58.5589 36.1591 58.4149 36.2524C57.6954 36.6119 56.7033 36.3385 55.682 35.8612C54.4203 35.2635 53.1498 34.355 52.3213 33.8411C51.9193 32.9186 51.5044 32.0077 51.0765 31.103ZM47.3663 20.9072C45.319 17.8973 43.2509 14.9022 41.1151 11.9493C40.1832 10.6539 38.1396 8.77843 37.1352 7.14902C37.0462 8.35978 36.6568 9.61652 36.4646 10.8229C35.9165 14.2481 35.4863 17.6957 35.0722 21.1422C34.5903 25.159 34.1557 29.1828 33.7685 33.2135C33.677 34.1698 33.3734 35.8003 33.2114 37.2702C33.2237 37.2505 33.251 37.2109 33.2606 37.1913C33.9944 35.9427 34.6831 34.6644 35.3755 33.4021C36.3368 31.6372 37.284 29.8624 38.217 28.0776C38.5989 27.3468 39.7496 27.3854 40.0147 28.1974C43.5893 39.122 47.5601 49.9297 51.7039 60.6452C52.0759 61.6076 50.8584 62.2719 50.1318 61.7002C36.1834 50.6964 22.2296 39.6939 8.27049 28.6926C7.58945 28.1559 6.55474 26.9915 5.70433 26.6469C5.73017 26.7928 5.72576 26.9424 5.69138 27.0865C5.4532 28.3364 5.09345 29.548 4.93014 30.8257C3.76927 39.7465 4.87518 48.9254 6.0477 57.7859C7.15375 66.1497 8.46732 74.4832 9.98843 82.7865C10.5469 85.8495 10.7001 93.4472 13.4593 95.3318C15.2505 96.5541 18.3396 96.8824 20.4053 97.3888C23.6868 98.1924 26.9992 98.8857 30.314 99.5301C33.4175 100.131 36.535 100.696 39.6646 101.151C40.7906 101.313 41.9287 101.41 43.0525 101.58C43.3939 101.61 43.7375 101.605 44.078 101.567C43.8653 100.21 42.8387 98.3138 42.4576 97.3357C41.2545 94.3133 39.975 91.3254 38.696 88.3457C35.8196 81.629 32.8322 74.9571 30.0903 68.1832C29.5292 66.7994 26.1868 60.9407 28.9294 60.24C31.435 59.6029 36.9371 64.4482 38.7482 65.6422C44.5133 69.4174 50.177 73.3453 55.8755 77.2249C58.674 79.1314 61.4751 81.0377 64.3131 82.8848C65.2395 83.4899 67.0592 84.2177 68.2915 85.0365C67.5742 83.1074 66.7641 81.2085 65.9677 79.3114C63.3522 73.0847 60.6339 66.8996 57.9077 60.7205C53.1372 49.9009 48.3138 39.1009 43.4375 28.3204C43.0915 27.5568 44.0938 26.7003 44.8031 27.1268C46.8994 28.3905 49.0097 29.6343 51.1342 30.8583C52.4299 31.6082 53.7357 32.3465 55.0635 33.0483C54.3194 31.7248 53.6071 30.2612 53.3253 29.8294C51.3697 26.8417 49.3834 23.8676 47.3663 20.9072Z" fill="#1A1A1A"/>
<path id="Vector_13" d="M69.0283 86.8886C69.2266 85.522 69.4388 84.2033 69.5903 82.9101C69.9484 79.9952 69.99 77.2139 68.8062 74.3257C66.6081 68.9637 64.1375 63.7028 61.7181 58.4387C57.6606 49.6252 53.5462 40.8379 49.3747 32.0768L49.2181 31.74C48.6781 30.604 50.5344 29.978 51.0738 31.1032C51.5018 32.0079 51.9166 32.9188 52.3446 33.8235C56.3669 42.3096 60.3659 50.8108 64.28 59.3417C66.6089 64.4166 69.035 69.4853 71.0688 74.6897C72.4144 78.1257 71.7921 81.8778 71.2076 85.5002C71.1098 86.0968 71.0119 86.6933 70.9299 87.2835C70.9182 87.3967 70.8834 87.5064 70.8277 87.6057C70.772 87.7051 70.6965 87.792 70.606 87.8611C70.5155 87.9302 70.4118 87.9801 70.3013 88.0076C70.1908 88.0352 70.0759 88.0399 69.9635 88.0213C69.8255 88.0145 69.6904 87.9789 69.5669 87.9169C69.4433 87.8548 69.3341 87.7678 69.2461 87.6612C69.1581 87.5546 69.0933 87.4309 69.0558 87.2979C69.0183 87.1648 69.0089 87.0255 69.0283 86.8886Z" fill="#1A1A1A"/>
<path id="Vector_14" d="M31.2284 39.7133L31.417 39.8694C31.3515 40.0472 31.3352 40.2394 31.37 40.4257C31.4047 40.612 31.4892 40.7854 31.6144 40.9276C31.7396 41.0699 31.9009 41.1756 32.0813 41.2337C32.2617 41.2918 32.4544 41.3 32.6391 41.2576L32.9965 41.1701C37.1857 44.6202 41.3748 48.0686 45.5638 51.5151L46.4606 52.2522L49.2626 54.5592C50.2364 55.3591 48.9395 56.8274 47.9684 56.0273L47.8341 55.9166L46.6197 54.9097C40.544 49.9137 34.4663 44.9151 28.3866 39.9139C24.0908 36.3765 19.7957 32.8365 15.5013 29.2936C12.7931 27.0565 11.0603 24.5251 7.99146 25.6364C7.45167 25.8336 6.93797 26.0961 6.46177 26.4178C5.42233 27.1143 4.31795 25.4885 5.37105 24.7939C5.50353 24.7043 5.61664 24.6511 5.74693 24.5698C5.87722 24.4885 6.04425 24.3886 6.19073 24.3063C9.35554 22.4821 11.1668 23.1616 13.9239 25.4444C15.1125 26.4294 16.3028 27.4115 17.4946 28.3909C20.5627 30.924 23.6326 33.4571 26.7042 35.99L31.2284 39.7133Z" fill="#1A1A1A"/>
<path id="Vector_15" d="M56.9061 35.4727C56.9301 34.1333 56.9256 32.858 56.8285 31.6156C56.6855 29.8183 56.3199 28.0972 55.2995 26.4282C53.4884 23.4711 51.4918 20.6205 49.5248 17.768C46.3719 13.2 43.1733 8.66378 39.9288 4.15935L38.3916 5.25273L37.4009 5.94882C36.6643 6.46641 35.915 5.79049 35.9091 5.09486C35.9046 4.94293 35.9391 4.79237 36.0093 4.65757C36.0795 4.52277 36.1831 4.40822 36.3102 4.32485L39.6245 1.99298C39.7965 1.88014 40.0002 1.82543 40.2057 1.83687C40.4111 1.84831 40.6075 1.92529 40.7659 2.05653C40.8474 2.1134 40.9201 2.18181 40.9818 2.25961C44.7487 7.5039 48.4794 12.7775 52.1269 18.1052C54.0058 20.8495 56.1156 23.6036 57.6561 26.5642C59.0548 29.2521 58.9159 32.3807 58.8624 35.3603C58.8384 36.613 56.8942 36.7463 56.9061 35.4727Z" fill="#1A1A1A"/>
<path id="Vector_16" d="M32.9965 41.1701L32.6391 41.2576C32.4544 41.3 32.2617 41.2918 32.0813 41.2337C31.901 41.1756 31.7396 41.0699 31.6144 40.9277C31.4892 40.7854 31.4047 40.612 31.37 40.4257C31.3352 40.2394 31.3515 40.0472 31.417 39.8694C31.4716 39.7519 31.5531 39.6488 31.6548 39.5686C31.7565 39.4883 31.8757 39.4331 32.0027 39.4073C33.0073 39.1967 33.9934 38.9055 34.9513 38.5365C35.6815 38.2198 36.3232 37.7867 36.671 37.0742C37.5158 35.35 38.3743 33.6304 39.2302 31.911L39.3865 31.5979C39.9471 30.4793 41.6973 31.3495 41.1346 32.479C40.7956 33.1585 40.4681 33.8507 40.1378 34.5404C39.4915 35.8892 38.8453 37.2406 38.1287 38.5478C37.2156 40.2193 34.7968 40.7291 32.9965 41.1701Z" fill="#1A1A1A"/>
<path id="Vector_17" d="M9.04366 47.0408C9.36602 48.153 9.56166 49.2982 9.62686 50.4543C9.67491 51.2177 8.48278 51.2955 8.43995 50.5291C8.38143 49.4793 8.20606 48.4394 7.91708 47.4286C7.70567 46.6944 8.83208 46.3039 9.04366 47.0408Z" fill="#1A1A1A"/>
<path id="Vector_18" d="M8.13497 39.7046C8.01205 40.4966 8.09194 41.3069 8.36717 42.0597C8.62394 42.7828 7.49719 43.1679 7.2406 42.4474C6.89955 41.4899 6.80595 40.4618 6.96849 39.4585C7.0833 38.7011 8.24978 38.9472 8.13497 39.7046Z" fill="#1A1A1A"/>
<path id="Vector_19" d="M10.3706 47.5125L10.1529 44.0543C10.1047 43.2882 11.2916 43.2134 11.3398 43.9795L11.5575 47.4378C11.6055 48.2012 10.4188 48.2786 10.3706 47.5125Z" fill="#1A1A1A"/>
<path id="Vector_20" d="M7.12675 34.831C7.20514 34.0542 7.28623 33.2773 7.36462 32.5005C7.443 31.7237 8.60781 31.9862 8.53093 32.7439C8.45405 33.5017 8.37145 34.2977 8.29306 35.0744C8.21468 35.8512 7.04987 35.5887 7.12675 34.831Z" fill="#1A1A1A"/>
<path id="Vector_21" d="M11.7709 39.1264L11.5773 36.0512C11.5291 35.2851 12.7187 35.2102 12.7669 35.9763L12.9605 39.0515C13.0087 39.8176 11.8193 39.8951 11.7709 39.1264Z" fill="#1A1A1A"/>
</g>
</svg>
