<svg width="39" height="33" viewBox="0 0 39 33" fill="none" xmlns="http://www.w3.org/2000/svg">
<g id="Group">
<path id="Vector" d="M-27.7116 43.144C-27.7116 42.8969 -26.7229 41.9082 -25.9814 40.9195C-25.2399 39.9309 -24.2512 38.695 -23.7569 37.4592C-23.0154 36.2234 -20.0494 33.5045 -19.0608 33.9989C-18.3193 34.4932 -19.3079 36.4705 -19.8023 37.212C-20.2966 37.9535 -22.7682 39.6837 -23.2626 40.4252C-23.7569 41.1667 -24.9927 43.144 -25.4871 45.1214C-25.9814 47.0987 -25.7342 47.8402 -25.4871 47.3459C-25.4871 46.8515 -24.7456 46.11 -24.7456 46.11C-24.7456 46.11 -24.7456 46.3572 -24.7456 47.593C-24.7456 48.8288 -23.5097 50.559 -22.7682 51.3005C-22.0268 52.042 -21.5324 52.5363 -20.2966 52.7835C-19.0608 53.0306 -16.8363 54.7608 -16.8363 54.7608C-16.8363 54.5136 -17.5778 52.5363 -18.3193 51.7948C-19.0608 51.0533 -19.5551 50.559 -19.8023 49.8175C-20.0494 48.8288 -20.0494 47.593 -20.2966 46.6043C-20.5438 45.6157 -20.0494 44.627 -20.0494 44.627C-20.0494 44.627 -19.5551 46.3572 -19.5551 47.593C-19.5551 48.5817 -19.3079 49.076 -19.3079 49.5703C-19.3079 50.3118 -18.5664 50.8062 -18.3193 51.0533C-18.0721 51.3005 -18.5664 50.8062 -18.5664 49.8175C-18.5664 48.8288 -18.3193 47.8402 -17.8249 46.11C-17.3306 44.3799 -17.3306 42.1554 -17.0834 40.6724C-16.8363 39.1894 -16.3419 35.9762 -15.1061 35.729C-14.1174 35.2347 -12.6344 36.4705 -12.3873 37.4592C-12.1401 38.4479 -13.3759 41.661 -14.3646 43.3912C-15.3533 45.1213 -15.3533 46.11 -15.6004 47.593C-16.0948 49.076 -14.8589 51.0533 -14.6118 52.042C-14.3646 53.0307 -13.3759 55.008 -13.1288 55.5023C-12.8816 55.9967 -10.6571 57.4796 -11.6458 56.2438C-12.6344 55.008 -12.8816 53.7722 -13.1288 53.2778C-13.1288 52.7835 -12.8816 52.042 -12.1401 53.525C-11.3986 55.008 -10.1628 56.491 -9.66846 56.9853C-8.92696 57.2325 -8.18546 57.7268 -6.4553 57.974C-4.72514 58.2211 -3.73648 58.9626 -3.24215 58.9626C-2.74782 58.9626 -3.98364 57.2325 -4.47798 56.2438C-4.97231 55.2551 -5.96097 54.2665 -6.4553 53.525C-6.94963 52.7835 -7.44397 52.042 -6.94963 52.5363C-6.4553 52.7835 -6.4553 52.5363 -5.71381 53.0307C-5.21947 53.525 -4.47798 54.2665 -4.23081 55.008C-3.98365 55.7495 -2.74782 57.2325 -2.99498 56.7381C-3.24215 56.2438 -3.24215 55.7495 -3.73648 54.5137C-4.23081 53.2778 -4.97231 51.7948 -5.71381 50.559C-6.20814 49.5703 -7.1968 47.0987 -7.44397 46.11C-7.69113 45.1214 -7.44397 42.6497 -6.94963 40.9195C-6.4553 39.4365 -4.72514 40.178 -3.98364 40.6724C-3.48931 41.1667 -3.24215 43.3912 -3.24215 44.8742C-3.24215 46.3572 -2.74782 49.3232 -2.50065 51.0533C-2.25348 53.0307 -1.26482 54.7608 -0.770485 55.5023C-0.0289879 55.9967 2.1955 56.7381 2.937 56.9853C3.92566 57.2325 6.89165 58.4683 7.38599 58.4683C7.88032 58.4683 7.88032 57.2325 7.38599 56.491C6.89165 55.7495 7.38598 53.525 6.64448 52.5363C6.15015 51.5476 3.43133 49.076 2.68983 47.593C1.94834 46.3572 1.94834 42.6497 2.937 41.4139C3.92566 40.4252 5.40865 41.661 5.65582 42.1554C5.90298 42.6497 6.64448 45.8628 6.39732 46.8515C6.39732 47.8402 6.64449 50.0647 7.63315 52.5363C8.62181 55.008 10.5991 55.7495 11.835 56.2438C13.0708 56.7381 13.8123 57.4796 14.801 57.974C15.7896 58.4683 17.7669 58.7155 17.0255 58.2211C16.284 57.7268 15.7896 57.7268 15.0481 56.9853C14.0595 56.2438 12.8236 55.008 13.318 55.2551C13.8123 55.5023 15.0481 55.7495 15.7896 56.2438C16.5311 56.7381 19.0028 57.974 19.4971 57.974C20.2386 57.974 21.7216 58.4683 20.9801 57.7268C20.2386 56.9853 19.9914 55.9966 19.0028 55.2551C18.2613 54.5137 16.5311 53.7722 15.7896 53.525C15.2953 53.2778 14.801 52.7835 15.2953 52.5363C15.7896 52.5363 16.284 53.0307 17.0255 53.525C17.7669 54.0193 17.2726 53.2778 16.284 52.5363C15.2953 51.7948 13.8123 50.8062 13.318 49.3232C12.8236 47.8402 12.3293 44.627 12.5765 44.3798C12.8236 44.1327 13.8123 44.1327 14.3066 44.8742C14.801 45.6157 15.5425 47.0987 16.0368 48.0873C16.5311 49.3232 19.2499 52.5363 19.7443 53.7721C20.2386 54.7608 21.9688 55.2552 22.9574 55.5023C23.9461 55.7495 26.4178 55.9967 27.1593 56.491C27.9007 56.9853 28.6422 56.9853 28.3951 55.7495C28.1479 54.7608 27.6536 53.2778 26.9121 52.7835C25.9234 52.2892 25.1819 51.3005 23.9461 49.5703C22.7103 47.8402 22.9574 45.8628 23.4518 45.8628C23.6989 45.6157 24.4404 45.8628 24.9348 46.3572C25.6763 46.8515 26.4178 48.0873 27.6536 49.3232C28.8894 50.8062 31.3611 52.2892 32.3497 52.2892C33.0912 52.2892 36.3044 51.7948 37.0459 51.7948C37.7874 51.7948 39.0232 51.5476 38.5289 50.559C38.0346 49.8175 35.0686 48.5817 33.3384 47.3459C31.6082 46.11 30.1252 43.144 31.3611 42.6497C32.5969 42.1554 34.8214 42.6497 36.0572 43.3912C37.2931 44.1327 38.5289 43.3912 38.2817 42.6497C37.7874 42.1554 36.7987 41.1667 35.8101 40.4252C34.8214 39.6837 33.8327 38.9422 33.0912 38.695C31.8554 38.695 30.1252 38.4479 28.3951 37.9535C26.6649 37.4592 26.1706 35.4819 26.4178 34.7404C26.6649 34.2461 28.8894 33.5045 29.6309 33.9989C30.6196 34.4932 33.0912 34.4932 33.8327 34.4932C34.5742 34.4932 36.7987 34.4932 37.5402 34.7404C38.2817 34.9876 36.0572 32.763 34.8214 32.0215C33.5856 31.0329 30.8667 30.5386 29.8781 30.2914C28.6422 30.0442 25.9234 28.3141 24.4404 28.0669C22.9574 27.8197 19.7443 28.0669 18.0141 27.0782C16.284 26.0896 16.0368 24.6066 16.5311 24.1123C17.0255 23.6179 19.4971 23.8651 19.9914 24.3594C20.7329 24.8538 22.7103 25.3481 24.1933 25.5953C25.6763 25.8424 27.9007 26.8311 29.8781 27.8197C31.8554 28.8084 34.0799 27.8197 34.5742 27.8197C35.0686 27.8197 36.7987 27.3254 35.8101 26.5839C35.0686 25.8424 33.5856 25.3481 32.3497 24.8537C31.1139 24.3594 30.1252 23.3707 29.6309 22.8764C29.3837 22.1349 28.1479 21.6406 28.6422 21.6406C29.1366 21.6406 30.6196 22.1349 31.3611 22.6293C32.3497 23.1236 34.3271 23.6179 33.5856 22.8764C32.5969 22.3821 30.8667 21.6406 28.8894 20.6519C27.1593 19.6633 25.6763 18.9218 24.6876 18.9218C23.6989 18.9218 19.9914 18.1803 18.5084 17.9331C17.0254 17.6859 13.8123 16.9444 13.318 17.1916C12.8236 17.4388 11.0935 17.9331 9.11615 18.4274C6.89165 18.9218 5.40865 17.9331 5.40865 17.4388C5.40865 17.1916 5.90298 15.4614 6.64448 14.9671C7.38598 14.4728 9.85764 13.7313 10.8463 13.4841C11.835 13.2369 15.0481 13.4841 15.7896 13.237C16.5311 12.9898 18.2613 13.7313 18.7556 13.9785C19.2499 14.72 20.2386 15.2143 20.7329 15.7086C21.2273 15.9558 21.7216 16.2029 21.7216 15.9558C21.7216 15.7086 21.4744 14.9671 21.4744 14.9671C21.4744 14.9671 22.2159 15.2143 23.2046 15.9558C24.1933 16.6973 24.6876 16.4501 25.6763 16.203C26.6649 16.203 28.1479 15.2143 27.9007 14.9671C27.9007 14.72 25.6763 12.7426 25.4291 12.2483C25.1819 11.754 24.4404 11.2596 23.6989 11.2596C22.9574 11.2596 19.9914 10.271 19.2499 9.77663C18.7556 9.52947 17.5198 9.03514 18.5084 9.03514C19.4971 9.03514 20.2386 9.03514 20.9801 9.03514C21.7216 9.28231 23.6989 8.78797 22.9574 8.78797C22.2159 8.78797 20.7329 8.04648 18.7556 7.79931C17.0254 7.79931 12.5765 7.0578 11.5878 7.30497C10.8463 7.7993 8.37465 9.03514 8.12748 9.03514C7.88032 9.28231 6.15015 9.03514 5.40865 10.0238C4.66716 10.7653 2.68983 12.2483 1.70117 12.9898C0.712507 13.7313 -0.770491 13.7313 -1.51199 13.237C-2.00632 12.7426 -1.01765 10.5181 -0.770485 9.52946C-0.523319 8.78796 0.218176 7.7993 0.712507 7.30497C1.20684 6.81064 5.65582 5.32765 7.63315 4.83332C9.61048 4.33899 10.8463 3.35032 11.5878 2.60883C12.3293 1.86733 11.5878 2.36165 10.5991 2.11448C9.61047 1.86732 8.86898 1.86733 8.62181 1.62016C8.37465 1.373 7.38598 0.631507 5.65582 0.878673C4.17282 1.12584 2.68983 1.62017 1.70117 1.86734C0.712507 2.1145 -0.770487 2.60881 0.218178 2.11448C1.20684 1.62015 3.43133 -0.109996 2.1955 0.631501C0.712507 1.12583 -0.276159 0.878661 -1.51199 1.37299C-2.50065 1.86732 -3.98364 3.10317 -4.97231 4.09183C-5.71381 4.83333 -6.4553 6.56349 -6.70247 8.04648C-6.70247 9.28231 -7.44397 11.5068 -8.18546 13.4841C-9.17413 15.4614 -10.6571 13.4841 -10.6571 12.9898C-10.6571 12.4955 -10.1628 9.77663 -9.17413 8.5408C-8.67979 7.30497 -7.9383 5.32765 -8.18546 4.58615C-8.43263 3.84465 -10.6571 6.06914 -12.1401 7.55214C-13.3759 9.2823 -15.1061 11.5068 -14.1174 14.7199C-12.8816 17.9331 -13.1288 18.4274 -13.6231 18.9218C-14.1174 19.4161 -15.6004 16.6973 -16.3419 15.7086C-17.0834 14.4728 -18.5664 12.7426 -18.5664 13.4841C-18.5664 14.2256 -18.5664 13.9784 -18.5664 15.7086C-18.5664 17.6859 -16.5891 18.6746 -16.0948 19.6633C-15.3533 20.6519 -13.8703 23.6179 -13.8703 23.6179C-11.6458 23.8651 -9.66846 24.3594 -8.92696 24.6066C-8.92696 24.6066 -7.44397 15.7086 -6.20814 12.2483C-4.97231 9.03515 -2.99498 6.81064 -1.26482 5.32764C0.465338 3.84465 -3.98364 8.29365 -4.97231 10.271C-5.96097 12.2483 -7.69113 20.6519 -7.9383 22.6293C-8.18546 23.8651 -8.18546 24.3594 -8.18546 24.3594C-8.18546 24.3594 -4.97231 25.3481 -4.23081 25.5953C-4.23081 25.5953 -0.523321 19.6633 0.465343 17.6859C1.45401 15.7086 3.92566 13.9784 4.66716 13.4841C4.66716 13.4841 1.70117 15.9558 1.20684 16.9444C0.712507 17.9331 -3.73648 25.3481 -3.73648 25.5953L-3.98364 25.8424C-3.98364 25.8424 2.1955 28.0669 2.937 28.5612C2.937 28.5612 10.1048 22.1349 11.835 21.1463C13.5651 20.1576 17.5198 20.1576 18.7556 20.4048C19.9914 20.6519 18.7556 20.6519 17.5198 20.6519C16.284 20.6519 12.5765 21.1463 11.835 21.6406C11.0935 22.1349 5.65582 26.8311 3.6785 28.5612C3.6785 28.5612 10.5991 31.2801 12.8236 32.5159C12.8236 32.5159 22.2159 29.7971 24.4404 30.2914C24.4404 30.2914 21.2273 31.0329 19.9914 31.0329C19.0028 31.2801 14.3066 32.7631 13.5651 32.7631C13.5651 32.7631 24.1933 39.4365 27.1593 42.4025C27.1593 42.4025 20.4858 37.7064 18.7556 36.7177C18.7556 36.7177 18.2613 41.9082 18.7556 43.3912C19.2499 45.1213 19.4971 46.6043 19.4971 46.6043C19.4971 46.6043 18.7556 45.8628 18.5084 44.8742C18.2613 43.8855 17.5198 41.661 17.7669 40.6724C17.7669 39.6837 18.2613 36.2234 18.2613 36.2234C18.2613 36.2234 12.5765 33.0102 10.1048 32.2687C10.1048 32.2687 8.86898 38.4479 8.62181 42.1554C8.62181 43.144 8.62181 43.6384 8.62181 43.6384C8.62181 43.144 8.62181 42.6497 8.62181 42.1554C8.62181 40.9195 8.62181 39.1894 8.62181 37.9535C8.62181 35.7291 9.36331 32.0215 9.36331 32.0215C9.36331 32.0215 1.94834 28.8084 0.712507 28.3141C0.712507 28.3141 -1.75915 38.4479 -1.51199 40.6724C-1.26482 42.8969 -0.770485 44.8742 -0.770485 45.6157C-0.770485 46.11 -2.00632 41.4138 -2.00632 40.178C-2.00632 38.9422 -0.0289898 29.0556 0.218178 28.0669C0.218178 28.0669 -4.47798 26.3367 -5.96097 26.0896C-5.96097 26.0896 -8.92696 36.2234 -9.91562 38.2007C-10.6571 40.4252 -11.893 44.1327 -11.6458 45.1214C-11.1515 46.11 -12.6344 44.627 -12.1401 42.8969C-11.6458 41.1667 -10.1628 35.9762 -9.66846 35.2347C-9.17413 34.4932 -6.70247 26.3367 -6.70247 26.0896C-6.70247 25.8424 -10.41 24.6066 -10.6571 24.6066C-10.9043 24.6066 -14.1174 29.3027 -14.8589 30.5386C-14.3646 29.7971 -11.6458 25.1009 -10.9043 24.6066C-10.41 24.3594 -10.1628 24.3594 -9.91562 24.1123C-12.1401 23.8651 -15.3533 23.3708 -16.0948 23.1236C-16.8363 23.1236 -17.8249 23.6179 -19.3079 24.3594C-21.0381 25.1009 -20.7909 25.3481 -21.5324 25.3481C-22.2739 25.5952 -22.5211 25.5952 -23.5097 26.3367C-24.4984 27.3254 -25.7342 30.0442 -26.4757 30.7857C-26.9701 31.5272 -28.4531 31.7744 -27.9587 32.0215C-27.7116 32.2687 -26.7229 32.2687 -25.7342 31.7744C-24.7456 31.2801 -23.5097 29.0556 -22.2739 28.3141C-21.0381 27.5726 -20.0494 29.0556 -20.2966 29.5499C-20.5438 30.0442 -22.0268 31.2801 -23.0154 31.7744C-24.0041 32.2687 -25.4871 33.2574 -26.7229 33.9989C-27.9587 34.7404 -28.4531 37.9535 -28.4531 39.4365C-27.9587 41.661 -27.7116 43.3912 -27.7116 43.144ZM-11.3986 31.7744C-11.3986 30.0442 -10.1628 29.5499 -9.42129 29.7971C-8.67979 30.0442 -8.67979 31.2801 -9.42129 32.5159C-9.91562 33.7517 -10.41 34.4932 -10.41 34.4932C-10.9043 35.9762 -11.3986 33.7517 -11.3986 31.7744ZM-3.73648 35.729C-3.73648 34.2461 -3.48931 32.2687 -2.99498 32.0215C-2.50065 32.0215 -1.51199 31.7744 -1.75915 33.0102C-2.00632 34.246 -2.50065 36.7177 -2.50065 36.7177C-2.74782 37.9535 -3.73648 37.212 -3.73648 35.729ZM20.9801 34.9876C20.2386 35.2347 18.7556 34.9875 19.2499 33.9989C19.2499 33.9989 20.2386 33.2574 21.4744 33.5046C22.7103 33.2574 21.7216 34.7404 20.9801 34.9876ZM-4.47798 20.6519C-4.47798 21.6406 -4.47798 21.8878 -5.46664 21.8878C-5.46664 21.8878 -5.96097 19.6633 -5.46664 19.1689C-4.97231 18.9218 -4.47798 19.9104 -4.47798 20.6519ZM-0.523319 15.7086C-0.276154 16.2029 -1.01766 17.1916 -1.51199 17.6859C-2.00632 17.9331 -2.74782 17.9331 -2.99498 16.9444C-3.24215 16.2029 -1.51199 14.7199 -1.51199 14.7199C-1.01766 14.2256 -0.523319 15.2143 -0.523319 15.7086ZM8.62181 20.8991C8.86898 21.3934 7.38598 22.3821 6.64448 22.6293C5.90298 22.8764 4.91433 24.3594 3.92566 24.6066C2.937 24.8538 1.20684 23.6179 1.94834 22.3821C2.68983 21.1463 7.13882 20.1576 7.13882 20.1576C8.12748 19.6633 8.37465 20.4048 8.62181 20.8991ZM13.8123 25.5953C13.0708 25.3481 12.8236 25.5952 12.5765 26.0896C12.0821 26.5839 11.3406 25.5952 11.3406 24.8537C11.3406 24.1122 14.0595 24.1123 14.0595 24.1123C15.0481 24.3594 14.801 25.5953 13.8123 25.5953ZM16.284 29.3027C14.5538 29.5499 13.318 30.5386 12.5765 29.7971C11.835 29.0556 11.835 28.0669 12.8236 27.8197C13.8123 27.5726 16.5311 27.5726 16.5311 27.5726C17.2726 28.0669 18.0141 28.8084 16.284 29.3027ZM10.8463 41.9082C10.5991 40.9195 10.1048 37.4592 10.8463 36.9649C11.3406 36.4706 12.5765 36.4705 12.5765 37.7064C12.5765 38.9422 13.318 41.661 13.318 41.661C13.8123 43.3912 11.3406 42.6497 10.8463 41.9082ZM6.15015 36.4705C5.90298 35.2347 7.38599 34.9876 7.63315 35.729C7.88032 36.4705 7.38599 37.9535 7.38599 37.9535C5.90299 38.695 6.39732 37.7064 6.15015 36.4705ZM1.70117 38.9422C1.454 37.9535 1.20684 34.4932 1.94834 33.9989C2.44267 33.7517 3.43133 33.2574 3.43133 35.2347C3.43133 37.212 3.43133 39.4365 3.43133 39.4365C2.937 40.4252 1.70117 39.9309 1.70117 38.9422ZM-7.1968 36.7177C-7.1968 35.729 -6.4553 34.7404 -6.20814 35.4819C-5.7138 36.2234 -6.4553 37.9535 -6.4553 37.9535C-6.4553 38.9422 -7.1968 37.7064 -7.1968 36.7177Z" fill="#65DCE1"/>
<path id="Vector_2" d="M33.3383 47.8402C32.5968 47.3459 32.1024 46.6044 31.6081 45.8629C29.3836 44.8742 27.6534 43.3912 27.6534 43.3912C27.6534 43.3912 20.98 38.6951 19.2498 37.7064C19.2498 37.7064 18.7555 42.6497 19.2498 44.3799C19.7441 45.8629 19.9913 47.593 19.9913 47.593C19.9913 47.593 19.2498 46.8515 19.0026 45.8629C18.7555 44.8742 18.014 42.6497 18.2611 41.661C18.2611 40.6724 18.7555 37.2121 18.7555 37.2121C18.7555 37.2121 13.0707 33.9989 10.8462 33.0102C10.8462 33.0102 9.36317 39.1894 9.36317 42.8969C9.36317 43.8855 9.36317 44.3799 9.36317 44.3799C9.36317 43.8855 9.36317 43.3912 9.36317 42.8969C9.36317 41.661 9.36317 39.9309 9.36317 38.6951C9.36317 36.4706 10.1047 32.7631 10.1047 32.7631C10.1047 32.7631 2.68969 29.5499 1.45386 29.0556C1.45386 29.0556 -1.01779 39.1894 -0.770628 41.4139C-0.523462 43.6384 -0.0291309 45.6157 -0.0291309 46.3572C-0.0291309 46.8515 -1.26496 42.1554 -1.26496 40.9196C-1.26496 39.6837 0.712366 29.7971 0.959532 28.8084C0.959532 28.8084 -3.73662 27.0782 -5.21961 26.8311C-5.21961 26.8311 -8.1856 36.9649 -9.17427 38.9422C-9.91576 41.1667 -11.1516 44.8742 -10.9044 45.8629C-10.4101 46.8515 -11.6459 45.3685 -11.1516 43.6384C-10.6573 41.9082 -9.17427 36.7177 -8.67994 35.9762C-8.1856 35.2347 -5.71395 27.0782 -5.71395 26.8311C-5.71395 26.5839 -9.42143 25.3481 -9.6686 25.3481C-9.91576 25.3481 -13.1289 30.0442 -13.8704 31.2801C-13.3761 30.5386 -10.6573 25.8424 -9.91576 25.3481C-9.42143 25.1009 -9.17427 25.1009 -8.9271 24.8538C-11.1516 24.3594 -14.3647 24.1123 -15.1062 23.8651C-15.8477 23.8651 -16.8364 24.3594 -18.3194 25.1009C-20.0496 25.8424 -19.8024 26.0896 -20.5439 26.0896C-21.2854 26.3368 -21.5326 26.3368 -22.5212 27.0783C-23.5099 28.0669 -24.7457 30.7858 -25.4872 31.5272C-25.9815 32.2687 -27.4645 32.5159 -26.9702 32.7631C-26.723 33.0102 -25.7344 33.2574 -24.7457 32.7631C-23.7571 32.2688 -22.5212 30.0442 -21.2854 29.3028C-20.0496 28.5613 -19.0609 30.0443 -19.3081 30.5386C-19.5552 31.0329 -21.0382 32.2687 -22.0269 33.0102C-23.0156 33.5046 -24.4985 34.4932 -25.7344 35.2347C-26.9702 35.9762 -27.4645 39.1894 -27.4645 40.6724C-27.4645 42.1554 -27.2174 43.8855 -26.9702 43.6384C-26.9702 43.3912 -25.9815 42.4025 -25.24 41.4139C-24.4985 40.4252 -23.5099 39.4366 -23.0156 37.9536C-22.2741 36.7177 -19.3081 33.9989 -18.3194 34.4932C-17.5779 34.9876 -18.5666 36.9649 -19.0609 37.7064C-19.5552 38.4479 -22.0269 40.1781 -22.5212 40.9196C-23.0156 41.661 -24.2514 43.6384 -24.7457 45.6157C-25.24 47.593 -24.9929 48.3345 -24.7457 47.8402C-24.7457 47.3459 -24.0042 46.6044 -24.0042 46.6044C-24.0042 46.6044 -24.0042 46.8515 -24.0042 48.0874C-24.0042 49.3232 -22.7684 51.0533 -22.0269 51.7948C-21.2854 52.5363 -20.7911 53.0307 -19.5552 53.2778C-18.3194 53.525 -16.0949 55.5023 -16.0949 55.2552C-16.0949 55.008 -16.8364 53.0307 -17.5779 52.2892C-18.3194 51.5477 -18.8137 51.0534 -19.0609 50.3119C-19.5552 49.076 -19.5552 47.8402 -19.8024 46.8515C-20.0496 45.8629 -19.5552 44.8742 -19.5552 44.8742C-19.5552 44.8742 -19.0609 46.6044 -19.0609 47.8402C-19.0609 48.8289 -18.8137 49.3232 -18.8137 49.8175C-18.8137 50.559 -18.0722 51.0534 -17.8251 51.3005C-17.5779 51.5477 -18.0722 51.0533 -18.0722 50.0647C-18.0722 49.076 -17.8251 48.0873 -17.3307 46.3572C-16.8364 44.627 -16.8364 42.4025 -16.5892 40.9196C-16.3421 39.4366 -15.8477 36.2234 -14.6119 35.9762C-13.6233 35.4819 -12.1403 36.7177 -11.8931 37.7064C-11.6459 38.6951 -12.8818 41.9082 -13.8704 43.6384C-14.8591 45.3685 -14.8591 46.3572 -15.1062 47.8402C-15.6006 49.3232 -14.3648 51.3005 -14.1176 52.2892C-13.8704 53.2778 -12.8818 55.2552 -12.6346 55.7495C-12.3874 56.2438 -10.1629 57.7268 -11.1516 56.491C-12.1403 55.5023 -12.3874 54.0193 -12.6346 53.525C-12.6346 53.0307 -12.3874 52.2892 -11.6459 53.7722C-10.9044 55.2552 -9.6686 56.7382 -9.17427 57.2325C-8.43277 57.4797 -7.69127 57.974 -5.96111 58.2212C-4.23095 58.4683 -3.24229 59.2098 -2.74796 59.2098C-2.25362 59.2098 -3.48945 57.4797 -3.98378 56.491C-4.47812 55.5023 -5.46678 54.5137 -5.96111 53.7722C-6.45544 53.0307 -6.94977 52.5363 -6.45544 52.7835C-5.96111 53.0307 -5.96111 52.7835 -5.21961 53.2778C-4.47812 53.7722 -3.98378 54.5137 -3.73662 55.2552C-3.48945 55.9967 -2.25362 57.4797 -2.50079 56.9853C-2.74796 56.491 -2.74796 55.9967 -3.24229 54.7608C-3.73662 53.525 -4.47812 52.042 -5.21961 50.8062C-5.71395 49.8175 -6.70261 47.3458 -6.94977 46.3572C-7.19694 45.3685 -6.94977 42.8969 -6.45544 41.1667C-5.96111 39.6837 -4.23095 40.4252 -3.48945 40.9196C-2.99512 41.4139 -2.74796 43.6384 -2.74796 45.1214C-2.74796 46.6044 -2.25362 49.5703 -2.00646 51.5477C-1.75929 53.2778 -0.770628 55.2552 -0.276297 55.9967C0.4652 56.491 2.68969 57.2325 3.43119 57.4797C4.41985 57.7268 7.38585 58.9626 7.88018 58.9626C8.37451 58.9626 8.37451 57.7268 7.88018 56.9853C7.38585 56.2438 7.88018 54.0193 7.13868 53.0307C6.15002 51.7948 3.67836 49.076 2.93686 47.8402C2.19536 46.6044 2.19536 42.8969 3.18402 41.661C4.17269 40.6724 5.65568 41.9082 5.90285 42.1554C6.15001 42.6497 6.89151 45.8629 6.64434 46.8515C6.64434 47.8402 6.89151 50.0647 7.88018 52.5363C8.86884 55.008 10.8462 55.7495 12.082 56.2438C13.3178 56.7382 14.0593 57.4797 15.048 57.974C16.0366 58.4683 18.014 58.7155 17.2725 58.2212C16.531 57.7268 16.0366 57.7268 15.2952 56.9853C14.3065 56.2438 13.0707 55.008 13.565 55.2552C14.0593 55.5023 15.2952 55.7495 16.0366 56.2438C16.7781 56.7382 19.2498 57.974 19.7441 57.974C20.4856 57.974 21.9686 58.4683 21.2271 57.7268C20.4856 56.9853 20.2385 55.9967 19.2498 55.2552C18.5083 54.5137 16.7781 53.7722 16.0366 53.525C15.5423 53.2778 15.048 52.7835 15.5423 52.5363C16.0366 52.5363 16.531 53.0307 17.2725 53.525C18.014 54.0193 17.5196 53.2778 16.531 52.5363C15.5423 51.7948 14.0593 50.8062 13.565 49.3232C13.0707 47.8402 12.5763 44.627 12.8235 44.3799C13.0707 44.1327 14.0593 44.1327 14.5537 44.8742C15.048 45.3685 15.7895 47.0987 16.2838 48.0874C16.7781 49.3232 19.497 52.5363 19.9913 53.7722C20.4856 54.7608 22.2158 55.2552 23.2045 55.5023C24.1931 55.7495 26.6648 55.9967 27.4063 56.491C28.1478 56.9853 28.8893 56.9853 28.6421 55.7495C28.3949 54.7608 27.9006 53.2778 27.1591 52.7835C26.1704 52.2892 25.4289 51.3005 24.1931 49.5703C22.9573 47.8402 23.2045 45.8629 23.6988 45.8629C23.946 45.6157 24.6875 45.8629 25.1818 46.3572C25.6761 46.8515 26.4176 48.0874 27.9006 49.3232C29.1364 50.8062 31.6081 52.2892 32.5968 52.2892C33.3383 52.2892 36.5514 51.7948 37.2929 51.7948C38.0344 51.7948 39.2702 51.3005 38.7759 50.559C38.0344 50.3118 35.0684 49.076 33.3383 47.8402ZM-11.3988 32.0216C-11.3988 30.0442 -10.1629 29.5499 -9.42143 30.0442C-8.67994 30.2914 -8.67994 31.5273 -9.42143 32.7631C-9.91576 33.9989 -10.4101 34.7404 -10.4101 34.7404C-10.9044 36.2234 -11.3988 33.7517 -11.3988 32.0216ZM-6.20828 37.9536C-6.45544 39.1894 -7.19694 37.7064 -7.19694 36.7177C-7.19694 35.7291 -6.45544 34.7404 -6.20828 35.4819C-5.46678 36.2234 -6.20828 37.9536 -6.20828 37.9536ZM-3.73662 35.9762C-3.73662 34.4932 -3.48945 32.5159 -2.99512 32.2687C-2.50079 32.2687 -1.51213 32.0216 -1.75929 33.2574C-1.75929 34.4932 -2.50079 36.9649 -2.50079 36.9649C-2.74796 37.9536 -3.73662 37.4592 -3.73662 35.9762ZM3.18402 35.4819C3.18402 37.4592 3.18402 39.6837 3.18402 39.6837C2.93686 40.6724 1.70103 40.178 1.70103 39.1894C1.45386 38.2007 1.2067 34.7404 1.94819 34.2461C2.44253 33.7517 3.43119 33.5046 3.18402 35.4819ZM7.38585 38.2007C5.90285 38.9422 6.39718 37.9536 6.15001 36.7177C5.90285 35.4819 7.38585 35.2347 7.63301 35.9762C8.12734 36.7177 7.38585 38.2007 7.38585 38.2007ZM11.0933 41.9082C10.8462 40.9195 10.3518 37.4592 11.0933 36.9649C11.5877 36.4706 12.8235 36.4706 12.8235 37.7064C12.8235 38.9422 13.565 41.661 13.565 41.661C13.8122 43.3912 11.3405 42.8969 11.0933 41.9082Z" fill="url(#paint0_linear_1_628)"/>
<path id="Vector_3" d="M31.6081 45.6157C30.8666 44.3799 30.6194 43.3912 31.3609 42.8969C32.5967 42.4026 34.8212 42.8969 36.0571 43.6384C37.2929 44.3799 38.5287 43.6384 38.2816 42.8969C37.7872 42.4026 36.7986 41.4139 35.8099 40.6724C34.8212 39.9309 33.8326 39.1894 33.0911 38.9422C31.8552 38.9422 30.1251 38.6951 28.3949 38.2007C26.6648 37.7064 26.1704 35.7291 26.1704 34.9876C26.4176 34.4933 28.6421 33.7518 29.3836 34.2461C30.3722 34.7404 32.8439 34.7404 33.5854 34.7404C34.3269 34.7404 36.5514 34.7404 37.2929 34.9876C38.0344 35.2348 35.8099 33.0103 34.5741 32.2688C33.3382 31.2801 30.6194 30.7858 29.6307 30.5386C28.6421 30.2914 25.6761 28.5613 24.1931 28.3141C22.7101 28.0669 19.4969 28.3141 17.7668 27.3254C16.0366 26.3368 15.7895 24.8538 16.2838 24.3595C16.7781 23.8651 19.2498 24.1123 19.7441 24.6066C20.4856 25.101 22.4629 25.5953 23.9459 25.8424C25.4289 26.0896 27.6534 27.0783 29.6307 28.0669C31.6081 29.0556 33.8326 28.0669 34.3269 28.0669C34.8212 28.0669 36.3042 27.5726 35.5627 26.8311C34.8212 26.0896 33.3382 25.5953 32.1024 25.101C30.8666 24.6066 29.8779 23.618 29.3836 23.1236C28.8892 22.6293 27.9006 22.135 28.3949 22.135C28.8893 22.135 30.3722 22.6293 31.1137 23.1236C32.1024 23.618 34.0797 24.1123 33.0911 23.3708C32.5967 22.3821 30.8666 21.8878 29.1364 20.8991C27.1591 19.9105 25.6761 18.9218 24.6874 18.9218C23.6988 18.9218 19.9913 18.1803 18.5083 17.9331C17.0253 17.686 14.0593 17.1917 13.3178 17.4388C12.8235 17.686 11.0933 18.1803 9.11598 18.6746C7.13866 19.169 5.65566 18.1803 5.40849 17.686C5.40849 17.4388 5.90282 15.7087 6.64432 15.2143C7.38582 14.72 9.85748 14.2257 10.8461 13.9785C11.8348 13.7313 15.048 13.9785 15.7895 13.7313C16.531 13.4842 18.2611 14.2256 18.7554 14.4728C19.2498 14.9671 20.2384 15.4615 20.7328 15.7086C21.2271 15.9558 21.7214 16.203 21.7214 15.9558C21.7214 15.7087 21.4743 14.9672 21.4743 14.9672C21.4743 14.9672 22.2158 15.2143 23.2044 15.9558C24.1931 16.6973 24.6874 16.4502 25.6761 16.203C26.6648 16.203 28.1478 15.2143 27.9006 14.9672C27.9006 14.72 25.6761 12.7427 25.4289 12.2483C25.1818 12.0012 24.4403 11.5068 23.6988 11.5068C22.9573 11.5068 19.9913 10.271 19.2498 10.0238C18.7555 9.77668 17.7668 9.03516 18.5083 9.28233C19.4969 9.28233 20.2384 9.28233 20.9799 9.28233C21.7214 9.5295 23.6988 9.03518 22.9573 9.03518C22.2158 9.03518 20.7328 8.29368 18.7554 8.04652C17.0253 7.79935 12.5763 7.30501 11.8348 7.55218C10.8461 8.04651 8.37449 9.03516 8.12732 9.28233C7.88016 9.5295 6.14999 9.28235 5.40849 10.271C4.667 11.2597 2.68967 12.4955 1.70101 13.237C0.712343 13.9785 -0.770651 13.9785 -1.26498 13.4841C-2.00648 12.9898 -1.01781 10.5182 -0.770649 9.77667C-0.523483 9.03517 0.218014 7.79934 0.712345 7.55218C1.45384 7.30501 5.65566 5.57486 7.63299 5.08053C9.61032 4.5862 10.8461 3.59753 11.5876 2.85604C12.3291 2.11454 11.5876 2.60886 10.599 2.36169C9.85748 2.11453 9.11598 1.86737 8.86882 1.86737C8.37449 1.62021 7.38582 0.878693 5.90282 1.12586C4.17266 1.37303 2.68967 1.86736 1.70101 2.11452C0.959509 2.36169 -0.523483 2.85602 0.218014 2.36169C1.20668 1.6202 3.43117 0.137214 2.19534 0.878711C0.712347 1.37304 -0.0291538 1.12587 -1.26498 1.6202C-2.50081 1.86737 -3.98381 3.35037 -4.7253 4.09187C-5.71397 5.08053 -6.45546 6.81069 -6.45546 8.04652C-6.70263 9.52951 -7.44413 11.754 -8.18563 13.4841C-9.17429 15.4615 -10.6573 13.4842 -10.6573 12.9898C-10.6573 12.4955 -9.91579 9.77667 -9.17429 8.54084C-8.67996 7.55218 -7.93846 5.57486 -8.18563 4.83336C-8.43279 4.09186 -10.6573 6.31635 -12.1403 7.79935C-13.3761 9.28234 -15.1063 11.754 -13.8704 14.9672C-12.8818 18.1803 -12.8818 18.6746 -13.6233 19.169C-14.1176 19.6633 -15.6006 16.9445 -16.3421 15.7086C-17.0836 14.72 -18.5666 12.9898 -18.5666 13.7313C-18.5666 14.4728 -18.5666 14.2257 -18.5666 15.9558C-18.5666 17.9331 -16.5893 18.9218 -16.0949 19.9105C-15.3534 20.8991 -13.8704 23.8651 -13.8704 23.8651C-11.6459 24.1123 -9.91579 24.6066 -8.92712 24.8538H-8.67996C-8.67996 24.6066 -7.19696 15.7086 -5.96113 12.4955C-4.7253 9.28233 -2.74798 7.05785 -1.01782 5.57485C0.712343 4.09186 -3.73664 8.54084 -4.7253 10.5182C-5.71397 12.4955 -7.44413 20.8991 -7.69129 22.8765C-7.93846 24.1123 -7.93846 24.6066 -7.93846 24.6066C-7.93846 24.6066 -4.7253 25.5953 -3.9838 25.8424C-3.9838 25.8424 -0.276318 19.9105 0.712345 17.9331C1.70101 15.9558 4.17266 14.2257 4.91416 13.7313C4.91416 13.7313 1.94817 15.9558 1.45384 16.9445C0.959511 17.9331 -3.48947 25.3481 -3.48947 25.5953L-3.73664 25.8424C-3.73664 25.8424 2.44251 28.0669 3.184 28.5613C3.184 28.5613 10.3518 22.135 12.082 21.1463C13.8121 20.1576 17.7668 20.1576 19.0026 20.4048C20.2384 20.652 19.0026 20.652 17.7668 20.652C16.531 20.652 12.8235 21.1463 12.082 21.6406C11.3405 22.135 5.90283 26.8311 3.9255 28.5613C3.9255 28.5613 10.8461 31.2801 13.0706 32.5159C13.0706 32.5159 22.4629 29.7971 24.6874 30.2914C24.6874 30.2914 21.4743 31.0329 20.2384 31.0329C19.2498 31.2801 14.5536 32.7631 13.8121 32.7631C13.8121 32.7631 24.4403 39.4366 27.4063 42.4026C27.6534 43.1441 29.3836 44.8742 31.6081 45.6157ZM-4.47814 20.8991C-4.47814 21.8878 -4.47814 21.8878 -5.4668 22.135C-5.4668 22.135 -5.96113 19.9105 -5.4668 19.4161C-4.7253 19.169 -4.47814 19.9105 -4.47814 20.8991ZM-1.51215 17.9331C-2.00648 18.1803 -2.74798 18.1803 -2.99514 17.1917C-3.24231 16.203 -1.51215 14.9672 -1.51215 14.9672C-1.01782 14.4728 -0.523483 15.4615 -0.523483 15.9558C-0.276318 16.4501 -0.770651 17.4388 -1.51215 17.9331ZM6.89149 22.8765C6.15 23.1236 4.91416 24.6066 4.17267 24.6066C3.184 24.8538 1.45384 23.618 2.19534 22.3821C2.93684 21.1463 7.38582 20.1576 7.38582 20.1576C8.12732 19.9105 8.62165 20.652 8.62165 21.1463C8.86882 21.3935 7.38583 22.6293 6.89149 22.8765ZM11.3405 25.101C11.3405 24.3595 14.0593 24.3595 14.0593 24.3595C15.048 24.6066 14.8008 25.8424 13.8121 25.8424C13.0706 25.5953 12.8235 25.8425 12.5763 26.3368C12.3291 26.584 11.3405 25.8424 11.3405 25.101ZM16.2838 29.3028C14.5536 29.5499 13.3178 30.5386 12.5763 29.7971C11.5876 29.0556 11.8348 28.0669 12.8235 27.8198C13.8121 27.5726 16.531 27.5726 16.531 27.5726C17.2725 28.3141 18.014 29.0556 16.2838 29.3028ZM20.9799 34.9876C20.2384 35.2348 18.7555 34.9876 19.2498 33.9989C19.2498 33.9989 20.2384 33.2574 21.4743 33.2574C22.7101 33.5046 21.7214 34.7404 20.9799 34.9876Z" fill="url(#paint1_linear_1_628)"/>
</g>
<defs>
<linearGradient id="paint0_linear_1_628" x1="1.61807" y1="26.9942" x2="6.97606" y2="54.6647" gradientUnits="userSpaceOnUse">
<stop stop-color="#1F485B"/>
<stop offset="0.2581" stop-color="#4C7F88"/>
<stop offset="0.5269" stop-color="#336B7E"/>
<stop offset="0.6754" stop-color="#31687B"/>
<stop offset="0.798" stop-color="#2B5E71"/>
<stop offset="0.9111" stop-color="#224D5F"/>
<stop offset="1" stop-color="#173A4C"/>
</linearGradient>
<linearGradient id="paint1_linear_1_628" x1="19.38" y1="10.4681" x2="8.28688" y2="31.4581" gradientUnits="userSpaceOnUse">
<stop stop-color="#4C7F88"/>
<stop offset="0.4032" stop-color="#336B7E"/>
<stop offset="0.5906" stop-color="#31687B"/>
<stop offset="0.7452" stop-color="#2B5E71"/>
<stop offset="0.8878" stop-color="#224D5F"/>
<stop offset="1" stop-color="#173A4C"/>
</linearGradient>
</defs>
</svg>
