<svg width="43" height="35" viewBox="0 0 43 35" fill="none" xmlns="http://www.w3.org/2000/svg">
<g id="Group">
<path id="Vector" d="M41.4885 18.0938L7.37964 2.7695L8.12113 0.792175L42.4772 16.1165L41.4885 18.0938Z" fill="white"/>
<path id="Vector_2" d="M7.31409 2.6372L6.40851 4.66904L40.4985 19.8628L41.404 17.831L7.31409 2.6372Z" fill="#FC7A7A"/>
<path id="Vector_3" d="M6.34267 4.7208L5.43842 6.75333L39.5396 21.9247L40.4438 19.8922L6.34267 4.7208Z" fill="white"/>
<path id="Vector_4" d="M38.7697 24.0257L4.66077 8.70142L5.40228 6.72409L39.7583 22.0484L38.7697 24.0257Z" fill="#FC7A7A"/>
<path id="Vector_5" d="M4.73794 8.77339L3.83368 10.8059L37.9348 25.9773L38.8391 23.9448L4.73794 8.77339Z" fill="white"/>
<path id="Vector_6" d="M3.77737 10.8562L2.87311 12.8887L36.9743 28.0601L37.8785 26.0276L3.77737 10.8562Z" fill="#FC7A7A"/>
<path id="Vector_7" d="M2.79673 12.9446L1.89136 14.9764L35.9813 30.1665L36.8867 28.1346L2.79673 12.9446Z" fill="white"/>
<path id="Vector_8" d="M0.957179 16.8773L0.0535889 18.91L34.1585 34.0702L35.0621 32.0375L0.957179 16.8773Z" fill="white"/>
<path id="Vector_9" d="M35.3095 32.1822L0.95343 16.8579L1.94209 14.8806L36.051 30.2049L35.3095 32.1822Z" fill="#FC7A7A"/>
</g>
</svg>
