<svg width="37" height="23" viewBox="0 0 37 23" fill="none" xmlns="http://www.w3.org/2000/svg">
<g id="Group">
<path id="Vector" d="M14.6427 23.0101C24.035 27.2119 33.1801 27.4591 34.6631 23.7516C36.1461 20.0441 29.7198 13.865 20.3275 9.66316C10.9352 5.46134 1.79008 5.21418 0.307089 8.92166C-1.42307 12.6292 5.00324 19.0555 14.6427 23.0101Z" fill="url(#paint0_radial_1_497)"/>
<g id="Group_2">
<g id="Group_3">
<path id="Vector_2" d="M14.3953 12.1348C5.99167 6.69717 4.01434 0.518021 4.01434 0.518021L16.867 7.68583L14.3953 12.1348Z" fill="#FFC3C3"/>
<path id="Vector_3" d="M14.3953 12.1348L16.8669 7.93298L26.7536 13.6178L24.5291 17.5725C22.7989 16.831 20.5744 15.8423 18.3499 14.6065C16.8669 13.6178 15.3839 12.8763 14.3953 12.1348Z" fill="#F89D16"/>
<path id="Vector_4" d="M36.146 18.8083L35.4045 20.2913C35.4045 20.2913 31.9442 20.2913 24.5292 17.3253L26.7537 13.3707L36.146 18.8083Z" fill="#2974AD"/>
<path id="Vector_5" d="M3.76733 0.518001C4.756 0.518001 8.71065 -1.70649 19.0916 3.48399L16.6199 7.93298L3.76733 0.518001Z" fill="#EDECE8"/>
<path id="Vector_6" d="M28.9782 9.16879C35.4045 14.1121 36.8875 17.5724 36.8875 17.5724L36.146 18.8083L26.5065 13.3706L28.9782 9.16879Z" fill="#9AD4E9"/>
<path id="Vector_7" d="M16.6201 7.68583L19.0917 3.23686C20.0804 3.73119 21.069 4.22551 22.0577 4.71984C24.7765 6.20284 27.001 7.68584 28.9783 8.92166L26.7539 13.1235L16.6201 7.68583Z" fill="#FEBD33"/>
</g>
<path id="Vector_8" d="M36.1462 17.3253L34.9103 19.5498C34.9103 19.5498 31.9444 19.0554 30.9557 18.5611L33.4274 14.1121C33.4274 14.1121 34.1688 14.3593 36.1462 17.3253Z" fill="#474C55"/>
</g>
</g>
<defs>
<radialGradient id="paint0_radial_1_497" cx="0" cy="0" r="1" gradientUnits="userSpaceOnUse" gradientTransform="translate(17.3982 16.4984) rotate(113.284) scale(7.21509 18.731)">
<stop stop-color="#9AD4E9"/>
<stop offset="1" stop-color="white"/>
</radialGradient>
</defs>
</svg>
