<svg width="37" height="30" viewBox="0 0 37 30" fill="none" xmlns="http://www.w3.org/2000/svg">
<g id="Group">
<path id="Vector" d="M23.8808 24.7086C14.9828 29.899 6.0849 31.382 4.10757 27.9217C2.13024 24.4614 7.81504 17.5408 16.713 12.3503C25.611 7.15979 34.509 5.67679 36.4863 9.13711C38.4636 12.5974 32.7788 19.5181 23.8808 24.7086Z" fill="url(#paint0_radial_1_486)"/>
<g id="Group_2">
<g id="Group_3">
<path id="Vector_2" d="M22.8923 13.5861C30.5544 7.15974 31.7902 0.980591 31.7902 0.980591L19.9263 9.6314L22.8923 13.5861Z" fill="#FFC3C3"/>
<path id="Vector_3" d="M22.892 13.5861L19.926 9.63145L10.7809 16.3049L13.4997 20.0124C15.2299 19.0238 17.2072 17.7879 19.1845 16.3049C20.6675 15.5634 21.6562 14.5748 22.892 13.5861Z" fill="#F89D16"/>
<path id="Vector_4" d="M1.88287 22.9784L2.87154 24.4614C2.87154 24.4614 6.33184 24.2142 13.4997 20.2596L10.7808 16.5521L1.88287 22.9784Z" fill="#2974AD"/>
<path id="Vector_5" d="M31.79 0.980618C30.8013 0.980618 26.5995 -0.502364 16.96 5.67678L19.926 9.63143L31.79 0.980618Z" fill="#EDECE8"/>
<path id="Vector_6" d="M7.81505 12.5974C1.88307 18.2822 0.894409 21.9897 0.894409 21.9897L1.6359 22.9784L10.5339 16.5521L7.81505 12.5974Z" fill="#9AD4E9"/>
<path id="Vector_7" d="M19.9262 9.63145L16.9602 5.6768C16.2187 6.17114 15.23 6.91263 14.2414 7.40696C11.7697 9.13712 9.54522 10.8673 7.81506 12.5974L10.5339 16.5521L19.9262 9.63145Z" fill="#FEBD33"/>
</g>
<path id="Vector_8" d="M1.63586 21.4954L3.11887 23.7199C3.11887 23.7199 6.08486 22.9784 7.07352 22.2369L4.10753 18.2822C4.10753 18.2822 3.36603 18.2822 1.63586 21.4954Z" fill="#474C55"/>
</g>
</g>
<defs>
<radialGradient id="paint0_radial_1_486" cx="0" cy="0" r="1" gradientUnits="userSpaceOnUse" gradientTransform="translate(20.3056 18.5005) rotate(59.6759) scale(7.21491 18.7311)">
<stop stop-color="#9AD4E9"/>
<stop offset="1" stop-color="white"/>
</radialGradient>
</defs>
</svg>
