<svg width="28" height="30" viewBox="0 0 28 30" fill="none" xmlns="http://www.w3.org/2000/svg">
<g id="Group">
<path id="Vector" d="M27.6087 15.7539C27.6087 23.1688 21.4296 29.348 14.0146 29.348C6.59962 29.348 0.420471 23.1688 0.420471 15.7539C0.420471 8.33888 6.59962 2.15973 14.0146 2.15973C21.4296 2.15973 27.6087 8.33888 27.6087 15.7539Z" fill="url(#paint0_radial_1_402)"/>
<g id="Group_2">
<path id="Vector_2" d="M12.7788 0.429565V4.63137C11.0487 4.63137 9.56567 5.37288 8.57701 6.36154L5.61102 3.39555L5.85817 3.14838C6.10534 3.14838 6.10535 2.90122 6.35251 2.65405L6.59969 2.40689H6.84686C6.84686 2.40689 7.094 2.40688 7.094 2.15972C7.094 2.15972 7.34118 2.15972 7.34118 1.91256C7.34118 1.91256 7.34118 1.91256 7.58835 1.91256C7.58835 1.91256 7.58835 1.91256 7.83552 1.91256C8.08269 1.91256 8.08267 1.66539 8.32984 1.66539H8.57701C8.82418 1.66539 8.82416 1.41823 9.07133 1.41823C9.07133 1.41823 9.07134 1.41823 9.3185 1.41823C9.3185 1.41823 9.31851 1.41823 9.56567 1.41823H9.81284H10.06H10.3072C10.5543 1.41823 10.8015 1.41822 10.8015 1.17106H11.0487H11.2958C11.2958 1.17106 11.543 1.17106 11.7902 1.17106H12.0373H12.2845C12.5317 1.17106 12.5317 1.17106 12.7788 1.17106C12.5317 0.429559 12.5317 0.429565 12.7788 0.429565Z" fill="#EDECE8"/>
<path id="Vector_3" d="M8.57691 6.60874C7.58825 7.5974 6.84676 9.32755 6.84676 10.8105H2.39777V10.5634C2.39777 10.3162 2.39777 10.0691 2.39777 10.0691V9.82188C2.39777 9.57472 2.39777 9.32755 2.39777 8.83322C2.39777 8.83322 2.39777 8.83323 2.39777 8.58606C2.39777 8.09173 2.64494 7.84456 2.64494 7.35023C2.64494 7.35023 2.64494 7.35023 2.64494 7.10307C2.64494 7.10307 2.64494 7.10306 2.64494 6.8559C2.64494 6.60873 2.89209 6.36157 2.89209 6.11441V5.86723V5.62007C2.89209 5.62007 2.89209 5.62007 2.89209 5.3729C2.89209 5.3729 2.89209 5.3729 2.89209 5.12573C2.89209 5.12573 2.89209 5.12574 2.89209 4.87857C3.13925 4.38424 3.38642 4.13707 3.88075 3.64274C4.12791 3.39557 4.12793 3.14841 4.37509 3.14841L8.57691 6.60874Z" fill="#FF3B5C"/>
<path id="Vector_4" d="M19.9465 3.64271L16.9805 6.60871C15.9918 5.62005 14.5088 4.87855 12.7787 4.87855V0.429565H13.0259C13.0259 0.429565 13.0258 0.429565 13.273 0.429565C13.273 0.429565 13.273 0.429565 13.5202 0.429565H13.7673C14.2617 0.429565 14.756 0.676725 15.2503 0.676725H15.4975H15.7447C15.7447 0.676725 15.7447 0.676725 15.9918 0.676725H16.239C16.239 0.676725 16.239 0.676725 16.4862 0.676725C16.4862 0.676725 16.4862 0.676725 16.7333 0.676725H16.9805C16.9805 0.676725 16.9805 0.676725 17.2277 0.676725H17.4748C17.722 0.676725 17.9692 0.923897 18.2163 0.923897C18.2163 0.923897 18.2163 0.923897 18.4635 0.923897C18.4635 0.923897 18.4635 0.923897 18.7107 0.923897L18.9578 1.17106C18.9578 1.17106 18.9578 1.17106 19.205 1.41823C19.205 1.41823 19.205 1.41822 19.4522 1.66539C19.4522 1.66539 19.4522 1.66539 19.6993 1.66539C19.6993 1.66539 19.9465 1.66539 19.9465 1.91256C19.9465 1.91256 19.9465 1.91255 20.1936 2.15972L20.4408 2.40689C19.6993 3.39555 19.9465 3.39555 19.9465 3.64271Z" fill="#FF3B5C"/>
<path id="Vector_5" d="M23.1596 10.8104H18.7106C18.7106 9.08029 17.9691 7.5973 16.9805 6.60864L19.9464 3.64264C20.1936 3.8898 20.688 4.38414 20.9351 4.6313C20.9351 4.6313 20.9351 4.63131 20.9351 4.87847L21.1823 5.12563C21.1823 5.3728 21.4295 5.37281 21.4295 5.61998C21.4295 5.61998 21.4295 5.86714 21.6766 5.86714C21.6766 5.86714 21.6766 5.86714 21.6766 6.11431C21.6766 6.11431 21.6766 6.1143 21.6766 6.36147C21.6766 6.36147 21.6766 6.36147 21.6766 6.60864C21.6766 6.60864 21.6766 6.60863 21.6766 6.8558V7.10297V7.35013C21.6766 7.35013 21.6766 7.35013 21.6766 7.5973C21.6766 7.5973 21.6766 7.84446 21.9238 7.84446V8.09163V8.33879C21.9238 8.58596 21.9238 8.83313 22.1709 9.08029V9.32745V9.57463C22.1709 9.82179 22.1709 9.82179 22.1709 10.069V10.3161V10.5633V10.8104V11.0576C23.1596 10.5633 23.1596 10.8104 23.1596 10.8104Z" fill="#EDECE8"/>
<path id="Vector_6" d="M23.1599 10.8105C23.1599 12.7878 22.6656 14.518 21.6769 16.2481L21.4297 16.4953C21.4297 16.7425 21.1826 16.7425 21.1826 16.9896C20.9354 17.2368 20.6882 17.7311 20.4411 17.9783C20.4411 17.9783 20.4411 17.9783 20.1939 18.2255L17.2279 15.2595C17.9694 14.0236 18.7109 12.5406 18.7109 10.8105H23.1599Z" fill="#FF3B5C"/>
<path id="Vector_7" d="M8.57698 15.0123L5.61099 17.9783C5.36383 17.7311 5.11665 17.484 5.11665 17.2368C5.11665 17.2368 5.11665 17.2368 5.11665 16.9896C4.86948 16.7425 4.62232 16.4953 4.37516 16.001C4.37516 16.001 4.37515 15.7538 4.12799 15.7538C4.12799 15.7538 4.12798 15.5066 3.88081 15.5066C3.88081 15.5066 3.88083 15.2595 3.63367 15.2595V15.0123V14.7651V14.518V14.2708V14.0236V13.7765V13.5293V13.2822V13.035V12.7878V12.5407V12.2935V12.0463V11.7992V11.552V11.3048V11.0577V10.8105H8.08264C6.59964 12.5406 7.34115 14.0236 8.57698 15.0123Z" fill="#EDECE8"/>
<path id="Vector_8" d="M19.9466 18.2255C19.4523 18.7198 18.958 19.2141 18.4637 19.4613C18.2165 19.4613 18.2165 19.7085 17.9693 19.7085C16.4863 20.6971 14.509 21.1915 12.5317 21.1915V16.9896C14.2618 16.9896 15.7448 16.2482 16.7335 15.2595L19.9466 18.2255Z" fill="#EDECE8"/>
<path id="Vector_9" d="M12.7786 16.9897V21.4387C10.8013 21.4387 9.07113 20.9444 7.34097 19.9557C7.34097 19.9557 7.09382 19.7085 6.84665 19.7085C6.35232 19.2142 5.85798 18.967 5.36365 18.4727L8.32963 15.5067C9.56546 16.2482 11.0485 16.9897 12.7786 16.9897Z" fill="#FF3B5C"/>
</g>
</g>
<defs>
<radialGradient id="paint0_radial_1_402" cx="0" cy="0" r="1" gradientUnits="userSpaceOnUse" gradientTransform="translate(14.0294 15.7687) scale(13.5348 13.5348)">
<stop stop-color="#9AD4E9"/>
<stop offset="1" stop-color="white"/>
</radialGradient>
</defs>
</svg>
