<svg width="20" height="21" viewBox="0 0 20 21" fill="none" xmlns="http://www.w3.org/2000/svg">
<g id="Group">
<path id="Vector" d="M19.1416 11.9942C19.1416 16.6903 15.4341 20.3978 10.7379 20.3978C6.04178 20.3978 2.33429 16.6903 2.33429 11.9942C2.33429 7.29803 6.04178 3.59055 10.7379 3.59055C15.1869 3.59055 19.1416 7.29803 19.1416 11.9942Z" fill="url(#paint0_radial_1_424)"/>
<g id="Group_2">
<g id="Group_3">
<path id="Vector_2" d="M7.03043 0.624573C5.30027 0.624573 3.57012 1.36607 2.33429 2.6019L7.03043 7.29805V0.624573Z" fill="#8DC63F"/>
<path id="Vector_3" d="M2.58129 2.60193C1.34546 3.83776 0.603943 5.32075 0.603943 7.29808H7.03026L2.58129 2.60193Z" fill="#F9ED32"/>
<path id="Vector_4" d="M11.7263 2.6019C10.4905 1.36607 9.00748 0.624573 7.03015 0.624573V7.05089L11.7263 2.6019Z" fill="#F89D16"/>
<path id="Vector_5" d="M13.7036 7.05089C13.7036 5.32073 12.9621 3.59057 11.7263 2.35474L7.03015 7.05089H13.7036Z" fill="#FD77A0"/>
<path id="Vector_6" d="M7.03015 13.7244C8.76031 13.7244 10.4905 12.9829 11.7263 11.7471L7.03015 7.05093V13.7244Z" fill="#27AAE1"/>
<path id="Vector_7" d="M13.7038 7.05093H7.27753L11.9737 11.7471C12.9623 10.5113 13.7038 9.02826 13.7038 7.05093Z" fill="#FF2952"/>
<path id="Vector_8" d="M2.58136 11.7471C3.81719 12.9829 5.30017 13.7244 7.2775 13.7244V7.05093L2.58136 11.7471Z" fill="#662D91"/>
<path id="Vector_9" d="M0.603943 7.05093C0.603943 8.78109 1.34546 10.5113 2.58129 11.7471L7.27743 7.05093H0.603943Z" fill="#EDECE8"/>
</g>
<path id="Vector_10" d="M8.26628 7.05087C8.26628 7.79236 7.77195 8.28669 7.03045 8.28669C6.28895 8.28669 5.79462 7.79236 5.79462 7.05087C5.79462 6.30937 6.28895 5.81503 7.03045 5.81503C7.77195 6.0622 8.26628 6.55654 8.26628 7.05087Z" fill="#EDECE8"/>
<path id="Vector_11" d="M7.5248 7.05091C7.5248 7.29808 7.27762 7.54524 7.03045 7.54524C6.78329 7.54524 6.53613 7.29808 6.53613 7.05091C6.53613 6.80374 6.78329 6.55658 7.03045 6.55658C7.27762 6.80375 7.5248 6.80374 7.5248 7.05091Z" fill="#E1C9C9"/>
</g>
</g>
<defs>
<radialGradient id="paint0_radial_1_424" cx="0" cy="0" r="1" gradientUnits="userSpaceOnUse" gradientTransform="translate(10.5748 12.0634) scale(8.5025)">
<stop stop-color="#9AD4E9"/>
<stop offset="1" stop-color="white"/>
</radialGradient>
</defs>
</svg>
