<svg width="42" height="22" viewBox="0 0 42 22" fill="none" xmlns="http://www.w3.org/2000/svg">
<g id="Group">
<path id="Vector" d="M6.92143 28.9308C7.66293 29.178 12.3591 30.1666 12.3591 30.1666C12.3591 30.1666 9.39308 30.9081 7.66292 31.4024C5.93276 31.8968 4.20261 32.6383 4.20261 32.6383C4.20261 32.6383 4.20262 32.6383 4.44979 32.6383C5.68562 32.6383 9.88743 32.144 10.6289 32.144C11.6176 32.144 15.0779 31.6496 15.0779 31.6496C15.0779 31.6496 18.2911 36.5929 20.0212 38.3231C20.5155 39.0646 21.0099 39.5589 21.257 39.8061C21.7514 40.3004 21.7514 40.3004 21.7514 40.5476C21.7514 40.5476 19.7741 36.5929 19.2797 35.8514C18.7854 35.1099 17.7967 33.1326 17.7967 32.8854C18.0439 33.1326 21.9985 36.0986 23.4815 37.0873C24.9645 38.0759 28.4249 39.8061 28.672 39.8061C28.4249 39.5589 22.9872 34.6156 22.4929 34.1213C21.7514 33.6269 20.7627 32.144 20.7627 32.144C21.0099 32.144 24.9645 33.6269 26.4475 34.1213C27.9305 34.6156 35.0983 36.0986 35.8398 36.0986C35.8398 35.8514 31.3909 33.8741 29.9079 33.3798C28.4249 32.8854 22.9872 30.4138 22.9872 30.4138C23.4816 30.4138 29.9079 30.4138 32.1324 30.4138C34.1097 30.4138 39.3002 30.1666 39.7945 29.9195C40.0416 29.6723 35.3455 28.6836 35.3455 28.6836C35.3455 28.6836 31.8852 28.6836 29.9079 28.4365C27.9305 28.1893 23.7287 28.4365 22.9872 28.4365C23.9759 28.4365 27.189 28.1893 29.6607 27.9421C30.6494 27.9421 31.638 27.695 32.1324 27.695C33.6154 27.4478 38.3115 26.212 38.8058 26.212C39.3002 26.212 41.2775 25.7176 41.2775 25.7176C41.0303 25.7176 39.3002 25.7176 37.3228 25.7176C35.0983 25.4705 31.3909 25.7176 28.672 25.9648C25.9532 25.9648 23.9759 26.212 23.9759 26.212C23.9759 26.212 23.9759 26.212 24.223 26.212C25.4589 25.7176 30.8965 23.246 32.1324 22.7517C33.3682 22.0102 40.2888 17.5612 40.536 17.314C40.2888 17.314 37.57 18.5498 35.8398 19.0441C33.8625 19.5385 31.3909 21.0215 31.1437 21.0215C30.8965 21.0215 25.9532 22.9988 25.4589 22.9988C25.706 22.7516 33.3682 17.8083 34.3569 16.8197C35.3455 15.831 38.8058 12.3707 39.053 12.3707C38.8058 12.6179 35.0983 14.5952 34.1097 15.0895C33.121 15.5838 27.4362 18.797 25.2117 20.28C24.9645 20.5271 24.7174 20.7743 24.4702 20.7743C23.4815 21.5158 22.7401 22.2573 22.7401 22.2573C22.9872 22.0101 26.9419 18.0555 27.6834 17.314C28.4249 16.5725 31.8852 12.865 32.6267 12.1235C33.3682 11.382 35.8398 8.41602 36.3342 7.92169C36.087 7.92169 35.5927 8.41602 35.0983 8.91036C33.3682 10.1462 30.8965 12.1235 30.155 12.3707C29.1664 12.865 27.189 14.348 27.189 14.348C27.189 14.348 22.2457 19.7857 21.5042 20.5272C21.7514 20.28 23.7287 16.3253 24.223 15.3367C24.4702 14.348 26.6947 8.16887 27.189 6.43871C27.6834 4.95572 28.1777 1.24823 28.1777 1.24823C28.1777 1.24823 25.706 5.45004 25.4589 6.93303C24.9645 8.41603 22.9872 12.3707 22.4929 13.8537C21.9985 15.0895 20.7627 17.8083 20.7627 17.8083L19.2797 20.28C19.5269 19.5385 20.5156 14.5952 20.2684 13.3593C20.0212 12.1235 20.2684 8.41603 20.5156 7.1802C20.7627 5.94437 20.5156 0.506714 20.5156 0.506714C20.5156 0.506714 19.7741 4.21422 19.5269 5.45005C19.2797 6.93304 18.0439 11.6292 18.0439 12.865C18.0439 13.6065 17.7967 15.5838 17.5496 17.0668C17.5496 18.0555 17.3024 18.797 17.3024 18.797C17.3024 18.5498 17.3024 13.3593 17.3024 11.8763C17.3024 10.3933 16.8081 6.19155 16.3137 5.45005C15.8194 4.70855 14.8308 0.506714 14.8308 0.506714C14.8308 0.75388 14.5836 5.45004 14.5836 6.93303C14.5836 8.41603 14.5836 15.5838 15.0779 17.0668C15.3251 18.5498 15.5722 19.2913 15.5722 19.2913C15.5722 19.2913 15.5722 19.0442 15.3251 18.5498C14.8307 16.8197 13.5949 11.6292 12.8534 10.1462C12.3591 9.15753 11.1233 6.93304 10.1346 5.20288C9.39309 4.46138 9.14592 3.47272 8.89876 3.22555C9.14592 4.21422 10.8761 8.66319 11.1233 10.1462C11.6176 11.8763 12.3591 18.3027 12.6063 18.5498C12.6063 19.0442 12.8534 20.0328 12.8534 20.0328C12.8534 20.0328 8.40443 12.3707 7.1686 10.6405C5.93277 8.91035 3.70827 7.42737 3.70827 7.42737C3.70827 7.67454 7.1686 15.0895 8.15726 16.5725C9.39309 18.3027 11.3704 22.5045 11.6176 22.7517C11.3704 22.5045 6.17994 16.8197 5.19128 16.0782C4.20261 15.3367 1.73095 12.865 1.48379 12.865C1.73095 13.1122 4.44979 17.8083 5.43845 19.0441C6.42711 20.28 11.3704 25.9648 11.3704 25.9648C11.3704 25.9648 6.4271 23.9875 4.94411 22.9988C3.46111 22.0101 0.000793457 21.2686 0.000793457 21.2686C0.247959 21.5158 4.44979 23.9875 5.43845 24.9761C6.42711 25.9648 9.88742 27.9421 10.1346 28.1893C9.88742 28.1893 6.67427 27.2006 5.93277 27.4478C4.9441 27.4478 1.23662 27.9421 1.23662 27.9421C1.48378 27.4478 6.17993 28.6836 6.92143 28.9308Z" fill="#65DCE1"/>
<path id="Vector_2" d="M6.92128 28.9308C7.66278 29.178 12.3589 30.1666 12.3589 30.1666C12.3589 30.1666 9.39294 30.9081 7.90994 31.4024C6.17978 31.8968 4.44964 32.6383 4.44964 32.6383C4.44964 32.6383 4.44962 32.6383 4.69678 32.6383C5.93261 32.6383 10.1344 32.144 10.8759 32.144C11.8646 32.144 15.3249 31.6496 15.3249 31.6496C15.3249 31.6496 18.5381 36.5929 20.2682 38.3231C21.0097 39.0646 21.2569 39.5589 21.5041 39.8061C21.9984 40.3004 21.9984 40.3004 21.9984 40.3004C21.9984 40.3004 20.0211 36.3458 19.5267 35.6043C19.0324 34.8628 18.0437 32.8854 18.0437 32.6383C18.2909 32.8854 22.2456 35.8514 23.7286 36.8401C25.2116 37.8288 28.6719 39.5589 28.9191 39.5589C28.6719 39.3118 23.2342 34.3684 22.7399 33.8741C21.9984 33.3798 21.0098 31.8968 21.0098 31.8968C21.2569 31.8968 25.2116 33.3798 26.6946 33.8741C28.1776 34.3684 35.3454 35.8514 36.334 35.8514C36.0869 35.8514 31.885 33.627 30.1549 33.1326C28.4247 32.6383 23.2342 30.1666 23.2342 30.1666C23.7286 30.1666 30.1549 30.1666 32.1322 30.1666C34.1095 30.1666 39.3 29.9195 39.7943 29.6723C40.2887 29.4251 35.3454 28.4365 35.3454 28.4365C35.3454 28.4365 31.885 28.4365 29.9077 28.1893C27.9304 27.9421 23.7286 28.1893 22.9871 28.1893C23.7286 28.1893 27.1889 27.9421 29.6605 27.695C30.6492 27.695 31.6379 27.4478 32.1322 27.4478C33.6152 27.2006 38.3113 25.9648 38.8057 25.9648C39.3 25.9648 41.2773 25.4705 41.2773 25.4705C41.0302 25.4705 39.3 25.4705 37.3227 25.4705C35.0982 25.4705 31.3907 25.7176 28.6719 25.7176C25.9531 25.7176 23.9757 25.9648 23.9757 25.9648C23.9757 25.9648 23.9757 25.9648 24.2229 25.9648C25.4587 25.4705 30.8964 22.9988 32.1322 22.5045C33.368 21.763 40.2887 17.314 40.5359 17.0668C40.2887 17.0668 37.5699 18.3027 35.8397 18.797C33.8624 19.2913 31.3907 21.0215 31.3907 21.0215C31.1435 21.0215 26.2002 22.9988 25.7059 22.9988C25.9531 22.7516 33.6152 17.8083 34.6039 16.8197C35.3454 15.831 39.0529 12.3707 39.3 12.3707C39.0529 12.6179 35.3454 14.5952 34.3567 15.0895C33.368 15.5838 27.6832 18.797 25.4587 20.28C25.2116 20.5272 24.9644 20.7743 24.7172 20.7743C23.7286 21.5158 22.9871 22.2573 22.9871 22.2573C23.2342 22.0101 27.1889 18.0555 27.9304 17.314C28.6719 16.5725 32.1322 12.865 32.8737 12.1235C33.368 11.382 36.0868 8.41603 36.5812 7.92169C36.0868 8.16886 35.5925 8.41602 35.0982 8.91036C33.368 10.1462 30.8964 12.1235 30.1549 12.6179C29.1662 13.1122 27.1889 14.5952 27.1889 14.5952C27.1889 14.5952 22.2456 20.0328 21.5041 20.7743C21.7512 20.5272 23.7286 16.5725 24.2229 15.5838C24.4701 14.5952 26.6946 8.41602 26.9417 6.68586C27.4361 4.9557 27.9304 1.49538 27.9304 1.49538C27.9304 1.49538 25.4587 5.69721 25.2115 7.1802C24.7172 8.6632 22.7399 12.6178 22.2456 14.1008C21.7512 15.3367 20.5154 18.0555 20.5154 18.0555L19.2796 20.28C19.2796 19.5385 20.5154 14.5952 20.2682 13.3593C20.2682 12.1235 20.2682 8.41603 20.5154 7.1802C20.7626 5.69721 20.5154 0.506714 20.5154 0.506714C20.5154 0.506714 19.7739 4.21422 19.5267 5.45005C19.2796 6.93304 18.0437 11.6292 18.0437 12.865C18.0437 13.6065 17.5494 15.5838 17.5494 17.0668C17.5494 18.0555 17.3022 18.797 17.3022 18.797C17.3022 18.5498 17.3022 13.3593 17.3022 12.1235C17.3022 10.6405 16.8079 6.4387 16.3136 5.6972C15.8193 4.70853 14.8306 0.506714 14.8306 0.506714C14.8306 0.75388 14.5834 5.45004 14.5834 6.93303C14.5834 8.66319 14.5834 15.5838 15.0778 17.0668C15.3249 18.5498 15.5721 19.2913 15.5721 19.2913C15.5721 19.2913 15.5721 19.0442 15.3249 18.5498C14.8306 16.8197 13.3476 11.6292 12.8533 10.1462C12.3589 9.15753 11.1231 6.93304 10.1344 5.20288C9.64011 4.46138 9.14578 3.47272 9.14578 3.22555C9.39294 4.21422 10.8759 8.6632 11.3703 10.1462C11.8646 11.8764 12.6061 18.3027 12.8533 18.5498C13.1004 19.0442 13.1004 20.0328 13.1004 20.0328C13.1004 20.0328 8.65145 12.3707 7.41562 10.6405C5.93263 8.91035 3.95529 7.42737 3.95529 7.42737C3.95529 7.67454 7.41562 15.0895 8.40429 16.5725C9.64012 18.3027 11.6174 22.5045 11.8646 22.7517C11.6174 22.5045 6.1798 16.8197 5.4383 16.0782C4.44964 15.3367 1.97796 12.865 1.7308 12.865C1.97796 13.1122 4.69678 17.8083 5.68545 19.0442C6.67411 20.28 11.6174 25.9648 11.6174 25.9648C11.6174 25.9648 6.67412 23.9875 5.19113 22.9988C3.70813 22.0101 0.247803 21.2687 0.247803 21.2687C0.494969 21.5158 4.69678 23.9875 5.68545 24.9762C6.67411 25.9648 10.1344 27.9421 10.3816 28.1893C10.1344 28.1893 6.92129 27.2006 6.17979 27.2006C5.19113 27.2006 1.48364 27.695 1.48364 27.695C1.48364 27.4478 6.42695 28.6836 6.92128 28.9308Z" fill="url(#paint0_linear_1_724)"/>
<path id="Vector_3" d="M16.0664 29.9195L21.5041 20.7743C21.7512 20.5272 23.7285 16.5725 24.2229 15.5839C24.47 14.5952 26.6945 8.41604 26.9417 6.68587C27.436 4.95571 27.9304 1.49539 27.9304 1.49539C27.9304 1.74256 21.7512 17.8083 20.0211 21.0215C18.0437 24.2346 16.0664 29.9195 16.0664 29.9195Z" fill="url(#paint1_linear_1_724)"/>
<path id="Vector_4" d="M16.0664 29.9195L19.5267 20.28C19.5267 19.5385 20.7626 14.5952 20.5154 13.3593C20.5154 12.1235 20.5154 8.41603 20.7626 7.1802C21.0097 5.69721 20.7626 0.506714 20.7626 0.506714C20.5154 3.96704 16.0664 29.4251 16.0664 29.9195Z" fill="url(#paint2_linear_1_724)"/>
<path id="Vector_5" d="M16.0667 29.4251L17.0554 19.0442C17.0554 18.797 17.0554 13.6065 17.0554 12.1235C17.0554 10.6405 16.5611 6.43869 16.0667 5.6972C15.8196 4.70853 14.8309 0.506714 14.8309 0.506714C14.8309 0.75388 15.5724 8.41602 15.8196 9.89902C16.0668 11.382 16.0667 28.9308 16.0667 29.4251Z" fill="url(#paint3_linear_1_724)"/>
<path id="Vector_6" d="M16.0667 29.4252L15.3252 18.5499C14.8309 16.8197 13.3479 11.6292 12.8535 10.1462C12.3592 9.15758 11.1234 6.93309 10.1347 5.20293C11.3705 8.16892 12.8535 13.1122 13.3479 15.3367C14.0894 18.0555 16.0667 29.4252 16.0667 29.4252Z" fill="url(#paint4_linear_1_724)"/>
<path id="Vector_7" d="M3.95557 7.42732C4.20273 7.67449 9.14604 15.5838 9.88754 16.5725C10.629 17.5611 16.0667 29.6722 16.0667 29.9194C16.0667 29.6722 13.8422 23.7402 12.8535 20.0328C12.8535 20.0328 8.40455 12.3706 7.16873 10.6405C5.9329 8.9103 3.95557 7.42732 3.95557 7.42732Z" fill="url(#paint5_linear_1_724)"/>
<path id="Vector_8" d="M1.73077 12.6179C3.46093 14.8424 15.8192 29.6723 16.0664 29.9195L11.8646 22.7517C11.6174 22.5045 6.17977 16.8197 5.43828 16.0782C4.44961 15.0895 1.73077 12.6179 1.73077 12.6179Z" fill="url(#paint6_linear_1_724)"/>
<path id="Vector_9" d="M0.000793457 21.0215C0.495125 21.2687 14.3364 28.6837 16.0666 29.6723L11.6176 25.4705C11.6176 25.4705 6.67427 23.4932 5.19128 22.5045C3.70828 22.0102 0.247959 21.2687 0.000793457 21.0215Z" fill="url(#paint7_linear_1_724)"/>
<path id="Vector_10" d="M24.4703 21.0215C23.4816 21.763 22.7402 22.5045 22.7402 22.5045C22.9873 22.2573 26.942 18.3027 27.6835 17.5612C28.425 16.8197 31.8853 13.1122 32.6268 12.3707C33.1211 11.6292 35.84 8.66322 36.3343 8.16888C35.84 8.16888 35.5928 8.66321 35.0985 8.91038C25.459 16.5725 16.3138 29.4251 16.3138 29.4251L25.2118 20.28C24.7175 20.7743 24.4703 20.7743 24.4703 21.0215Z" fill="url(#paint8_linear_1_724)"/>
<path id="Vector_11" d="M25.2118 23.246C25.2118 23.246 33.1211 18.0555 34.1098 17.0668C34.8513 16.0782 38.5588 12.6179 38.8059 12.6179C38.0644 12.865 26.6948 20.5272 25.9533 21.2687C24.9647 22.0102 16.561 29.178 16.3138 29.4251L25.2118 23.246Z" fill="url(#paint9_linear_1_724)"/>
<path id="Vector_12" d="M16.0664 29.4251L23.7286 26.212C24.9644 25.7176 30.402 23.246 31.6379 22.7517C32.8737 22.0102 39.7943 17.5612 40.0415 17.314C39.5472 17.5612 29.9077 22.2573 27.6832 22.9988C25.7059 23.9875 16.5607 29.4251 16.0664 29.4251Z" fill="url(#paint10_linear_1_724)"/>
</g>
<defs>
<linearGradient id="paint0_linear_1_724" x1="18.7577" y1="10.6037" x2="24.3555" y2="44.4678" gradientUnits="userSpaceOnUse">
<stop stop-color="#336B7E"/>
<stop offset="0.3139" stop-color="#31687B"/>
<stop offset="0.5731" stop-color="#2B5E71"/>
<stop offset="0.812" stop-color="#224D5F"/>
<stop offset="1" stop-color="#173A4C"/>
</linearGradient>
<linearGradient id="paint1_linear_1_724" x1="26.7383" y1="22.6145" x2="17.3153" y2="8.71486" gradientUnits="userSpaceOnUse">
<stop stop-color="#173A4C"/>
<stop offset="0.188" stop-color="#224D5F"/>
<stop offset="0.4269" stop-color="#2B5E71"/>
<stop offset="0.6861" stop-color="#31687B"/>
<stop offset="1" stop-color="#336B7E"/>
</linearGradient>
<linearGradient id="paint2_linear_1_724" x1="21.658" y1="17.9033" x2="13.0594" y2="10.8775" gradientUnits="userSpaceOnUse">
<stop stop-color="#173A4C"/>
<stop offset="0.188" stop-color="#224D5F"/>
<stop offset="0.4269" stop-color="#2B5E71"/>
<stop offset="0.6861" stop-color="#31687B"/>
<stop offset="1" stop-color="#336B7E"/>
</linearGradient>
<linearGradient id="paint3_linear_1_724" x1="22.4464" y1="25.2635" x2="8.55069" y2="4.73956" gradientUnits="userSpaceOnUse">
<stop stop-color="#173A4C"/>
<stop offset="0.188" stop-color="#224D5F"/>
<stop offset="0.4269" stop-color="#2B5E71"/>
<stop offset="0.6861" stop-color="#31687B"/>
<stop offset="1" stop-color="#336B7E"/>
</linearGradient>
<linearGradient id="paint4_linear_1_724" x1="11.6989" y1="17.3867" x2="22.0567" y2="17.7555" gradientUnits="userSpaceOnUse">
<stop stop-color="#173A4C"/>
<stop offset="0.188" stop-color="#224D5F"/>
<stop offset="0.4269" stop-color="#2B5E71"/>
<stop offset="0.6861" stop-color="#31687B"/>
<stop offset="1" stop-color="#336B7E"/>
</linearGradient>
<linearGradient id="paint5_linear_1_724" x1="7.21927" y1="18.5248" x2="26.7537" y2="19.2226" gradientUnits="userSpaceOnUse">
<stop stop-color="#173A4C"/>
<stop offset="0.188" stop-color="#224D5F"/>
<stop offset="0.4269" stop-color="#2B5E71"/>
<stop offset="0.6861" stop-color="#31687B"/>
<stop offset="1" stop-color="#336B7E"/>
</linearGradient>
<linearGradient id="paint6_linear_1_724" x1="5.68762" y1="21.1157" x2="28.2811" y2="21.9239" gradientUnits="userSpaceOnUse">
<stop stop-color="#173A4C"/>
<stop offset="0.188" stop-color="#224D5F"/>
<stop offset="0.4269" stop-color="#2B5E71"/>
<stop offset="0.6861" stop-color="#31687B"/>
<stop offset="1" stop-color="#336B7E"/>
</linearGradient>
<linearGradient id="paint7_linear_1_724" x1="4.63246" y1="25.3681" x2="29.1476" y2="26.2384" gradientUnits="userSpaceOnUse">
<stop stop-color="#173A4C"/>
<stop offset="0.188" stop-color="#224D5F"/>
<stop offset="0.4269" stop-color="#2B5E71"/>
<stop offset="0.6861" stop-color="#31687B"/>
<stop offset="1" stop-color="#336B7E"/>
</linearGradient>
<linearGradient id="paint8_linear_1_724" x1="26.8713" y1="20.0217" x2="23.6185" y2="12.7103" gradientUnits="userSpaceOnUse">
<stop stop-color="#173A4C"/>
<stop offset="0.188" stop-color="#224D5F"/>
<stop offset="0.4269" stop-color="#2B5E71"/>
<stop offset="0.6861" stop-color="#31687B"/>
<stop offset="1" stop-color="#336B7E"/>
</linearGradient>
<linearGradient id="paint9_linear_1_724" x1="28.7901" y1="24.4011" x2="25.2189" y2="15.5562" gradientUnits="userSpaceOnUse">
<stop stop-color="#173A4C"/>
<stop offset="0.188" stop-color="#224D5F"/>
<stop offset="0.4269" stop-color="#2B5E71"/>
<stop offset="0.6861" stop-color="#31687B"/>
<stop offset="1" stop-color="#336B7E"/>
</linearGradient>
<linearGradient id="paint10_linear_1_724" x1="28.8386" y1="24.4524" x2="25.0884" y2="18.0693" gradientUnits="userSpaceOnUse">
<stop stop-color="#173A4C"/>
<stop offset="0.188" stop-color="#224D5F"/>
<stop offset="0.4269" stop-color="#2B5E71"/>
<stop offset="0.6861" stop-color="#31687B"/>
<stop offset="1" stop-color="#336B7E"/>
</linearGradient>
</defs>
</svg>
